<svg width="18" height="18" viewBox="0 0 18 18" fill="none" xmlns="http://www.w3.org/2000/svg">
<path d="M1.11612 15.1161C0.627961 15.6043 0.627961 16.3957 1.11612 16.8839C1.60427 17.372 2.39573 17.372 2.88388 16.8839L1.11612 15.1161ZM17.3921 1.85786C17.3921 1.16751 16.8325 0.607865 16.1421 0.607864L4.89214 0.607865C4.20178 0.607865 3.64214 1.16751 3.64214 1.85786C3.64214 2.54822 4.20178 3.10786 4.89214 3.10786H14.8921V13.1079C14.8921 13.7982 15.4518 14.3579 16.1421 14.3579C16.8325 14.3579 17.3921 13.7982 17.3921 13.1079L17.3921 1.85786ZM2.88388 16.8839L17.026 2.74175L15.2583 0.973981L1.11612 15.1161L2.88388 16.8839Z" fill="white"/>
</svg>
