<svg width="20" height="20" viewBox="0 0 20 20" fill="none" xmlns="http://www.w3.org/2000/svg">
<g clip-path="url(#clip0_2007_243)">
<path d="M13.9531 0.078125C13.8828 0.121094 13.793 0.210938 13.75 0.28125C13.6758 0.40625 13.6719 0.488281 13.6719 3.91406V7.41797L12.4844 7.42969L11.2969 7.44141L11.1914 7.53906C10.9688 7.74609 10.9766 7.67969 10.9766 9.92188V11.9922H8.48047H5.98828L5.85938 12.082C5.78906 12.1289 5.69141 12.2188 5.64844 12.2773C5.57031 12.3828 5.56641 12.4375 5.55469 13.832L5.54297 15.2734H3.07422C0.277344 15.2734 0.417969 15.2578 0.246094 15.5859L0.15625 15.7539V17.6523C0.15625 19.4258 0.160156 19.5625 0.230469 19.6875C0.269531 19.7617 0.359375 19.8633 0.429688 19.9102L0.558594 20H8.92188C17.0508 20 17.2891 19.9961 17.3984 19.9258C17.457 19.8867 17.543 19.8008 17.582 19.7422C17.6523 19.6328 17.6562 19.4414 17.6562 13.7109C17.6562 7.98047 17.6523 7.78906 17.582 7.67969C17.4102 7.42188 17.4102 7.42188 16.0859 7.42188H14.8828V6.38672V5.35547L17.2578 5.34375L19.6289 5.33203L19.7578 5.24219C19.9453 5.10547 20.0117 4.95312 19.9922 4.67969L19.9766 4.44922L19.3359 3.80859L18.6953 3.16406L18.8516 3C19.2695 2.55859 19.875 1.88281 19.9336 1.79688C19.9766 1.73828 20 1.625 20 1.48438C20 1.24219 19.9219 1.09375 19.7422 0.972656C19.6328 0.902344 19.5156 0.898438 17.2578 0.898438H14.8828V0.691406C14.8789 0.429688 14.7695 0.179688 14.6016 0.078125C14.4297 -0.0273438 14.125 -0.0273438 13.9531 0.078125ZM17.6953 2.44922C17.3242 2.84766 17.2578 2.95703 17.2578 3.18359C17.2578 3.41016 17.3047 3.48438 17.6484 3.83594L17.9492 4.14062H16.4141H14.8828V3.125V2.10938H16.4492H18.0156L17.6953 2.44922ZM16.4453 13.7109V18.8281H14.3164H12.1875V13.7109V8.59375H14.3164H16.4453V13.7109ZM10.9766 16.0156V18.8281H8.86719H6.75781V16.0156V13.2031H8.86719H10.9766V16.0156ZM5.54688 17.6562V18.8281H3.45703H1.36719V17.6562V16.4844H3.45703H5.54688V17.6562Z" fill="#D21E44"/>
<path d="M8.26123 2.46829C7.53076 2.62454 7.13623 2.7261 7.06201 2.78079C6.79248 2.9722 6.7417 3.42142 6.96826 3.6636C7.17529 3.89407 7.34717 3.9097 7.98779 3.76907C8.22217 3.71829 8.42138 3.67923 8.42529 3.68704C8.44873 3.70657 7.82373 4.76907 7.53076 5.21048C6.87451 6.19095 6.22607 6.9722 5.34717 7.83548C3.95654 9.19485 2.76513 10.023 0.917478 10.9214C0.022947 11.355 -0.0122093 11.3902 0.00732197 11.7847C0.022947 12.0503 0.104978 12.1753 0.327634 12.2925C0.565916 12.4175 0.780759 12.355 1.72217 11.8863C2.9956 11.2534 3.88623 10.687 4.94092 9.83939C6.65185 8.46439 8.08154 6.7847 9.17529 4.86282L9.52295 4.24954L9.77295 4.73001C10.0503 5.27298 10.144 5.35892 10.4604 5.36282C10.8237 5.36673 11.0542 5.13626 11.0542 4.76907C11.0542 4.58548 10.9995 4.45657 10.5112 3.48392C10.0034 2.4761 9.95654 2.39407 9.81201 2.31204C9.72217 2.26126 9.59326 2.2261 9.50732 2.23001C9.42138 2.23001 8.86279 2.33939 8.26123 2.46829Z" fill="#D21E44"/>
</g>
<defs>
<clipPath id="clip0_2007_243">
<rect width="20" height="20" fill="white"/>
</clipPath>
</defs>
</svg>
