<svg width="21" height="18" viewBox="0 0 21 18" fill="none" xmlns="http://www.w3.org/2000/svg">
<g clip-path="url(#clip0_686_290)">
<path d="M3.7967 0.117085C3.06703 0.499693 2.4912 0.93013 2.06923 1.40839C1.29999 2.27361 0.829665 3.20839 0.601094 4.33013C0.495599 4.86056 0.495599 6.23883 0.601094 6.81709C0.772522 7.72143 1.02747 8.49535 1.41868 9.32578C1.65604 9.81709 3.94175 13.7388 4.32417 14.304C5.62966 16.2301 7.42307 17.5258 9.2912 17.891C10.6363 18.1519 12.2319 17.904 13.3703 17.2519C13.911 16.9432 13.9637 16.8997 14.1088 16.6432C14.2275 16.4301 14.2363 16.378 14.2319 15.9997C14.2275 15.3345 13.9593 14.6693 13.2472 13.5649C12.3769 12.2171 11.7659 11.704 10.9264 11.6258C10.4956 11.5867 10.1615 11.6823 9.53296 12.0388C8.7989 12.4519 8.82087 12.4432 8.57912 12.4432C8.2978 12.4388 7.88021 12.2475 7.64285 12.0084C7.40988 11.778 5.25164 8.10404 5.17252 7.80404C5.05384 7.36056 5.14175 6.89535 5.38791 6.65622C5.46703 6.5823 5.72197 6.41274 5.95054 6.2823L6.36813 6.04752L6.42087 6.15187C6.4956 6.291 11.1857 9.93013 11.467 10.0649C11.9198 10.2867 12.3593 10.291 12.8472 10.0867C12.9791 10.0301 14.2934 9.03883 16.267 7.50404L19.467 5.01709L19.4802 9.06056C19.489 13.078 19.489 13.104 19.4011 13.1953C19.3132 13.278 19.2516 13.2823 16.9264 13.304C13.0846 13.3258 12.8604 13.3345 12.7549 13.3997C12.5176 13.5562 12.5132 13.991 12.7505 14.1736C12.8648 14.2606 12.8912 14.2649 17.045 14.2519L19.5549 14.2388L19.7791 14.1214C20.0824 13.9649 20.3505 13.6519 20.4341 13.3693C20.4912 13.1736 20.5 12.5432 20.4912 8.62578L20.478 4.10839L20.3461 3.87796C20.1923 3.5997 20.0341 3.46056 19.7088 3.30839L19.467 3.19535L13.2692 3.1823L7.07142 3.16926L6.6978 2.44317C6.20988 1.49535 5.88461 1.01274 5.44945 0.582304C5.01428 0.156218 4.77252 0.0301285 4.34615 0.00839043C4.07362 -0.00465393 4.01208 0.00839043 3.7967 0.117085ZM4.55274 1.0997C4.93516 1.38665 5.35714 1.99535 5.85384 2.97796C6.23186 3.72143 6.31978 3.991 6.31978 4.42143C6.32417 4.71274 6.30659 4.79535 6.23186 4.89969C6.18351 4.96491 5.86703 5.1823 5.52857 5.37361C4.72417 5.84317 4.58791 5.96491 4.37252 6.40404C4.08681 6.9823 4.04725 7.70839 4.27142 8.291C4.31538 8.40404 4.86483 9.3823 5.4934 10.4562C6.48681 12.1562 6.66703 12.4432 6.91758 12.691C7.24725 13.0214 7.68241 13.2693 8.10879 13.3693C8.72417 13.5127 9.08021 13.4301 9.93736 12.9519C10.2758 12.7606 10.6275 12.591 10.7154 12.578C11.1242 12.5127 11.722 13.0475 12.3593 14.0432C12.9879 15.0214 13.2692 15.6562 13.2385 16.0258C13.2253 16.178 13.2033 16.1997 12.8736 16.3953C12.4297 16.6562 11.7264 16.8866 11.0846 16.9823C9.5945 17.1997 8.06043 16.6693 6.66263 15.4606C6.06483 14.9432 5.41428 14.178 4.97032 13.4606C4.32857 12.4301 2.42967 9.12578 2.24505 8.72578C1.98131 8.13883 1.76593 7.49535 1.63406 6.90404C1.54615 6.51274 1.53296 6.33448 1.53736 5.52143C1.53736 4.63882 1.54615 4.56056 1.66043 4.15187C1.80549 3.62578 2.08681 3.02578 2.3901 2.591C2.72417 2.11274 3.38791 1.49535 3.88461 1.20404C4.11318 1.06926 4.31538 0.960566 4.33296 0.956217C4.34615 0.956217 4.44725 1.02143 4.55274 1.0997ZM18.9132 4.191C18.9044 4.19535 17.4582 5.32143 15.7 6.68665C13.7835 8.17361 12.4429 9.18665 12.3418 9.21709C12.2231 9.25622 12.1396 9.26056 12.0209 9.22578C11.9242 9.19535 10.9879 8.49535 9.53296 7.36491C8.24945 6.36926 7.16813 5.53013 7.12417 5.49969C7.04505 5.44752 7.04945 5.43448 7.15494 5.22578C7.28241 4.9823 7.37912 4.491 7.33956 4.2997L7.31758 4.17361H13.1242C16.3198 4.17361 18.922 4.1823 18.9132 4.191Z" fill="#666666"/>
</g>
<defs>
<clipPath id="clip0_686_290">
<rect width="20" height="18" fill="white" transform="translate(0.5)"/>
</clipPath>
</defs>
</svg>
