<svg width="20" height="20" viewBox="0 0 20 20" fill="none" xmlns="http://www.w3.org/2000/svg">
<g clip-path="url(#clip0_2087_590)">
<path d="M0.257812 0.0742188C0.0820312 0.191406 0 0.347656 0 0.5625C0 0.773438 0.875 4.28125 1.03125 4.69531C1.34766 5.53906 1.46875 5.69141 3.52344 7.75391L5.35156 9.58984L2.80859 12.1289C-0.15625 15.0938 0.0195312 14.875 0.0195312 15.625C0.0195312 16.0508 0.0273438 16.0859 0.148438 16.3477C0.269531 16.6016 0.390625 16.7344 1.82812 18.1719C3.26562 19.6094 3.39844 19.7305 3.65234 19.8516C3.91406 19.9727 3.94922 19.9805 4.375 19.9805C5.11719 19.9805 4.85938 20.1836 7.83203 17.2227L10.4102 14.6484L12.7148 16.957C13.9844 18.2266 15.1289 19.3438 15.2617 19.4375C15.7852 19.8164 16.3633 20 17.0312 20C17.5391 20 17.9023 19.918 18.3398 19.707C18.9688 19.4023 19.4297 18.9375 19.7305 18.3008C19.9492 17.832 20.0156 17.4727 19.9883 16.8789C19.9609 16.2109 19.8164 15.793 19.4336 15.2539C19.3398 15.125 18.2266 13.9844 16.957 12.7148L14.6484 10.4102L17.2227 7.83203C20.1836 4.85938 19.9805 5.11719 19.9805 4.375C19.9805 3.94922 19.9727 3.91406 19.8516 3.65234C19.7305 3.39844 19.6094 3.26562 18.1719 1.82812C16.7344 0.390625 16.6016 0.269531 16.3477 0.148438C16.0859 0.0273438 16.0508 0.0195312 15.625 0.0195312C14.875 0.0195312 15.0938 -0.15625 12.1289 2.80859L9.58984 5.35156L7.75391 3.52344C5.6875 1.46875 5.53906 1.34766 4.69141 1.02734C4.27344 0.871094 0.777344 0 0.5625 0C0.441406 0 0.332031 0.0273438 0.257812 0.0742188ZM17.293 2.70703L18.7891 4.19922V4.37109C18.7891 4.53125 18.7695 4.55859 18.4766 4.85938L18.168 5.17578L17.2578 4.26953C16.7578 3.77344 16.293 3.33984 16.2227 3.30469C15.9375 3.16406 15.5547 3.28906 15.4297 3.5625C15.2461 3.96875 15.3008 4.06641 16.3789 5.14844L17.2852 6.05469L16.8555 6.48438L16.4258 6.91406L15.9375 6.42969C15.668 6.16406 15.4102 5.92578 15.3633 5.90234C15.2422 5.83984 14.9375 5.84766 14.8047 5.91797C14.5703 6.03906 14.457 6.30078 14.5117 6.58984C14.5352 6.71094 14.6328 6.83203 15.0508 7.25781L15.5625 7.77344L15.125 8.21484L14.6875 8.65234L13.7617 7.72656C13.25 7.21875 12.793 6.78516 12.7461 6.76172C12.6992 6.73828 12.5898 6.71875 12.5 6.71875C12.082 6.71875 11.8086 7.07031 11.918 7.47266C11.9531 7.61328 12.0977 7.77344 12.8945 8.57422L13.8281 9.51172L13.3984 9.94141L12.9688 10.3672L12.4883 9.89062C11.9531 9.36328 11.8086 9.27344 11.5273 9.31641C11.3008 9.35156 11.0742 9.5625 11.0352 9.78125C10.9805 10.0703 11.0586 10.2109 11.5938 10.7539L12.0859 11.25L11.668 11.6719L11.25 12.0898L10.3438 11.1836C9.84375 10.6875 9.37891 10.2539 9.30859 10.2188C9.02344 10.0781 8.64062 10.2031 8.51562 10.4766C8.33203 10.8828 8.38672 10.9805 9.46484 12.0625L10.3711 12.9688L9.94141 13.3984L9.51172 13.8281L9.02344 13.3438C8.75391 13.0781 8.49609 12.8398 8.44922 12.8164C8.32812 12.7539 8.02344 12.7617 7.89062 12.832C7.65625 12.9531 7.54297 13.2148 7.59766 13.5078C7.62109 13.625 7.71875 13.7461 8.13672 14.1719L8.64844 14.6875L8.21094 15.1289L7.77344 15.5664L6.84766 14.6406C6.33594 14.1328 5.87891 13.6992 5.83203 13.6758C5.78516 13.6523 5.67578 13.6328 5.58594 13.6328C5.16797 13.6328 4.89453 13.9844 5.00391 14.3867C5.03906 14.5273 5.18359 14.6875 5.98047 15.4883L6.91406 16.4258L6.48438 16.8555L6.05469 17.2812L5.57422 16.8047C5.03906 16.2773 4.89453 16.1875 4.61328 16.2305C4.38672 16.2656 4.16016 16.4766 4.12109 16.6953C4.06641 16.9844 4.14453 17.125 4.68359 17.668L5.17578 18.168L4.85938 18.4766C4.55859 18.7695 4.53125 18.7891 4.37109 18.7891H4.19922L2.70703 17.293L1.21094 15.8008V15.625V15.4492L8.33203 8.33203L15.4492 1.21094H15.625H15.8008L17.293 2.70703ZM2.82812 1.78125C4.59375 2.22656 4.83984 2.33984 5.59766 3.08203L5.85938 3.33984L4.60156 4.59766L3.33984 5.85938L3.13281 5.65234C2.76562 5.29688 2.45312 4.875 2.28125 4.51172C2.15234 4.23438 2.04297 3.875 1.78125 2.82422C1.59766 2.08984 1.44531 1.48047 1.44531 1.46875C1.44531 1.43359 1.4375 1.42969 2.82812 1.78125ZM7.73438 5.21484L8.73047 6.21094L7.46875 7.47266L6.21094 8.73047L5.20703 7.72266L4.19922 6.71875L5.44922 5.46875C6.13672 4.78125 6.70703 4.21875 6.71875 4.21875C6.73047 4.21875 7.1875 4.66797 7.73438 5.21484ZM15.0312 12.5117L16.25 13.7305L14.9883 14.9922L13.7305 16.25L12.5 15.0195L11.2695 13.7891L12.5195 12.5391C13.207 11.8516 13.7773 11.2891 13.7891 11.2891C13.8008 11.2891 14.3594 11.8398 15.0312 12.5117ZM17.8008 15.2852C18.3789 15.875 18.4844 16 18.6172 16.2695C18.7695 16.5742 18.7695 16.582 18.7695 17.0312C18.7695 17.4766 18.7656 17.4922 18.625 17.7773C18.4375 18.1602 18.1602 18.4375 17.7773 18.625C17.4922 18.7656 17.4766 18.7695 17.0312 18.7695C16.582 18.7695 16.5742 18.7695 16.2695 18.6172C16 18.4844 15.875 18.3828 15.2734 17.7891L14.5898 17.1133L15.8398 15.8594C16.5273 15.1719 17.1016 14.6094 17.1133 14.6094C17.125 14.6094 17.4375 14.9141 17.8008 15.2852Z" fill="#D21E44"/>
</g>
<defs>
<clipPath id="clip0_2087_590">
<rect width="20" height="20" fill="white"/>
</clipPath>
</defs>
</svg>
