<svg width="15" height="20" viewBox="0 0 15 20" fill="none" xmlns="http://www.w3.org/2000/svg">
<path d="M4.5 15.75H10.5C10.7128 15.75 10.891 15.6782 11.0345 15.5345C11.1782 15.391 11.25 15.2128 11.25 15C11.25 14.7872 11.1782 14.609 11.0345 14.4655C10.891 14.3218 10.7128 14.25 10.5 14.25H4.5C4.28717 14.25 4.109 14.3218 3.9655 14.4655C3.82183 14.609 3.75 14.7872 3.75 15C3.75 15.2128 3.82183 15.391 3.9655 15.5345C4.109 15.6782 4.28717 15.75 4.5 15.75ZM4.5 11.75H10.5C10.7128 11.75 10.891 11.6782 11.0345 11.5345C11.1782 11.391 11.25 11.2128 11.25 11C11.25 10.7872 11.1782 10.609 11.0345 10.4655C10.891 10.3218 10.7128 10.25 10.5 10.25H4.5C4.28717 10.25 4.109 10.3218 3.9655 10.4655C3.82183 10.609 3.75 10.7872 3.75 11C3.75 11.2128 3.82183 11.391 3.9655 11.5345C4.109 11.6782 4.28717 11.75 4.5 11.75ZM1.80775 19.5C1.30258 19.5 0.875 19.325 0.525 18.975C0.175 18.625 0 18.1974 0 17.6923V2.30775C0 1.80258 0.175 1.375 0.525 1.025C0.875 0.675 1.30258 0.5 1.80775 0.5H9.002C9.243 0.5 9.47475 0.546833 9.69725 0.6405C9.91958 0.734 10.1128 0.862834 10.277 1.027L14.473 5.223C14.6372 5.38717 14.766 5.58042 14.8595 5.80275C14.9532 6.02525 15 6.257 15 6.498V17.6923C15 18.1974 14.825 18.625 14.475 18.975C14.125 19.325 13.6974 19.5 13.1923 19.5H1.80775ZM9 5.596V2H1.80775C1.73075 2 1.66025 2.03208 1.59625 2.09625C1.53208 2.16025 1.5 2.23075 1.5 2.30775V17.6923C1.5 17.7693 1.53208 17.8398 1.59625 17.9038C1.66025 17.9679 1.73075 18 1.80775 18H13.1923C13.2692 18 13.3398 17.9679 13.4038 17.9038C13.4679 17.8398 13.5 17.7693 13.5 17.6923V6.5H9.904C9.64617 6.5 9.43108 6.41375 9.25875 6.24125C9.08625 6.06892 9 5.85383 9 5.596Z" fill="#242020"/>
</svg>
