<svg width="20" height="17" viewBox="0 0 20 17" fill="none" xmlns="http://www.w3.org/2000/svg">
<path d="M9.34525 16.4443C9.56125 16.5211 9.77633 16.5595 9.9905 16.5595C10.2045 16.5595 10.4212 16.5211 10.6405 16.4443C10.8597 16.3673 11.0513 16.2467 11.2153 16.0827L12.6365 14.7922C14.3788 13.2204 15.9583 11.6458 17.375 10.0682C18.7917 8.49075 19.5 6.80133 19.5 5C19.5 3.58083 19.0215 2.39267 18.0645 1.4355C17.1073 0.4785 15.9192 0 14.5 0C13.6937 0 12.8972 0.185917 12.1105 0.55775C11.324 0.929583 10.6205 1.53342 10 2.36925C9.3795 1.53342 8.676 0.929583 7.8895 0.55775C7.10283 0.185917 6.30633 0 5.5 0C4.08083 0 2.89267 0.4785 1.9355 1.4355C0.9785 2.39267 0.5 3.58083 0.5 5C0.5 6.782 1.1965 8.45283 2.5895 10.0125C3.9825 11.5722 5.5655 13.1603 7.3385 14.777L8.775 16.0827C8.93917 16.2467 9.12925 16.3673 9.34525 16.4443Z" fill="#242020"/>
</svg>
