<svg width="20" height="20" viewBox="0 0 20 20" fill="none" xmlns="http://www.w3.org/2000/svg">
<path d="M9.9905 18.5595C9.77633 18.5595 9.56125 18.5211 9.34525 18.4443C9.12925 18.3673 8.93917 18.2467 8.775 18.0827L7.3385 16.777C5.5655 15.1603 3.9825 13.5722 2.5895 12.0125C1.1965 10.4528 0.5 8.782 0.5 7C0.5 5.58083 0.9785 4.39267 1.9355 3.4355C2.89267 2.4785 4.08083 2 5.5 2C6.30633 2 7.10283 2.18592 7.8895 2.55775C8.676 2.92958 9.3795 3.53342 10 4.36925C10.6205 3.53342 11.324 2.92958 12.1105 2.55775C12.8972 2.18592 13.6937 2 14.5 2C15.9192 2 17.1073 2.4785 18.0645 3.4355C19.0215 4.39267 19.5 5.58083 19.5 7C19.5 8.80133 18.7917 10.4907 17.375 12.0682C15.9583 13.6457 14.3788 15.2204 12.6365 16.7922L11.2153 18.0827C11.0512 18.2467 10.8597 18.3673 10.6405 18.4443C10.4212 18.5211 10.2045 18.5595 9.9905 18.5595ZM9.28075 5.8885C8.73975 5.06417 8.17017 4.46 7.572 4.076C6.974 3.692 6.28333 3.5 5.5 3.5C4.5 3.5 3.66667 3.83333 3 4.5C2.33333 5.16667 2 6 2 7C2 7.8025 2.25867 8.64158 2.776 9.51725C3.29333 10.3929 3.94267 11.2634 4.724 12.1287C5.50533 12.9942 6.35183 13.8397 7.2635 14.6652C8.175 15.4909 9.01983 16.2582 9.798 16.9672C9.85567 17.0186 9.923 17.0442 10 17.0442C10.077 17.0442 10.1443 17.0186 10.202 16.9672C10.9802 16.2582 11.825 15.4909 12.7365 14.6652C13.6482 13.8397 14.4947 12.9942 15.276 12.1287C16.0573 11.2634 16.7067 10.3929 17.224 9.51725C17.7413 8.64158 18 7.8025 18 7C18 6 17.6667 5.16667 17 4.5C16.3333 3.83333 15.5 3.5 14.5 3.5C13.7167 3.5 13.026 3.692 12.428 4.076C11.8298 4.46 11.2603 5.06417 10.7192 5.8885C10.6346 6.01667 10.5282 6.11283 10.4 6.177C10.2718 6.241 10.1385 6.273 10 6.273C9.8615 6.273 9.72817 6.241 9.6 6.177C9.47183 6.11283 9.36542 6.01667 9.28075 5.8885Z" fill="#242020"/>
</svg>
