<svg width="14" height="15" viewBox="0 0 14 15" fill="none" xmlns="http://www.w3.org/2000/svg">
<path d="M2 12.8337H4.78854V8.63496C4.78854 8.42163 4.86069 8.24274 5.005 8.09829C5.14944 7.95399 5.32833 7.88184 5.54167 7.88184H8.45833C8.67167 7.88184 8.85056 7.95399 8.995 8.09829C9.13931 8.24274 9.21146 8.42163 9.21146 8.63496V12.8337H12V5.46184C12 5.4192 11.9906 5.38052 11.9719 5.34579C11.9533 5.31107 11.9279 5.28031 11.8958 5.2535L7.15229 1.68788C7.10951 1.65052 7.05875 1.63184 7 1.63184C6.94125 1.63184 6.89049 1.65052 6.84771 1.68788L2.10417 5.2535C2.07208 5.28031 2.04674 5.31107 2.02813 5.34579C2.00938 5.38052 2 5.4192 2 5.46184V12.8337ZM0.75 12.8337V5.46184C0.75 5.22336 0.803333 4.99746 0.91 4.78413C1.01681 4.57066 1.16431 4.39489 1.3525 4.25684L6.09625 0.683086C6.35944 0.482253 6.66028 0.381836 6.99875 0.381836C7.33722 0.381836 7.63889 0.482253 7.90375 0.683086L12.6475 4.25684C12.8357 4.39489 12.9832 4.57066 13.09 4.78413C13.1967 4.99746 13.25 5.22336 13.25 5.46184V12.8337C13.25 13.1745 13.1269 13.4681 12.8806 13.7143C12.6344 13.9606 12.3408 14.0837 12 14.0837H8.71479C8.50132 14.0837 8.32243 14.0115 8.17812 13.867C8.03368 13.7227 7.96146 13.5439 7.96146 13.3304V9.13184H6.03854V13.3304C6.03854 13.5439 5.96632 13.7227 5.82188 13.867C5.67757 14.0115 5.49868 14.0837 5.28521 14.0837H2C1.65917 14.0837 1.36562 13.9606 1.11937 13.7143C0.873125 13.4681 0.75 13.1745 0.75 12.8337Z" fill="#D21E44"/>
</svg>
