<svg width="7" height="10" viewBox="0 0 7 10" fill="none" xmlns="http://www.w3.org/2000/svg">
<path d="M3.5 7.48684C4.38505 6.75807 5.05503 6.05395 5.50994 5.37447C5.96485 4.695 6.19231 4.05838 6.19231 3.46461C6.19231 2.68189 5.94103 2.04035 5.43846 1.54C4.9359 1.03965 4.28974 0.789474 3.5 0.789474C2.71026 0.789474 2.0641 1.03965 1.56154 1.54C1.05897 2.04035 0.807692 2.68189 0.807692 3.46461C0.807692 4.05838 1.03515 4.695 1.49006 5.37447C1.94497 6.05395 2.61495 6.75807 3.5 7.48684ZM3.5 8.24184C3.39922 8.24184 3.29987 8.22518 3.20196 8.19184C3.10396 8.15842 3.01417 8.10829 2.9326 8.04145C1.95646 7.24057 1.22365 6.45684 0.734192 5.69026C0.244731 4.92377 0 4.18189 0 3.46461C0 2.45241 0.325859 1.62193 0.977577 0.973158C1.62921 0.324386 2.47001 0 3.5 0C4.52999 0 5.37079 0.324386 6.02242 0.973158C6.67414 1.62193 7 2.45241 7 3.46461C7 4.18189 6.75527 4.92294 6.26581 5.68776C5.77635 6.45259 5.0435 7.2364 4.06727 8.03921C3.98453 8.10754 3.89451 8.15842 3.79723 8.19184C3.69986 8.22518 3.60078 8.24184 3.5 8.24184ZM3.50094 4.3725C3.76883 4.3725 3.99785 4.27925 4.18802 4.09276C4.37828 3.90627 4.4734 3.68206 4.4734 3.42013C4.4734 3.15829 4.37801 2.93443 4.18721 2.74855C3.99642 2.56259 3.76703 2.46961 3.49906 2.46961C3.23117 2.46961 3.00215 2.56285 2.81198 2.74934C2.62172 2.93583 2.5266 3.16004 2.5266 3.42197C2.5266 3.68382 2.62199 3.90768 2.81279 4.09355C3.00358 4.27952 3.23297 4.3725 3.50094 4.3725ZM0.403846 10C0.289423 10 0.193532 9.96215 0.116173 9.88645C0.0387244 9.81075 0 9.71697 0 9.60513C0 9.4932 0.0387244 9.39947 0.116173 9.32395C0.193532 9.24833 0.289423 9.21053 0.403846 9.21053H6.59615C6.71058 9.21053 6.80647 9.24838 6.88383 9.32408C6.96128 9.39978 7 9.49355 7 9.6054C7 9.71733 6.96128 9.81105 6.88383 9.88658C6.80647 9.96219 6.71058 10 6.59615 10H0.403846Z" fill="white"/>
</svg>
