<svg width="20" height="20" viewBox="0 0 20 20" fill="none" xmlns="http://www.w3.org/2000/svg">
<g clip-path="url(#clip0_913_1276)">
<path d="M1.16667 20C0.833333 20 0.555556 19.8889 0.333333 19.6667C0.111111 19.4444 0 19.1667 0 18.8333V14.3333C0 14.0926 0.0833333 13.875 0.25 13.6806C0.416667 13.4861 0.62963 13.3519 0.888889 13.2778L4.72222 12.5C4.98148 12.463 5.24537 12.4861 5.51389 12.5694C5.78241 12.6528 6 12.7778 6.16667 12.9444L8.77778 15.5556C9.48148 15.1481 10.1481 14.6991 10.7778 14.2083C11.4074 13.7176 12.0093 13.1852 12.5833 12.6111C13.1944 12.0185 13.7546 11.4028 14.2639 10.7639C14.7731 10.125 15.213 9.46296 15.5833 8.77778L12.8889 6.05556C12.7407 5.90741 12.6389 5.73148 12.5833 5.52778C12.5278 5.32407 12.5185 5.07407 12.5556 4.77778L13.2778 0.888889C13.3148 0.648148 13.4352 0.439815 13.6389 0.263889C13.8426 0.087963 14.0741 0 14.3333 0H18.8333C19.1667 0 19.4444 0.111111 19.6667 0.333333C19.8889 0.555556 20 0.833333 20 1.16667C20 3.48148 19.4954 5.76852 18.4861 8.02778C17.4769 10.287 16.0463 12.3426 14.1944 14.1944C12.3426 16.0463 10.287 17.4769 8.02778 18.4861C5.76852 19.4954 3.48148 20 1.16667 20Z" fill="#D21E44"/>
</g>
<defs>
<clipPath id="clip0_913_1276">
<rect width="20" height="20" fill="white"/>
</clipPath>
</defs>
</svg>
