<svg width="13" height="15" viewBox="0 0 13 15" fill="none" xmlns="http://www.w3.org/2000/svg">
<g clip-path="url(#clip0_40_212)">
<path d="M12.1927 10.3797C12.1927 10.5304 12.1648 10.7271 12.1091 10.9699C12.0533 11.2126 11.9948 11.4037 11.9335 11.5432C11.8164 11.8223 11.4762 12.118 10.9131 12.4305C10.389 12.7151 9.87047 12.8574 9.35751 12.8574C9.20697 12.8574 9.06061 12.8477 8.91843 12.8281C8.77625 12.8086 8.61595 12.7737 8.43753 12.7235C8.25911 12.6733 8.12669 12.6328 8.04027 12.6021C7.95385 12.5714 7.79912 12.5142 7.5761 12.4305C7.35307 12.3468 7.21647 12.2966 7.16629 12.2799C6.61988 12.0845 6.13201 11.853 5.70269 11.5851C4.98901 11.1443 4.25163 10.543 3.49056 9.78125C2.72948 9.01953 2.12871 8.28153 1.68824 7.56724C1.42061 7.13756 1.18922 6.64927 0.99407 6.1024C0.977343 6.05218 0.927162 5.91546 0.843528 5.69224C0.759893 5.46903 0.702743 5.31417 0.672077 5.22768C0.641411 5.14118 0.600988 5.00865 0.550807 4.83008C0.500627 4.65151 0.465779 4.49107 0.446264 4.34877C0.42675 4.20647 0.416992 4.05999 0.416992 3.90932C0.416992 3.39593 0.559171 2.87695 0.843528 2.3524C1.15576 1.78878 1.45127 1.44838 1.73005 1.33119C1.86944 1.26981 2.06041 1.21122 2.30295 1.15541C2.54549 1.09961 2.74203 1.07171 2.89257 1.07171C2.97063 1.07171 3.02917 1.08008 3.0682 1.09682C3.16856 1.1303 3.31632 1.34236 3.51147 1.73298C3.5728 1.83901 3.65643 1.98968 3.76237 2.18499C3.86831 2.3803 3.96588 2.55748 4.05509 2.71652C4.1443 2.87556 4.23072 3.02483 4.31436 3.16434C4.33108 3.18666 4.37987 3.25642 4.46072 3.3736C4.54156 3.49079 4.6015 3.58984 4.64053 3.67076C4.67956 3.75167 4.69907 3.83119 4.69907 3.90932C4.69907 4.02093 4.61962 4.16044 4.46072 4.32785C4.30181 4.49526 4.12897 4.64872 3.94218 4.78823C3.7554 4.92773 3.58255 5.07561 3.42365 5.23186C3.26474 5.38811 3.18529 5.51646 3.18529 5.61691C3.18529 5.66713 3.19923 5.72991 3.22711 5.80525C3.25499 5.88058 3.27868 5.93778 3.2982 5.97684C3.31771 6.0159 3.35674 6.08287 3.41529 6.17773C3.47383 6.2726 3.50589 6.32561 3.51147 6.33677C3.93521 7.10128 4.42029 7.75698 4.9667 8.30385C5.51312 8.85073 6.16825 9.33622 6.93211 9.76032C6.94326 9.7659 6.99623 9.79799 7.09102 9.85659C7.1858 9.91518 7.25271 9.95424 7.29174 9.97377C7.33077 9.9933 7.38792 10.017 7.46319 10.0449C7.53846 10.0728 7.60119 10.0868 7.65137 10.0868C7.75173 10.0868 7.87997 10.0073 8.03609 9.84821C8.1922 9.68917 8.33996 9.51618 8.47935 9.32924C8.61874 9.1423 8.77207 8.96931 8.93934 8.81027C9.10661 8.65123 9.246 8.57171 9.35751 8.57171C9.43557 8.57171 9.51502 8.59124 9.59587 8.6303C9.67672 8.66936 9.77568 8.72935 9.89277 8.81027C10.0099 8.89118 10.0796 8.94001 10.1019 8.95675C10.2412 9.04046 10.3904 9.12695 10.5493 9.21624C10.7082 9.30552 10.8852 9.40318 11.0804 9.50921C11.2755 9.61523 11.4261 9.69894 11.532 9.76032C11.9223 9.95564 12.1342 10.1035 12.1676 10.204C12.1844 10.243 12.1927 10.3016 12.1927 10.3797Z" fill="#A1093A"/>
</g>
<defs>
<clipPath id="clip0_40_212">
<rect width="11.79" height="15" fill="white" transform="matrix(1 0 0 -1 0.410156 15)"/>
</clipPath>
</defs>
</svg>
