<svg width="20" height="20" viewBox="0 0 20 20" fill="none" xmlns="http://www.w3.org/2000/svg">
<g clip-path="url(#clip0_791_756)">
<path d="M2.19107 19.9173C1.60171 19.9173 1.10286 19.7132 0.694531 19.3048C0.286198 18.8965 0.0820312 18.3976 0.0820312 17.8083V2.19303C0.0820312 1.60366 0.286198 1.10482 0.694531 0.696484C1.10286 0.288151 1.60171 0.0839844 2.19107 0.0839844H17.8063C18.3957 0.0839844 18.8945 0.288151 19.3029 0.696484C19.7112 1.10482 19.9154 1.60366 19.9154 2.19303V17.8083C19.9154 18.3976 19.7112 18.8965 19.3029 19.3048C18.8945 19.7132 18.3957 19.9173 17.8063 19.9173H2.19107ZM2.19107 18.1673H17.8063C17.8962 18.1673 17.9784 18.1299 18.0531 18.055C18.1279 17.9804 18.1654 17.8981 18.1654 17.8083V2.19303C18.1654 2.10319 18.1279 2.02094 18.0531 1.94628C17.9784 1.87141 17.8962 1.83398 17.8063 1.83398H2.19107C2.10124 1.83398 2.01899 1.87141 1.94432 1.94628C1.86946 2.02094 1.83203 2.10319 1.83203 2.19303V17.8083C1.83203 17.8981 1.86946 17.9804 1.94432 18.055C2.01899 18.1299 2.10124 18.1673 2.19107 18.1673ZM4.92836 15.5423H15.1589C15.3698 15.5423 15.5262 15.4466 15.6279 15.255C15.7296 15.0637 15.7138 14.8783 15.5806 14.6988L12.7987 10.9722C12.6894 10.8316 12.5488 10.7613 12.3769 10.7613C12.2049 10.7613 12.0643 10.8316 11.9552 10.9722L9.10124 14.6898L7.18966 12.2398C7.08057 12.1066 6.94184 12.04 6.77345 12.04C6.60525 12.04 6.46652 12.1104 6.35724 12.2512L4.5177 14.6988C4.37711 14.8783 4.35767 15.0637 4.45936 15.255C4.56106 15.4466 4.71739 15.5423 4.92836 15.5423Z" fill="#C81942"/>
</g>
<defs>
<clipPath id="clip0_791_756">
<rect width="20" height="20" fill="white"/>
</clipPath>
</defs>
</svg>
