<svg width="20" height="19" viewBox="0 0 20 19" fill="none" xmlns="http://www.w3.org/2000/svg">
<path d="M6.30831 17.9999C5.81115 17.9999 5.38556 17.8229 5.03156 17.4689C4.67756 17.1149 4.50056 16.6893 4.50056 16.1921V13.9999H2.59681C2.09965 13.9999 1.67406 13.8229 1.32006 13.4689C0.966062 13.1149 0.789062 12.6893 0.789062 12.1921V8.30762C0.789062 7.59928 1.03106 7.00553 1.51506 6.52637C1.99906 6.0472 2.5904 5.80762 3.28906 5.80762H16.7121C17.4204 5.80762 18.0141 6.0472 18.4933 6.52637C18.9725 7.00553 19.2121 7.59928 19.2121 8.30762V12.1921C19.2121 12.6893 19.0351 13.1149 18.6811 13.4689C18.3271 13.8229 17.9015 13.9999 17.4043 13.9999H15.5006V16.1921C15.5006 16.6893 15.3236 17.1149 14.9696 17.4689C14.6156 17.8229 14.19 17.9999 13.6928 17.9999H6.30831ZM2.59681 12.4999H4.50056C4.5134 12.014 4.6949 11.5977 5.04506 11.2509C5.3954 10.904 5.81648 10.7306 6.30831 10.7306H13.6928C14.1846 10.7306 14.6056 10.904 14.9558 11.2509C15.3061 11.5977 15.4877 12.014 15.5006 12.4999H17.4043C17.4941 12.4999 17.5679 12.471 17.6256 12.4134C17.6832 12.3557 17.7121 12.282 17.7121 12.1921V8.30762C17.7121 8.02428 17.6162 7.78678 17.4246 7.59512C17.2329 7.40345 16.9954 7.30762 16.7121 7.30762H3.28906C3.00573 7.30762 2.76823 7.40345 2.57656 7.59512C2.3849 7.78678 2.28906 8.02428 2.28906 8.30762V12.1921C2.28906 12.282 2.3179 12.3557 2.37556 12.4134C2.43323 12.471 2.50698 12.4999 2.59681 12.4999ZM14.0006 5.80762V3.11537C14.0006 3.02553 13.9717 2.95178 13.9141 2.89412C13.8564 2.83645 13.7826 2.80762 13.6928 2.80762H6.30831C6.21848 2.80762 6.14473 2.83645 6.08706 2.89412C6.0294 2.95178 6.00056 3.02553 6.00056 3.11537V5.80762H4.50056V3.11537C4.50056 2.6182 4.67756 2.19262 5.03156 1.83862C5.38556 1.48462 5.81115 1.30762 6.30831 1.30762H13.6928C14.19 1.30762 14.6156 1.48462 14.9696 1.83862C15.3236 2.19262 15.5006 2.6182 15.5006 3.11537V5.80762H14.0006ZM15.8083 9.80762C16.0916 9.80762 16.3291 9.71178 16.5208 9.52012C16.7125 9.32845 16.8083 9.09095 16.8083 8.80762C16.8083 8.52428 16.7125 8.28678 16.5208 8.09512C16.3291 7.90345 16.0916 7.80762 15.8083 7.80762C15.525 7.80762 15.2875 7.90345 15.0958 8.09512C14.9041 8.28678 14.8083 8.52428 14.8083 8.80762C14.8083 9.09095 14.9041 9.32845 15.0958 9.52012C15.2875 9.71178 15.525 9.80762 15.8083 9.80762ZM14.0006 16.1921V12.5384C14.0006 12.4485 13.9717 12.3748 13.9141 12.3171C13.8564 12.2595 13.7826 12.2306 13.6928 12.2306H6.30831C6.21848 12.2306 6.14473 12.2595 6.08706 12.3171C6.0294 12.3748 6.00056 12.4485 6.00056 12.5384V16.1921C6.00056 16.282 6.0294 16.3557 6.08706 16.4134C6.14473 16.471 6.21848 16.4999 6.30831 16.4999H13.6928C13.7826 16.4999 13.8564 16.471 13.9141 16.4134C13.9717 16.3557 14.0006 16.282 14.0006 16.1921ZM2.59681 7.30762H2.28906H17.7121H2.59681Z" fill="#6C6C6C"/>
</svg>
