<?xml version="1.0" encoding="UTF-8" standalone="no"?>
<svg
   width="17"
   height="16"
   viewBox="0 0 17 16"
   fill="none"
   version="1.1"
   id="svg2"
   sodipodi:docname="question-mark.svg"
   inkscape:version="1.4.2 (f4327f4, 2025-05-13)"
   xmlns:inkscape="http://www.inkscape.org/namespaces/inkscape"
   xmlns:sodipodi="http://sodipodi.sourceforge.net/DTD/sodipodi-0.dtd"
   xmlns="http://www.w3.org/2000/svg"
   xmlns:svg="http://www.w3.org/2000/svg">
  <defs
     id="defs2" />
  <sodipodi:namedview
     id="namedview2"
     pagecolor="#ffffff"
     bordercolor="#000000"
     borderopacity="0.25"
     inkscape:showpageshadow="2"
     inkscape:pageopacity="0.0"
     inkscape:pagecheckerboard="0"
     inkscape:deskcolor="#d1d1d1"
     inkscape:zoom="72.9375"
     inkscape:cx="8.4935733"
     inkscape:cy="8"
     inkscape:window-width="3440"
     inkscape:window-height="1369"
     inkscape:window-x="-8"
     inkscape:window-y="-8"
     inkscape:window-maximized="1"
     inkscape:current-layer="svg2" />
  <path
     d="M9.32324 9.48633H8.0166C8.02051 9.12305 8.05176 8.81836 8.11035 8.57227C8.16895 8.32227 8.2666 8.0957 8.40332 7.89258C8.54395 7.68945 8.72949 7.47461 8.95996 7.24805C9.13965 7.07617 9.30176 6.91406 9.44629 6.76172C9.59082 6.60547 9.70605 6.44141 9.79199 6.26953C9.87793 6.09375 9.9209 5.89258 9.9209 5.66602C9.9209 5.41992 9.87988 5.21094 9.79785 5.03906C9.71582 4.86719 9.59473 4.73633 9.43457 4.64648C9.27832 4.55664 9.08301 4.51172 8.84863 4.51172C8.65332 4.51172 8.46973 4.55078 8.29785 4.62891C8.12598 4.70312 7.9873 4.82031 7.88184 4.98047C7.77637 5.13672 7.71973 5.34375 7.71191 5.60156H6.2998C6.30762 5.10938 6.4248 4.69531 6.65137 4.35938C6.87793 4.02344 7.18262 3.77148 7.56543 3.60352C7.94824 3.43555 8.37598 3.35156 8.84863 3.35156C9.37207 3.35156 9.81934 3.44141 10.1904 3.62109C10.5615 3.79688 10.8447 4.05469 11.04 4.39453C11.2393 4.73047 11.3389 5.13672 11.3389 5.61328C11.3389 5.95703 11.2705 6.26953 11.1338 6.55078C10.9971 6.82812 10.8193 7.08789 10.6006 7.33008C10.3818 7.56836 10.1455 7.80664 9.8916 8.04492C9.67285 8.24414 9.52441 8.46094 9.44629 8.69531C9.36816 8.92578 9.32715 9.18945 9.32324 9.48633ZM7.89941 11.3145C7.89941 11.1035 7.97168 10.9258 8.11621 10.7812C8.26074 10.6328 8.45801 10.5586 8.70801 10.5586C8.95801 10.5586 9.15527 10.6328 9.2998 10.7812C9.44434 10.9258 9.5166 11.1035 9.5166 11.3145C9.5166 11.5254 9.44434 11.7051 9.2998 11.8535C9.15527 11.998 8.95801 12.0703 8.70801 12.0703C8.45801 12.0703 8.26074 11.998 8.11621 11.8535C7.97168 11.7051 7.89941 11.5254 7.89941 11.3145Z"
     fill="#242020"
     id="path1" />
  <path
     style="baseline-shift:baseline;display:inline;overflow:visible;vector-effect:none;fill:#242020;enable-background:accumulate;stop-color:#000000;stop-opacity:1;opacity:1"
     d="M 8.7910156,0 C 4.3804807,0 0.79101563,3.589465 0.79101562,8 c 0,4.410544 3.58946718,8 7.99999998,8 4.4105054,0 7.9980464,-3.589458 7.9980464,-8 0,-4.4105329 -3.587539,-8 -7.9980464,-8 z m 0,1.3007812 c 3.7080124,0 6.6992184,2.9911717 6.6992184,6.6992188 0,3.708058 -2.991204,6.699219 -6.6992184,6.699219 -3.7080471,0 -6.7011719,-2.991163 -6.7011718,-6.699219 0,-3.708045 2.9931267,-6.6992188 6.7011718,-6.6992188 z"
     id="path2" />
</svg>
