<svg width="24" height="24" viewBox="0 0 24 24" fill="none" xmlns="http://www.w3.org/2000/svg">
<g clip-path="url(#clip0_447_184)">
<path d="M11.9996 13.2641L15.6872 16.952C15.8534 17.118 16.0623 17.203 16.3139 17.207C16.5653 17.2108 16.778 17.1258 16.952 16.952C17.1258 16.778 17.2127 16.5672 17.2127 16.3196C17.2127 16.072 17.1258 15.8612 16.952 15.6872L13.2641 11.9996L16.952 8.31201C17.118 8.14581 17.203 7.93691 17.207 7.68531C17.2108 7.43391 17.1258 7.22121 16.952 7.04721C16.778 6.87341 16.5672 6.78651 16.3196 6.78651C16.072 6.78651 15.8612 6.87341 15.6872 7.04721L11.9996 10.7351L8.31201 7.04721C8.14581 6.88121 7.93691 6.79621 7.68531 6.79221C7.43391 6.78841 7.22121 6.87341 7.04721 7.04721C6.87341 7.22121 6.78651 7.43201 6.78651 7.67961C6.78651 7.92721 6.87341 8.13801 7.04721 8.31201L10.7351 11.9996L7.04721 15.6872C6.88121 15.8534 6.79621 16.0623 6.79221 16.3139C6.78841 16.5653 6.87341 16.778 7.04721 16.952C7.22121 17.1258 7.43201 17.2127 7.67961 17.2127C7.92721 17.2127 8.13801 17.1258 8.31201 16.952L11.9996 13.2641ZM12.0017 23.3996C10.4249 23.3996 8.94281 23.1004 7.55541 22.502C6.16801 21.9036 4.96121 21.0915 3.93501 20.0657C2.90881 19.0399 2.09631 17.8336 1.49751 16.4468C0.898909 15.06 0.599609 13.5783 0.599609 12.0017C0.599609 10.4249 0.898809 8.94281 1.49721 7.55541C2.09561 6.16801 2.90771 4.96121 3.93351 3.93501C4.95931 2.90881 6.16561 2.09631 7.55241 1.49751C8.93921 0.898909 10.4209 0.599609 11.9975 0.599609C13.5743 0.599609 15.0564 0.898809 16.4438 1.49721C17.8312 2.09561 19.038 2.90771 20.0642 3.93351C21.0904 4.95931 21.9029 6.16561 22.5017 7.55241C23.1003 8.93921 23.3996 10.4209 23.3996 11.9975C23.3996 13.5743 23.1004 15.0564 22.502 16.4438C21.9036 17.8312 21.0915 19.038 20.0657 20.0642C19.0399 21.0904 17.8336 21.9029 16.4468 22.5017C15.06 23.1003 13.5783 23.3996 12.0017 23.3996ZM11.9996 21.5996C14.6796 21.5996 16.9496 20.6696 18.8096 18.8096C20.6696 16.9496 21.5996 14.6796 21.5996 11.9996C21.5996 9.31961 20.6696 7.04961 18.8096 5.18961C16.9496 3.32961 14.6796 2.39961 11.9996 2.39961C9.31961 2.39961 7.04961 3.32961 5.18961 5.18961C3.32961 7.04961 2.39961 9.31961 2.39961 11.9996C2.39961 14.6796 3.32961 16.9496 5.18961 18.8096C7.04961 20.6696 9.31961 21.5996 11.9996 21.5996Z" fill="#242020"/>
</g>
<defs>
<clipPath id="clip0_447_184">
<rect width="24" height="24" fill="white"/>
</clipPath>
</defs>
</svg>
