<svg width="23" height="14" viewBox="0 0 23 14" fill="none" xmlns="http://www.w3.org/2000/svg">
<g clip-path="url(#clip0_686_279)">
<path d="M0.638889 13.951C0.45787 13.951 0.306134 13.8899 0.183681 13.7677C0.0612269 13.6458 0 13.4944 0 13.3137C0 13.1332 0.0612269 12.9821 0.183681 12.8606C0.306134 12.739 0.45787 12.6783 0.638889 12.6783H11.5738C11.7548 12.6783 11.9065 12.7394 12.029 12.8615C12.1515 12.9837 12.2127 13.1351 12.2127 13.3156C12.2127 13.4961 12.1515 13.6471 12.029 13.7687C11.9065 13.8902 11.7548 13.951 11.5738 13.951H0.638889ZM0.638889 7.85655C0.45787 7.85655 0.306134 7.79556 0.183681 7.67359C0.0612269 7.55141 0 7.40006 0 7.21955C0 7.03882 0.0612269 6.88768 0.183681 6.76614C0.306134 6.64459 0.45787 6.58382 0.638889 6.58382H5.06192C5.24293 6.58382 5.39467 6.64491 5.51712 6.76709C5.63958 6.88927 5.7008 7.04062 5.7008 7.22114C5.7008 7.40165 5.63958 7.55268 5.51712 7.67423C5.39467 7.79577 5.24293 7.85655 5.06192 7.85655H0.638889ZM0.638889 1.76209C0.45787 1.76209 0.306134 1.70111 0.183681 1.57914C0.0612269 1.45695 0 1.30561 0 1.12509C0 0.944575 0.0612269 0.793545 0.183681 0.672C0.306134 0.550242 0.45787 0.489364 0.638889 0.489364H5.06192C5.24293 0.489364 5.39467 0.550455 5.51712 0.672637C5.63958 0.794819 5.7008 0.946166 5.7008 1.12668C5.7008 1.3072 5.63958 1.45823 5.51712 1.57977C5.39467 1.70132 5.24293 1.76209 5.06192 1.76209H0.638889ZM13.9572 10.2063C12.5229 10.2063 11.3001 9.71229 10.289 8.72423C9.27805 7.73638 8.77258 6.5293 8.77258 5.103C8.77258 3.67691 9.27858 2.46994 10.2906 1.48209C11.3028 0.494031 12.527 0 13.9632 0C15.3992 0 16.6213 0.494031 17.6295 1.48209C18.6379 2.46994 19.1421 3.67288 19.1421 5.09091C19.1421 5.65706 19.0475 6.20985 18.8584 6.74927C18.6691 7.28848 18.3934 7.77997 18.0314 8.22373L22.548 12.649C22.6839 12.7627 22.7518 12.9074 22.7518 13.083C22.7518 13.2586 22.6839 13.4142 22.548 13.5498C22.4338 13.6688 22.2886 13.7283 22.1123 13.7283C21.9357 13.7283 21.7795 13.6688 21.6436 13.5498L17.127 9.1245C16.6651 9.46877 16.1635 9.73509 15.6221 9.92345C15.0808 10.112 14.5258 10.2063 13.9572 10.2063ZM13.9572 8.93359C15.0424 8.93359 15.965 8.56238 16.7248 7.81995C17.4845 7.07753 17.8643 6.17188 17.8643 5.103C17.8643 4.03433 17.4845 3.12879 16.7248 2.38636C15.965 1.64394 15.0424 1.27273 13.9572 1.27273C12.8719 1.27273 11.9495 1.64394 11.1898 2.38636C10.4302 3.12879 10.0504 4.03433 10.0504 5.103C10.0504 6.17188 10.4302 7.07753 11.1898 7.81995C11.9495 8.56238 12.8719 8.93359 13.9572 8.93359Z" fill="#666666"/>
</g>
<defs>
<clipPath id="clip0_686_279">
<rect width="23" height="14" fill="white"/>
</clipPath>
</defs>
</svg>
