<svg width="16" height="16" viewBox="0 0 16 16" fill="none" xmlns="http://www.w3.org/2000/svg">
<g clip-path="url(#clip0_40_202)">
<path d="M5.79515 11.2134C4.27723 11.2134 2.99175 10.6869 1.93871 9.63402C0.885819 8.58098 0.359375 7.2955 0.359375 5.77757C0.359375 4.25965 0.885819 2.97417 1.93871 1.92113C2.99175 0.868241 4.27723 0.341797 5.79515 0.341797C7.31308 0.341797 8.59856 0.868241 9.6516 1.92113C10.7045 2.97417 11.2309 4.25965 11.2309 5.77757C11.2309 6.41239 11.1244 7.01869 10.9114 7.59646C10.6982 8.17424 10.4138 8.67676 10.0583 9.10402L15.1729 14.2187C15.296 14.3416 15.359 14.4963 15.3618 14.6827C15.3646 14.8691 15.3017 15.0266 15.1729 15.1554C15.0442 15.2841 14.888 15.3485 14.7045 15.3485C14.5211 15.3485 14.365 15.2841 14.2363 15.1554L9.1216 10.0407C8.67715 10.4076 8.16604 10.6948 7.58826 10.9022C7.01049 11.1096 6.41278 11.2134 5.79515 11.2134ZM5.79515 9.88024C6.94049 9.88024 7.91056 9.48276 8.70538 8.6878C9.50034 7.89298 9.89782 6.92291 9.89782 5.77757C9.89782 4.63224 9.50034 3.66217 8.70538 2.86735C7.91056 2.07239 6.94049 1.67491 5.79515 1.67491C4.64982 1.67491 3.67975 2.07239 2.88493 2.86735C2.08997 3.66217 1.69249 4.63224 1.69249 5.77757C1.69249 6.92291 2.08997 7.89298 2.88493 8.6878C3.67975 9.48276 4.64982 9.88024 5.79515 9.88024Z" fill="white"/>
</g>
<defs>
<clipPath id="clip0_40_202">
<rect width="16" height="16" fill="white"/>
</clipPath>
</defs>
</svg>
