<svg width="20" height="20" viewBox="0 0 20 20" fill="none" xmlns="http://www.w3.org/2000/svg">
<path d="M18.4374 2.13668C18.3632 2.1445 18.2226 2.16793 18.1288 2.19137C18.0312 2.21481 15.5195 3.23825 12.5429 4.47262C9.56243 5.70309 5.82024 7.24996 4.21868 7.91012C2.61712 8.57028 1.22259 9.15621 1.11321 9.2109C1.00774 9.2695 0.828055 9.40621 0.71868 9.51168C0.421805 9.80465 0.402273 10.0586 0.648367 10.3476C0.773367 10.4922 0.831961 10.5195 1.55462 10.7578C4.12493 11.6054 4.45696 11.6953 5.15618 11.6953C5.61712 11.6953 5.71868 11.6836 5.95696 11.5976C6.17571 11.5195 6.92571 11.0312 9.76946 9.11325C13.5663 6.55075 13.6874 6.47262 14.1601 6.24215C14.4999 6.07809 14.7382 6.05465 14.8163 6.17575C14.8671 6.25778 14.7773 6.51559 14.6093 6.76559C14.4218 7.04684 12.4882 8.94137 10.4687 10.8203C8.73821 12.4257 8.76946 12.3906 8.7968 12.8554C8.82024 13.289 8.98821 13.4687 10.121 14.2968C10.9531 14.9062 14.4999 17.2617 14.8632 17.4492C15.3788 17.7148 15.7187 17.8203 16.121 17.8398C16.4101 17.8593 16.5195 17.8476 16.6679 17.7929C16.9921 17.6679 17.2148 17.4101 17.3671 16.9765C17.4413 16.7656 18.8788 7.74606 19.332 4.6484C19.5663 3.05465 19.5702 2.76559 19.3632 2.45309C19.2148 2.23043 18.832 2.10153 18.4374 2.13668Z" fill="white"/>
</svg>
