<svg width="20" height="20" viewBox="0 0 20 20" fill="none" xmlns="http://www.w3.org/2000/svg">
<g clip-path="url(#clip0_240_909)">
<path d="M9.00423 0.0270176C7.14486 0.226236 5.44173 0.898111 3.9222 2.03483C3.42611 2.40592 2.40658 3.42546 2.03548 3.92155C1.01986 5.27702 0.394858 6.72624 0.113608 8.37467C0.00813907 8.98405 -0.0309234 10.3903 0.0393891 11.027C0.219077 12.6989 0.765952 14.2106 1.68001 15.5661L1.88314 15.8669L1.25423 17.7262C0.910483 18.7497 0.633139 19.5895 0.637045 19.5934C0.640952 19.6012 1.48861 19.3356 2.51986 19.0036C3.55111 18.6715 4.43001 18.3981 4.46908 18.3981C4.50814 18.3981 4.63314 18.4528 4.74251 18.5231C5.99251 19.3044 7.43783 19.7965 8.97298 19.9606C9.6097 20.0309 11.016 19.9919 11.6253 19.8864C13.2738 19.6051 14.7269 18.9801 16.0785 17.9645C16.5745 17.5934 17.5941 16.5739 17.9652 16.0778C18.9964 14.6989 19.6253 13.2184 19.9105 11.5036C20.012 10.8864 20.012 9.11296 19.9105 8.49577C19.6253 6.78092 18.9964 5.30046 17.9652 3.92155C17.5941 3.42546 16.5745 2.40592 16.0785 2.03483C14.7269 1.02311 13.2816 0.398111 11.6253 0.112955C11.2464 0.0465488 10.9535 0.0270176 10.1566 0.0192051C9.6097 0.0113926 9.09017 0.0152988 9.00423 0.0270176ZM6.8558 4.66374C6.95736 4.70671 7.01595 4.77702 7.1058 4.95671C7.33236 5.40202 8.16439 7.44889 8.16439 7.55827C8.16439 7.74186 8.01204 7.98405 7.63314 8.41764C7.43392 8.6403 7.25033 8.86296 7.22689 8.90202C7.12142 9.10124 7.22298 9.36686 7.61361 9.92155C8.46908 11.1364 9.44564 11.988 10.6761 12.5778C11.6527 13.0505 11.7738 13.0192 12.4027 12.1481C12.8558 11.5192 13.0355 11.3708 13.2972 11.4294C13.5628 11.488 15.8402 12.5973 15.9378 12.7184C16.0785 12.8864 15.9535 13.8083 15.7269 14.2497C15.4027 14.8903 14.3988 15.4801 13.4847 15.5661C12.5355 15.6598 10.2738 14.8708 8.93392 13.9801C7.57845 13.0778 6.18392 11.6012 5.09798 9.92546C4.55111 9.08171 4.21908 8.10514 4.21908 7.34342C4.21908 6.52311 4.47298 5.8278 5.00033 5.20671C5.24251 4.91374 5.46908 4.75358 5.75423 4.66764C5.9808 4.59342 6.68392 4.59342 6.8558 4.66374Z" fill="white"/>
</g>
<defs>
<clipPath id="clip0_240_909">
<rect width="20" height="20" fill="white"/>
</clipPath>
</defs>
</svg>
