<svg width="17" height="20" viewBox="0 0 17 20" fill="none" xmlns="http://www.w3.org/2000/svg">
<path d="M16.2474 4.24107C16.454 4.4494 16.6311 4.73214 16.7786 5.08928C16.9262 5.44643 17 5.77381 17 6.07143V18.9286C17 19.2262 16.8967 19.4792 16.6901 19.6875C16.4835 19.8958 16.2326 20 15.9375 20H1.0625C0.767361 20 0.516493 19.8958 0.309896 19.6875C0.103299 19.4792 0 19.2262 0 18.9286V1.07143C0 0.773809 0.103299 0.520832 0.309896 0.3125C0.516493 0.104166 0.767361 0 1.0625 0H10.9792C11.2743 0 11.599 0.0744038 11.9531 0.223213C12.3073 0.372023 12.5877 0.550594 12.7943 0.758928L16.2474 4.24107ZM11.3333 1.51786V5.71428H15.4948C15.421 5.49851 15.3398 5.34598 15.2513 5.2567L11.7871 1.76339C11.6986 1.67411 11.5473 1.59226 11.3333 1.51786ZM15.5833 18.5714V7.14286H10.9792C10.684 7.14286 10.4332 7.03869 10.2266 6.83036C10.02 6.62202 9.91667 6.36905 9.91667 6.07143V1.42857H1.41667V18.5714H15.5833ZM4.74805 15.9598V17.1429H7.85807V15.9598H7.02799L8.16797 14.1629C8.20486 14.1109 8.24175 14.0495 8.27865 13.9788C8.31554 13.9081 8.34321 13.8579 8.36165 13.8281C8.3801 13.7984 8.39301 13.7835 8.40039 13.7835H8.42253C8.4299 13.8132 8.44835 13.8504 8.47786 13.8951C8.49262 13.9249 8.50922 13.9528 8.52767 13.9788C8.54611 14.0048 8.56825 14.0346 8.59408 14.0681C8.6199 14.1016 8.64388 14.1332 8.66602 14.1629L9.85026 15.9598H9.00911V17.1429H12.2298V15.9598H11.4772L9.35221 12.9129L11.5104 9.76562H12.252V8.57143H9.16406V9.76562H9.98307L8.8431 11.5402C8.81359 11.5923 8.77669 11.6536 8.73242 11.7243C8.68815 11.795 8.65495 11.8452 8.63281 11.875L8.61068 11.9085H8.58854C8.58116 11.8787 8.56272 11.8415 8.5332 11.7969C8.48893 11.715 8.42622 11.6295 8.34505 11.5402L7.17188 9.76562H8.01302V8.57143H4.80339V9.76562H5.55599L7.64779 12.8013L5.50065 15.9598H4.74805Z" fill="#6C6C6C"/>
</svg>
