<svg width="16" height="16" viewBox="0 0 16 16" fill="none" xmlns="http://www.w3.org/2000/svg">
<path d="M5.03826 6.39568H3.94537C3.75058 6.39568 3.58726 6.32976 3.45541 6.19791C3.32371 6.06607 3.25787 5.90275 3.25787 5.70795C3.25787 5.51301 3.32371 5.34977 3.45541 5.21823C3.58726 5.08653 3.75058 5.02068 3.94537 5.02068H5.03826V3.92779C5.03826 3.733 5.10419 3.56968 5.23603 3.43783C5.36788 3.30614 5.5312 3.24029 5.72599 3.24029C5.92094 3.24029 6.08418 3.30614 6.21572 3.43783C6.34742 3.56968 6.41326 3.733 6.41326 3.92779V5.02068H7.50616C7.70095 5.02068 7.86427 5.08661 7.99612 5.21846C8.12781 5.3503 8.19366 5.51362 8.19366 5.70841C8.19366 5.90336 8.12781 6.0666 7.99612 6.19814C7.86427 6.32984 7.70095 6.39568 7.50616 6.39568H6.41326V7.48858C6.41326 7.68337 6.34734 7.84669 6.21549 7.97854C6.08365 8.11023 5.92033 8.17608 5.72553 8.17608C5.53059 8.17608 5.36735 8.11023 5.23581 7.97854C5.10411 7.84669 5.03826 7.68337 5.03826 7.48858V6.39568ZM5.72576 11.3138C4.15903 11.3138 2.83307 10.7714 1.74789 9.68652C0.662707 8.60164 0.120117 7.27599 0.120117 5.70956C0.120117 4.14328 0.662555 2.81717 1.74743 1.73123C2.8323 0.645435 4.15796 0.102539 5.72439 0.102539C7.29067 0.102539 8.61678 0.645129 9.70272 1.73031C10.7885 2.81549 11.3314 4.14145 11.3314 5.70818C11.3314 6.36284 11.2216 6.98808 11.0019 7.58391C10.782 8.17975 10.4888 8.69797 10.1221 9.13858L15.3966 14.4131C15.5236 14.5399 15.5885 14.6994 15.5914 14.8916C15.5943 15.0838 15.5294 15.2463 15.3966 15.379C15.2638 15.5118 15.1028 15.5782 14.9135 15.5782C14.7244 15.5782 14.5634 15.5118 14.4307 15.379L9.15616 10.1045C8.69783 10.4829 8.17074 10.7791 7.57491 10.993C6.97908 11.2069 6.36269 11.3138 5.72576 11.3138ZM5.72576 9.93906C6.90689 9.93906 7.90728 9.52916 8.72693 8.70935C9.54674 7.8897 9.95664 6.88931 9.95664 5.70818C9.95664 4.52706 9.54674 3.52667 8.72693 2.70702C7.90728 1.88721 6.90689 1.47731 5.72576 1.47731C4.54464 1.47731 3.54425 1.88721 2.7246 2.70702C1.90479 3.52667 1.49489 4.52706 1.49489 5.70818C1.49489 6.88931 1.90479 7.8897 2.7246 8.70935C3.54425 9.52916 4.54464 9.93906 5.72576 9.93906Z" fill="#F9F9F9"/>
</svg>
