<svg width="23" height="24" viewBox="0 0 23 24" fill="none" xmlns="http://www.w3.org/2000/svg">
<g clip-path="url(#clip0_151_779)">
<path d="M14.4213 10.7143V11.5714C14.4213 11.6875 14.3789 11.7879 14.2941 11.8728C14.2093 11.9576 14.1088 12 13.9927 12H10.9927V15C10.9927 15.1161 10.9503 15.2165 10.8655 15.3013C10.7807 15.3862 10.6802 15.4286 10.5642 15.4286H9.70703C9.59096 15.4286 9.49051 15.3862 9.40569 15.3013C9.32087 15.2165 9.27846 15.1161 9.27846 15V12H6.27846C6.16239 12 6.06194 11.9576 5.97712 11.8728C5.8923 11.7879 5.84989 11.6875 5.84989 11.5714V10.7143C5.84989 10.5982 5.8923 10.4978 5.97712 10.4129C6.06194 10.3281 6.16239 10.2857 6.27846 10.2857H9.27846V7.28571C9.27846 7.16964 9.32087 7.0692 9.40569 6.98438C9.49051 6.89955 9.59096 6.85714 9.70703 6.85714H10.5642C10.6802 6.85714 10.7807 6.89955 10.8655 6.98438C10.9503 7.0692 10.9927 7.16964 10.9927 7.28571V10.2857H13.9927C14.1088 10.2857 14.2093 10.3281 14.2941 10.4129C14.3789 10.4978 14.4213 10.5982 14.4213 10.7143ZM14.3744 15.3817C14.3744 15.3817 14.668 15.0882 15.255 14.5011C15.8421 13.9141 16.1356 12.7946 16.1356 11.1429C16.1356 9.49107 15.5485 8.07812 14.3744 6.90402C13.2003 5.72991 11.7874 5.14286 10.1356 5.14286C8.48382 5.14286 7.07087 5.72991 5.89676 6.90402C4.72266 8.07812 4.1356 9.49107 4.1356 11.1429C4.1356 12.7946 4.72266 14.2076 5.89676 15.3817C7.07087 16.5558 8.48382 17.1429 10.1356 17.1429C11.7874 17.1429 13.2003 16.5558 14.3744 15.3817ZM22.4972 21.0804C22.8276 21.4107 22.9927 21.8125 22.9927 22.2857C22.9927 22.7589 22.8253 23.1629 22.4905 23.4978C22.1557 23.8326 21.7517 24 21.2785 24C20.7963 24 20.3945 23.8304 20.0731 23.4911L15.4794 18.9107C13.8811 20.0179 12.0999 20.5714 10.1356 20.5714C8.85882 20.5714 7.63784 20.3237 6.47266 19.8281C5.30748 19.3326 4.30301 18.6629 3.45926 17.8192C2.61551 16.9754 1.94587 15.971 1.45033 14.8058C0.954799 13.6406 0.707031 12.4196 0.707031 11.1429C0.707031 9.86607 0.954799 8.64509 1.45033 7.47991C1.94587 6.31473 2.61551 5.31027 3.45926 4.46652C4.30301 3.62277 5.30748 2.95312 6.47266 2.45759C7.63784 1.96205 8.85882 1.71428 10.1356 1.71428C11.4124 1.71428 12.6334 1.96205 13.7985 2.45759C14.9637 2.95312 15.9682 3.62277 16.8119 4.46652C17.6557 5.31027 18.3253 6.31473 18.8209 7.47991C19.3164 8.64509 19.5642 9.86607 19.5642 11.1429C19.5642 13.1071 19.0106 14.8884 17.9035 16.4866L22.4972 21.0804Z" fill="#D21E44"/>
</g>
<defs>
<clipPath id="clip0_151_779">
<rect width="22.3" height="24" fill="white" transform="matrix(1 0 0 -1 0.700195 24)"/>
</clipPath>
</defs>
</svg>
