<svg width="245" height="33" viewBox="0 0 245 33" fill="none" xmlns="http://www.w3.org/2000/svg">
<path d="M4.202 25.7797L20.78 28.9409L22.068 26.7331L7.332 20.4096L4.202 25.7797ZM11.882 12.6033L24.777 22.092L26.065 19.8832L15.013 7.23225L11.883 12.6033H11.882ZM8.03 19.2158L22.766 25.5413L24.079 23.2848L11.184 13.7971L8.03 19.2158ZM19.227 0L15.747 5.97887L26.8 18.6318L28.438 15.8271L19.227 0ZM0 33H18.42L20.057 30.1953L3.48 27.034L0 33ZM29.231 25.6128L33.541 33H38.441L29.231 17.1868L20.021 33H24.921L29.231 25.6128Z" fill="#FCAF17"/>
<path d="M68.8194 22.4616H75.8394L77.4524 19.6331H68.8204L68.8194 22.4616ZM68.8194 14.6077V17.4362H78.7294L80.3784 14.6077H68.8194ZM217.603 17.9616V9.60706H214.496V22.4616H217.097L224.573 14.0475V22.4616H227.679V9.60706H224.935L217.603 17.9616ZM87.0844 9.60706L79.6444 22.4616H83.3044L88.2044 13.975L93.1404 22.4616H96.9934L89.5534 9.60706H87.0844ZM64.7284 19.6321L57.2884 6.7666H54.7484L47.3074 19.6321H45.4414V26.2327H48.4024V22.4606H63.6324V26.2327H66.5944V19.6321H64.7284ZM51.0154 19.6321L55.9154 11.1346L60.8514 19.6321H51.0154ZM166.266 9.60706H151.807V12.4356H164.604L166.266 9.60706ZM83.2674 9.60706H68.8204V12.4356H81.6184L83.2674 9.60706ZM241.644 9.60706L234.312 17.9616V9.60706H231.206V22.4616H233.818L241.283 14.0475V22.4616H244.389V9.60706H241.644ZM207.862 14.6077H201.06V9.60706H197.953V22.4616H201.06V17.4362H207.862V22.4616H210.968V9.60706H207.862V14.6077ZM170.071 9.60706L162.631 22.4616H166.303L171.203 13.975L176.139 22.4616H179.98L172.539 9.60706H170.071ZM139.37 14.2154H134.651V9.59614H131.545V22.4616H139.346C141.453 22.4616 143.644 21.3046 143.644 18.2725C143.632 14.2869 140.815 14.2154 139.37 14.2154ZM139.19 19.7414H134.639V16.8771H139.19C139.719 16.8771 140.526 17.0201 140.526 18.3092C140.526 19.502 139.864 19.7414 139.19 19.7414ZM148.292 9.60706H145.222V22.4736H148.292V9.60706ZM104.819 9.2962C99.6294 9.2962 97.1744 12.4475 97.1744 15.9683C97.1744 19.644 99.5694 22.6394 104.819 22.6394C107.106 22.6394 112.403 21.5896 112.403 15.9683C112.403 12.2926 110.032 9.2962 104.819 9.2962ZM104.783 19.8109C101.785 19.8109 100.521 18.1046 100.521 16.0041C100.521 13.6999 101.965 12.1605 104.783 12.1605C107.961 12.1605 109.044 13.6999 109.044 16.0041C109.044 18.7611 106.962 19.8109 104.783 19.8109ZM151.807 22.4616H158.826L160.451 19.6331H151.807V22.4616ZM151.807 14.6077V17.4362H161.715L163.376 14.6077H151.807ZM184.35 17.8901V9.60706H181.244V22.4616H183.857L191.333 14.119V22.4616H194.439V9.60706H191.827L184.35 17.8901ZM125.959 14.8828C126.777 14.5362 127.476 13.976 127.476 12.5786C127.476 9.91693 125.224 9.60706 123.635 9.60706H115.244V22.4736H123.78C127.692 22.4736 128.499 20.3373 128.499 18.3797C128.511 16.1719 127.247 15.2641 125.959 14.8828ZM118.314 12.3283H123.286C124.032 12.3283 124.345 12.7107 124.345 13.4506C124.345 14.2144 123.852 14.6077 123.286 14.6077H118.314V12.3283ZM123.78 19.7404H118.314V16.9833H123.78C124.658 16.9833 125.297 17.1978 125.297 18.344C125.297 19.2507 124.911 19.7404 123.78 19.7404Z" fill="#242020"/>
</svg>
