<svg width="218" height="44" viewBox="0 0 218 44" fill="none" xmlns="http://www.w3.org/2000/svg">
<path d="M208 0H10C4.47715 0 0 4.47715 0 10V34C0 39.5229 4.47715 44 10 44H208C213.523 44 218 39.5228 218 34V10C218 4.47715 213.523 0 208 0Z" fill="#007BFB"/>
<path d="M25.3878 18.5701L23.0276 20.9259C22.7139 21.239 22.2134 21.239 21.9072 20.9259L16.7685 15.7968C16.4548 15.4837 16.4548 14.9842 16.7685 14.6785L19.1287 12.3227C19.4424 12.0096 19.9428 12.0096 20.2491 12.3227L25.3878 17.4518C25.694 17.7575 25.694 18.257 25.3878 18.5701ZM26.2766 19.4573L16.8656 28.8432C16.5519 29.1563 16.5519 29.6558 16.8656 29.9615L19.181 32.2726C19.4947 32.5857 19.9951 32.5857 20.3014 32.2726L29.7124 22.8866C30.0261 22.5735 30.0261 22.074 29.7124 21.7683L27.397 19.4573C27.0907 19.1441 26.5828 19.1441 26.2766 19.4573Z" fill="white"/>
<path d="M98.0856 12.8311H104.539L109.737 26.5783L114.898 12.8311H121.12V31.1631H116.982V17.1476L111.59 31.1631H107.34L101.947 17.2221V31.1631H98.0781V12.8311H98.0856Z" fill="white"/>
<path d="M148.144 12.8311H162.381V31.1631H157.974V16.6928H152.17C152.133 19.2723 152.058 22.7165 151.984 24.6474C151.834 29.4559 150.43 31.1631 146.292 31.1631H144.32V27.3014H145.418C147.278 27.3014 147.883 26.4664 148.003 23.8571C148.107 21.054 148.144 15.4851 148.144 12.8311Z" fill="white"/>
<path d="M184.893 12.8311H201.631V16.6928H195.446V31.1631H191.084V16.6928H184.9V12.8311H184.893Z" fill="white"/>
<path d="M86.6945 12.458H85.1185C81.3317 12.458 78.4636 14.7542 77.8063 18.1761L81.8321 18.8172C82.3848 17.192 83.6471 16.0737 85.2455 16.0066C85.7609 15.9843 85.6414 15.9917 86.1567 16.0066C88.5319 16.0886 89.6074 17.2293 89.6074 20.0398C85.1036 20.0398 82.0263 19.8311 79.7632 21.3147C77.9109 22.5298 77.1191 23.8792 77.1191 26.0114C77.1191 29.0978 79.5242 31.5431 83.4081 31.5431C84.0206 31.5431 83.7666 31.5431 83.9459 31.5431C86.687 31.5431 88.9053 30.477 89.8091 29.1873V31.1629H93.8648V20.1144C93.8499 15.8501 91.5643 12.458 86.6945 12.458ZM84.2222 27.9646C82.4969 27.9124 81.5035 26.9209 81.5035 25.661C81.5035 24.6173 81.974 24.1103 82.594 23.745C83.2438 23.3648 84.0953 23.2306 85.4098 23.1859C86.6796 23.1412 87.7028 23.0815 89.6672 23.0815C89.6672 26.2127 87.6954 27.7857 85.2455 27.9497C84.8646 27.987 84.6256 27.9795 84.2222 27.9646Z" fill="white"/>
<path d="M183.867 23.2385V21.5238C183.867 15.6044 180.148 12.5479 175.338 12.5479H174.396C169.22 12.5479 165.919 16.0667 165.747 21.0392C165.725 21.7698 165.725 22.068 165.747 23.067C165.867 28.0097 169.34 31.3422 173.978 31.4614C174.83 31.4838 174.718 31.4838 175.524 31.4614C179.565 31.3496 182.62 29.0236 183.524 25.9819L179.617 25.3035C178.661 27.212 176.839 27.9426 175.382 28.0172C174.919 28.0395 174.86 28.0395 174.396 28.0172C172.111 27.9203 170.072 26.1385 170.072 23.5441V23.2534H183.867V23.2385ZM174.322 15.9996C174.785 15.9772 174.949 15.9772 175.405 15.9996C177.324 16.0965 179.341 17.3415 179.535 19.8091H170.087C170.311 17.6099 172.089 16.1188 174.322 15.9996Z" fill="white"/>
<path d="M143.108 20.3832C143.011 15.9474 139.426 12.5479 134.683 12.5479H132.965C128.23 12.5479 124.645 15.9474 124.54 20.4055C124.518 21.6431 124.518 22.3662 124.54 23.5963C124.637 28.0545 128.222 31.454 132.965 31.454H134.683C139.419 31.454 143.004 28.0545 143.108 23.5963C143.138 22.3662 143.138 21.6207 143.108 20.3832ZM138.784 23.3727C138.731 25.9596 136.842 27.719 134.302 27.8532C133.817 27.8755 133.847 27.8755 133.361 27.8532C130.792 27.7264 128.932 25.967 128.88 23.3727C128.857 22.2917 128.857 21.6803 128.88 20.6068C128.932 18.0423 130.792 16.2829 133.361 16.1561C133.847 16.1338 133.817 16.1338 134.302 16.1561C136.842 16.2829 138.731 18.0423 138.784 20.6366C138.806 21.7102 138.806 22.2991 138.784 23.3727Z" fill="white"/>
<path d="M70.2931 24.6997C69.7852 26.3994 68.4109 27.5624 66.5735 27.8234C66.0432 27.8979 65.5203 27.8755 65.0871 27.8159C62.8016 27.4953 61.1883 25.7807 61.136 23.3727C61.1136 22.2917 61.1136 21.6803 61.136 20.6068C61.1808 18.1839 62.8763 16.4021 65.2066 16.1561C65.3411 16.1412 65.849 16.0965 66.3419 16.1487C68.3063 16.3574 69.7777 17.5353 70.308 19.3171L74.5729 18.497C73.6542 15.0155 70.4947 12.5479 66.454 12.5479H65.229C60.4936 12.5479 56.9085 15.9474 56.8039 20.4055C56.7815 21.6431 56.7815 22.3662 56.8039 23.5963C56.901 28.0545 60.4862 31.454 65.229 31.454H66.454C70.5769 31.454 73.7662 28.8894 74.6102 25.2812L70.2931 24.6997Z" fill="white"/>
</svg>
