<svg width="130" height="33" viewBox="0 0 130 33" fill="none" xmlns="http://www.w3.org/2000/svg">
<g clip-path="url(#clip0_767_882)">
<path fill-rule="evenodd" clip-rule="evenodd" d="M130 1.16194C130 1.16194 127.583 0.87207 124.727 0.87207C121.944 0.87207 119.6 1.16194 119.6 1.16194V10.2204H130V1.16194Z" fill="#E4003E"/>
<path fill-rule="evenodd" clip-rule="evenodd" d="M130 22.54H119.6V31.7434C119.6 31.7434 122.53 32.0332 124.873 32.0332C127.217 32.0332 130 31.6709 130 31.6709V22.54Z" fill="#E4003E"/>
<path fill-rule="evenodd" clip-rule="evenodd" d="M113.374 1.16211H100.557L91.6224 12.2496H87.4478V1.16211H76.3887V31.8158H87.4478V20.2936H91.4759L100.484 31.8158H114.18L100.777 15.5106L113.374 1.16211Z" fill="#242265"/>
<path fill-rule="evenodd" clip-rule="evenodd" d="M34.935 1.16211H0V31.8158H11.2056V9.85822H23.7294V31.8158H34.935V1.16211Z" fill="#242265"/>
<path fill-rule="evenodd" clip-rule="evenodd" d="M40.3544 9.27874L38.7432 1.16238C38.7432 1.16238 49.2163 0.365234 55.7346 0.365234C62.2529 0.365234 70.0895 1.16238 70.0895 1.16238C70.0895 1.16238 72.5064 7.39459 72.5064 16.1632C72.5064 24.9317 70.0162 31.8162 70.0162 31.8162C70.0162 31.8162 62.5459 32.6133 55.6614 32.6133C48.7769 32.6133 38.7432 31.8162 38.7432 31.8162L40.3544 23.6998C40.3544 23.6998 47.3854 24.2071 53.391 24.2071C59.3966 24.2071 61.7402 23.6998 61.7402 23.6998C61.7402 23.6998 62.0332 22.178 62.1797 20.4387H47.8248V12.6123H62.2529C62.1064 10.5832 61.8135 9.35121 61.8135 9.35121C61.8135 9.35121 56.9064 8.84394 52.7318 8.84394C48.484 8.77147 40.3544 9.27874 40.3544 9.27874Z" fill="#242265"/>
</g>
<defs>
<clipPath id="clip0_767_882">
<rect width="130" height="33" fill="white"/>
</clipPath>
</defs>
</svg>
