<svg width="40" height="40" viewBox="0 0 40 40" fill="none" xmlns="http://www.w3.org/2000/svg">
<path d="M13.7811 5.75148C10.5811 6.172 7.39138 7.80276 5.21702 10.1207C2.80676 12.6951 1.51445 15.7207 1.2683 19.3515C1.20676 20.2848 1.21702 20.4284 1.41189 20.8079C1.53497 21.0438 1.62727 21.3207 1.62727 21.4233C1.62727 21.6797 2.00676 22.1617 2.20163 22.1617C2.34522 22.1617 2.34522 22.0079 2.19138 21.0028C2.1401 20.7258 2.28368 20.613 2.37599 20.8489C2.41702 20.931 2.43753 20.9207 2.43753 20.8182C2.44779 20.7258 2.37599 20.4797 2.29394 20.2848C2.11958 19.854 2.10933 19.8028 2.22215 19.8028C2.26317 19.8028 2.51958 20.2335 2.78625 20.7669C3.21702 21.6182 3.32984 21.7617 3.70933 21.9464C4.26317 22.2028 4.81702 22.3053 5.25804 22.2233C5.55548 22.1617 5.61702 22.1105 5.67856 21.7925C5.70933 21.5976 5.77086 21.3617 5.80163 21.2797C5.89394 21.0233 5.61702 21.1258 5.29907 21.4643C5.04266 21.7412 4.96061 21.772 4.72471 21.6899C4.29394 21.5361 4.1401 21.1156 4.28368 20.4489C4.42727 19.8335 4.64266 19.6489 5.15548 19.731C5.36061 19.7617 5.53497 19.7207 5.65804 19.6182C5.89394 19.4028 6.11958 19.5361 6.39651 20.0387C6.59138 20.4079 6.82727 20.5823 6.94009 20.4694C7.00163 20.4182 6.95035 20.254 6.7042 19.6797C6.65292 19.5464 6.77599 19.3515 7.15548 18.9515C7.44266 18.6438 7.67856 18.3566 7.67856 18.3156C7.67856 18.1515 8.20163 17.5464 8.34522 17.5464C8.42727 17.5464 8.55035 17.4233 8.62215 17.2694C8.73497 17.0335 8.84779 16.972 9.24779 16.9105C9.52471 16.8797 9.86317 16.7669 10.0068 16.6746L10.2632 16.5002L9.89394 16.1207C9.44266 15.6592 9.4324 15.5566 9.84266 15.6387C10.017 15.6694 10.2529 15.6489 10.3657 15.5874C10.6427 15.4438 10.6837 15.5156 10.5298 15.854C10.4273 16.0899 10.4273 16.1515 10.5811 16.2643C10.7965 16.4181 11.2683 16.3464 11.3401 16.131C11.3811 16.0489 11.3196 15.9156 11.2068 15.8335C11.0632 15.731 10.9914 15.5053 10.9504 15.0028C10.8375 13.8438 10.7247 13.1361 10.6734 13.1361C10.6427 13.1361 10.4786 13.2592 10.3247 13.413C10.0478 13.6797 10.0375 13.6797 10.0375 13.4643C10.0375 13.3515 10.0888 13.2182 10.1401 13.1874C10.3042 13.0848 10.2632 12.9925 9.9042 12.7464C9.44266 12.4387 9.34009 12.4592 9.21702 12.9207C9.16574 13.1361 9.04266 13.372 8.96061 13.4438C8.83753 13.5464 8.82727 13.6079 8.92984 13.7207C9.0324 13.8438 8.98112 13.9361 8.68368 14.1925C8.47856 14.3771 8.28368 14.613 8.25292 14.7156C8.19138 14.8797 8.16061 14.8592 7.98625 14.5412C7.87343 14.3258 7.68881 13.9874 7.57599 13.7823C7.15548 13.013 7.41189 12.3874 8.33497 11.9053C8.96061 11.5874 8.98112 11.5976 8.75548 12.131C8.7042 12.2643 8.73497 12.3156 8.8683 12.3156C9.20676 12.3156 9.35035 12.1515 9.27856 11.8643C9.21702 11.6284 9.24779 11.5976 9.47343 11.5976C9.61702 11.5976 9.72984 11.5464 9.72984 11.4848C9.72984 11.4233 9.8324 11.1464 9.94522 10.8694C10.1196 10.4694 10.2119 10.3669 10.376 10.3874C10.7247 10.4387 10.7862 10.9105 10.4991 11.331C10.1298 11.8746 10.0991 12.0694 10.3452 12.4181C10.4683 12.5925 10.6221 12.7258 10.6939 12.7258C10.9196 12.7258 11.1042 12.4181 11.0837 12.0899C11.0632 11.8951 11.0939 11.813 11.1657 11.854C11.2273 11.8951 11.3709 11.8438 11.4734 11.7515C11.6273 11.6079 11.6478 11.5258 11.5555 11.2694C11.4734 11.054 11.4837 10.931 11.5657 10.8489C11.7401 10.6746 11.6991 10.3156 11.4734 10.1105C11.3093 9.96687 11.2786 9.84379 11.3298 9.57712C11.3914 9.25918 11.3709 9.22841 11.0119 9.07456C10.6324 8.92071 10.6221 8.92071 10.2529 9.21815C9.93497 9.47456 9.88368 9.57712 9.88368 9.9361C9.88368 10.2643 9.82215 10.4284 9.60676 10.6438L9.31958 10.931V10.5925C9.31958 10.1515 9.75035 9.32071 10.0991 9.08482C10.3145 8.95148 10.3452 8.88995 10.2324 8.81815C9.93497 8.63353 9.65804 8.72584 9.34009 9.12584C9.15548 9.35148 9.01189 9.59764 9.01189 9.66943C9.01189 9.85405 8.17086 10.6746 7.97599 10.6746C7.88368 10.6746 7.75035 10.6028 7.67856 10.5207C7.57599 10.3976 7.61702 10.3361 7.91445 10.1617C8.34522 9.90533 9.14522 8.72584 9.05292 8.48994C9.01189 8.37712 9.08368 8.28482 9.28881 8.18225C9.89394 7.87456 9.9965 7.87456 10.1401 8.21302C10.3042 8.60277 10.3965 8.60277 10.5401 8.19251C10.6427 7.91559 10.6324 7.83353 10.4991 7.74123C10.3657 7.63866 10.376 7.61815 10.5709 7.55661C10.858 7.48482 11.576 7.47456 11.576 7.54636C11.576 7.57712 11.5042 7.71046 11.4221 7.84379C11.2375 8.13097 11.3093 8.38738 11.6068 8.47969C11.8221 8.55148 11.9145 8.46943 12.4683 7.772C12.7042 7.4643 13.8324 6.82841 13.8324 7.00277C13.8324 7.23866 13.6068 7.49507 13.3914 7.49507C13.0837 7.49507 12.9709 7.58738 12.7657 7.97712C12.5298 8.43866 12.5504 8.54123 12.9606 8.96174C13.3606 9.372 13.3914 9.52584 13.1555 9.97712C13.0632 10.1617 13.0119 10.4284 13.0427 10.613C13.0734 10.8387 13.0324 10.9925 12.8786 11.1669C12.458 11.6181 12.5401 13.2182 12.9811 13.3925C13.0734 13.4233 13.1555 13.4335 13.1555 13.4233C13.8632 12.2233 13.8939 12.1925 14.4478 11.9053C14.7555 11.7515 15.1452 11.5976 15.3093 11.5566C15.6683 11.4643 16.335 10.8284 16.2632 10.6438C16.2324 10.5823 16.1811 10.4489 16.1401 10.3566C16.1093 10.254 16.1709 10.0694 16.3247 9.89507C16.458 9.72071 16.6427 9.25918 16.7452 8.77712C16.8888 8.16174 17.0324 7.84379 17.2991 7.51559L17.658 7.08482L17.3298 6.972C16.8478 6.79764 17.0529 6.64379 17.6683 6.71559C19.0837 6.91046 20.8375 7.50533 22.2119 8.29507L23.0529 8.77712L23.1145 9.34123C23.1555 9.64892 23.1862 9.97712 23.1965 10.0592C23.217 10.1617 23.4016 10.2438 23.7709 10.2951L24.3247 10.3874L23.617 10.8387C22.8786 11.3105 22.6427 11.372 22.458 11.1566C22.3965 11.0746 22.1606 10.9515 21.9247 10.8797C21.6888 10.7976 21.4837 10.6746 21.4529 10.6028C21.3811 10.4284 20.8683 10.4284 20.5196 10.613C20.0786 10.8387 19.9042 11.0951 19.6786 11.8438C19.5042 12.3874 19.3914 12.572 19.1555 12.7053C18.9196 12.8489 18.858 12.9515 18.858 13.2387C18.858 13.7105 18.9811 13.8951 19.2478 13.813C19.4221 13.7515 19.4939 13.813 19.6273 14.0489C19.8427 14.4797 20.0478 14.4489 20.2939 13.9669C20.458 13.6387 20.4786 13.4951 20.3965 13.2899C20.2734 12.9515 20.4375 12.2951 20.7247 12.0489C20.9401 11.8438 20.9503 11.8951 20.7965 12.4284C20.6632 12.8694 20.7862 13.1361 21.1247 13.1361C21.4221 13.1361 21.4427 13.3105 21.1657 13.5874C21.0221 13.731 20.9093 13.9566 20.9093 14.0899C20.9093 14.4387 20.7555 14.531 19.9452 14.6643C19.4221 14.7361 19.1657 14.8387 18.9606 15.0335C18.6734 15.3105 18.4478 15.372 18.4478 15.1566C18.4478 15.0951 18.3555 14.9207 18.2427 14.7771C18.1298 14.6335 18.0375 14.4181 18.0375 14.3053C18.0375 13.9976 17.7504 13.7617 17.617 13.9669C17.4837 14.1823 17.5042 14.3771 17.6888 14.5925C17.8119 14.7156 17.8324 14.8079 17.7606 14.9002C17.6478 15.0438 17.5042 15.8028 17.5862 15.8028C17.617 15.8028 17.7401 15.7412 17.8632 15.6592C17.9862 15.5771 18.1914 15.4848 18.3247 15.4438C18.7247 15.3207 18.5811 15.6592 18.1401 15.854C17.6888 16.0592 17.658 16.131 17.8837 16.5207C18.0888 16.8797 18.0786 16.931 17.7401 16.931C17.535 16.931 17.3709 17.0233 17.2273 17.1976C17.0221 17.4643 16.9401 17.7515 17.0837 17.7515C17.2068 17.7515 20.8478 15.8335 21.6273 15.3617C22.335 14.931 22.417 14.8489 22.5196 14.4387C22.6939 13.813 23.0632 13.413 23.8016 13.0438C24.6324 12.6233 25.1862 12.6233 25.9862 13.0233L26.5811 13.3207L26.9503 13.0951C27.1555 12.9617 27.4427 12.7771 27.6068 12.6848L27.8837 12.5105L27.5657 12.0284C25.2991 8.68482 21.6786 6.40789 17.6786 5.80276C16.6016 5.63866 14.817 5.61815 13.7811 5.75148Z" fill="#D21E44"/>
<path d="M25.8628 7.09527C25.668 7.21835 25.5244 7.3927 25.5244 7.51578C25.5244 7.63886 26.4475 8.69527 27.9141 10.2337C29.2167 11.6081 30.3039 12.7773 30.3244 12.8286C30.3449 12.8696 29.668 13.3004 28.8372 13.7824C28.0064 14.2645 27.1654 14.7773 26.9808 14.9107L26.6423 15.1671L25.8218 14.7055C24.9295 14.203 24.7244 14.1824 24.2321 14.603C23.8936 14.8901 23.9039 14.9107 24.8885 16.1517C25.4628 16.8594 25.6987 17.2799 26.0475 18.1414C26.2834 18.7466 26.5398 19.3004 26.6116 19.3824C26.7859 19.5671 27.2167 19.4542 27.5346 19.1363C27.7603 18.9107 27.7808 18.8081 27.7808 17.9671V17.0337L28.1603 16.8799C28.3757 16.7876 29.1757 16.3466 29.9346 15.9055C31.5141 14.9824 31.6782 14.9107 31.6782 15.0953C31.6782 15.1671 32.1295 16.6953 32.6731 18.4901C33.4218 20.9414 33.709 21.7619 33.8526 21.803C34.0577 21.8748 34.5192 21.6491 34.7859 21.3619C34.9705 21.1568 34.9705 21.0235 34.8167 17.2696C34.7244 15.1363 34.6526 13.3414 34.6526 13.2696C34.6526 13.2081 35.3603 12.7466 36.2218 12.2542C38.2423 11.0953 38.8167 10.7055 39.35 10.1209C40.0064 9.40296 40.1295 8.97219 39.7808 8.62347C39.5039 8.34655 38.7346 8.34655 37.9551 8.62347C37.6372 8.73629 36.5192 9.32091 35.4731 9.92604C34.4269 10.5209 33.5244 11.0132 33.4628 11.0132C33.4013 11.0132 31.8628 10.0901 30.0475 8.95168C27.8731 7.58758 26.6423 6.87988 26.468 6.87988C26.3141 6.87988 26.0372 6.98245 25.8628 7.09527Z" fill="#D21E44"/>
<path d="M22.0887 16.8905C18.2425 19.1981 10.263 22.593 6.34507 23.5776C5.4425 23.8033 5.03225 23.8443 3.83225 23.8546C2.28353 23.8546 1.82199 23.7622 1.15532 23.3315C0.693784 23.034 0.19122 22.3469 0.19122 22.0084C0.180964 21.8135 0.180964 21.8135 0.0681431 21.9981C-0.0857031 22.2648 0.0373738 23.393 0.273271 23.9366C0.509169 24.4597 1.17584 25.0853 1.77071 25.3417C3.64763 26.1417 6.84763 25.8546 11.7092 24.4597C15.7502 23.3007 22.0271 20.9315 24.5194 19.6392L24.8887 19.4443L24.5605 18.6238C24.3451 18.1007 24.0066 17.5263 23.6271 17.0546C23.3092 16.6546 23.0322 16.3161 23.022 16.3263C23.022 16.3263 22.6015 16.5828 22.0887 16.8905Z" fill="#D21E44"/>
<path d="M29.504 17.9672C29.3706 18.039 29.3194 18.2031 29.3194 18.5006C29.3194 19.1262 29.145 19.6595 28.8168 20.039L28.5194 20.3672L28.7655 20.6749C29.0629 21.0544 29.0732 21.28 28.8065 22.5723C28.2835 25.1364 27.1347 27.3826 25.4219 29.1775C23.5142 31.1877 21.3809 32.4288 18.7245 33.0954C17.2988 33.4544 14.9296 33.5467 13.5245 33.3006C12.2219 33.0749 12.2117 33.0749 12.1296 32.6954C12.0988 32.5211 11.9963 32.3262 11.9142 32.2647C11.7912 32.1723 11.7912 32.0698 11.9347 31.5467C12.0168 31.2185 12.0886 30.7775 12.0886 30.5826C12.0886 30.3877 12.1501 30.1518 12.2219 30.0698C12.304 29.9775 12.4168 29.6493 12.4886 29.3416C12.5706 28.9313 12.7142 28.6749 12.9706 28.4082C13.3091 28.0595 13.3501 27.957 13.4732 27.0236C13.5553 26.4595 13.6476 25.9057 13.6886 25.7723C13.7296 25.639 13.7091 25.5467 13.6373 25.5467C13.5758 25.5467 12.8168 25.7518 11.9553 25.998C11.104 26.2441 9.93474 26.5518 9.37064 26.6749L8.345 26.9108L8.64243 27.1262C8.80654 27.2493 9.02192 27.4134 9.13474 27.4954C9.32961 27.6595 10.1194 29.7518 10.2117 30.3672C10.2424 30.5621 10.3347 30.8185 10.4065 30.9313C10.4886 31.0441 10.5501 31.2082 10.5501 31.3006C10.5501 31.3929 10.6424 31.5467 10.7553 31.6493C10.8681 31.7518 10.9604 31.9057 10.9604 31.998C10.9604 32.0903 11.0322 32.2749 11.1245 32.398C11.2168 32.5313 11.2681 32.6647 11.2373 32.6954C11.1245 32.798 9.20654 31.8749 8.32448 31.2903C6.92961 30.3672 5.59628 29.1159 4.71423 27.8749C4.51936 27.6082 4.28346 27.3929 4.20141 27.3929C4.1091 27.3929 3.85269 27.3621 3.6373 27.3211L3.2373 27.2595L3.49371 27.6903C3.6373 27.9262 4.04756 28.4903 4.39628 28.9416C8.48859 34.1313 15.7399 35.8339 21.6783 32.9929C23.6783 32.039 25.2373 30.8595 26.5296 29.3211C28.1194 27.4236 29.0835 25.4954 29.6476 23.0852C29.9553 21.7313 30.0373 17.8441 29.7501 17.8544C29.7091 17.8544 29.5963 17.9057 29.504 17.9672Z" fill="#D21E44"/>
<path d="M25.094 21.0953C24.5299 21.3825 24.4274 21.4748 24.4684 21.6491C24.5299 21.885 24.3761 21.9261 24.2017 21.7107C24.0992 21.5876 23.9043 21.6491 22.9812 22.0594C22.3761 22.3261 21.3197 22.7671 20.6222 23.044C19.6274 23.4338 19.4017 23.5568 19.5658 23.6184C19.7402 23.6799 19.7812 23.7825 19.7812 24.1312C19.7812 24.3876 19.894 24.8081 20.0479 25.1363C20.2838 25.6389 20.3043 25.7825 20.2427 26.4184C20.1812 27.0748 20.212 27.2389 20.5915 28.3671C21.0633 29.7722 21.1761 29.8543 21.9453 29.4235C22.3453 29.1979 23.2684 27.9979 23.2684 27.6902C23.2684 27.6184 23.453 27.2799 23.6786 26.9312C24.0376 26.3876 24.0889 26.2235 24.0786 25.7927C24.0581 25.1876 24.171 24.9312 25.1248 23.5568C25.9556 22.3568 25.9966 22.2132 25.453 22.3158C24.4581 22.5209 24.3453 22.2645 25.2479 21.9056C25.9043 21.6389 26.5504 21.2594 26.5504 21.1568C26.5504 21.1158 26.3761 21.0132 26.1607 20.9209C25.771 20.7568 25.7607 20.7568 25.094 21.0953Z" fill="#D21E44"/>
</svg>
