<svg width="20" height="20" viewBox="0 0 20 20" fill="none" xmlns="http://www.w3.org/2000/svg">
<g clip-path="url(#clip0_206_192)">
<path d="M8.80859 0.046875C7.00781 0.25 5.15234 1.03516 3.69141 2.20703C3.22656 2.58203 2.35547 3.48047 2.00391 3.94922C1.18359 5.04297 0.59375 6.28516 0.273438 7.58594C0.0507812 8.49609 0.0195312 8.78906 0.0195312 10C0.0195312 11.2109 0.0507812 11.5039 0.273438 12.4141C0.605469 13.7656 1.27734 15.1367 2.13672 16.2227C2.48047 16.6562 3.25781 17.4375 3.71094 17.7969C4.9375 18.7852 6.29688 19.4414 7.8125 19.7812C8.51172 19.9336 9.15234 20 10 20C11.2188 20 12.0977 19.8594 13.2188 19.4883C14.6797 19.0039 15.9141 18.2305 17.0742 17.0742C18.2305 15.9141 18.9922 14.6992 19.4883 13.2227C19.8594 12.1094 20 11.2227 20 10C20 8.77734 19.8594 7.89844 19.4883 6.77734C19.1523 5.76562 18.543 4.63672 17.8633 3.77734C17.5781 3.41406 16.5859 2.42188 16.2227 2.13672C14.8008 1.01562 13.0391 0.28125 11.25 0.0585938C10.7148 -0.0078125 9.33984 -0.015625 8.80859 0.046875ZM10.6445 1.22656C11.9258 1.28516 13.375 1.75 14.5898 2.48828C14.957 2.71484 15.6133 3.19141 15.7031 3.30078C15.75 3.35547 15.5938 3.52734 14.375 4.74609L12.9961 6.125L12.7617 5.82422C12.1328 5.02734 11.1016 4.11328 10.2852 3.63281L10 3.46875L9.71875 3.63281C8.53125 4.33203 7.30078 5.57422 6.53125 6.84375C6.32812 7.17969 5.98828 7.87891 5.88672 8.17578C5.86328 8.23828 5.84766 8.23828 5.66797 8.14453C5.5625 8.09375 5.375 8.00391 5.25391 7.95312L5.03516 7.85547L4.9375 8.07812C4.60547 8.8125 4.41797 9.41406 4.33984 10.0117C4.17578 11.207 4.45312 12.5781 5.05859 13.582L5.23828 13.8828L4.30859 14.8125C3.79688 15.3242 3.36719 15.7422 3.35156 15.7422C3.30859 15.7422 2.93359 15.2578 2.66016 14.8555C2.02344 13.9102 1.57812 12.8047 1.33984 11.6016C1.24219 11.1094 1.23438 11.0078 1.23438 10C1.23438 8.98828 1.24219 8.89453 1.33984 8.38672C2.05469 4.75391 4.875 1.96484 8.47656 1.32812C8.93359 1.24609 9.83203 1.17578 10.0977 1.19922C10.1641 1.20312 10.4102 1.21484 10.6445 1.22656ZM16.8945 4.53125C17.7812 5.64062 18.3828 6.96094 18.6602 8.39844C18.7969 9.10938 18.832 10.4023 18.7305 11.1133C18.5117 12.6914 17.957 14.0586 17.0195 15.3086C16.6602 15.7891 15.7891 16.6602 15.3086 17.0195C14.043 17.9648 12.5703 18.5586 11 18.75C10.5664 18.8047 9.41797 18.8047 9.00391 18.75C7.55078 18.5664 6.27734 18.0977 5.13672 17.332C4.74219 17.0664 4.25781 16.6914 4.25781 16.6484C4.25781 16.6328 4.65625 16.2227 5.14062 15.7383L6.02734 14.8516L6.36328 15.125C7.43359 15.9922 8.63281 16.418 10 16.418C10.6953 16.418 11.1914 16.3398 11.8086 16.1328C13.7383 15.4883 15.1523 13.9023 15.5898 11.8945C15.6914 11.4375 15.7305 10.5234 15.668 10.0625C15.5781 9.40625 15.4062 8.83203 15.0625 8.07812L14.9609 7.85156L14.582 8.03125C14.3711 8.12891 14.1875 8.21094 14.1719 8.21484C14.1562 8.21875 14.0586 8.02734 13.9531 7.79297C13.8516 7.55469 13.7461 7.32812 13.7227 7.28516C13.6797 7.21484 13.8125 7.07031 15.1484 5.73047C15.957 4.92188 16.6328 4.25781 16.6484 4.25781C16.6641 4.25781 16.7734 4.38281 16.8945 4.53125ZM10.3164 5.14453C11.4492 6.01172 12.3672 7.16797 12.8711 8.35938C12.9688 8.58984 13.1094 9.01562 13.1875 9.30078C13.2617 9.58984 13.3359 9.85547 13.3516 9.89453C13.3789 9.95703 13.4297 9.94141 13.8516 9.73047L14.3242 9.5L14.3984 9.81641C14.5078 10.293 14.5 11.2617 14.3828 11.7305C14.2227 12.3711 13.9531 12.9414 13.5703 13.4414C13.3984 13.6641 12.9414 14.1289 12.7812 14.2422C12.6953 14.3008 12.6914 14.3008 12.7227 14.1914C12.7383 14.1328 12.7539 13.8789 12.7539 13.6328C12.75 13.1211 12.668 12.7695 12.4414 12.2734C12.0625 11.457 11.2422 10.5352 10.3438 9.91797L10 9.68359L9.66016 9.91797C8.75 10.543 7.9375 11.4531 7.55859 12.2734C7.33203 12.7695 7.25 13.1211 7.24609 13.6328C7.24609 13.8789 7.26172 14.1328 7.27734 14.1914C7.30859 14.3008 7.30469 14.3008 7.21875 14.2422C7.05859 14.1289 6.60156 13.6641 6.42969 13.4414C6.04688 12.9414 5.77734 12.3711 5.61719 11.7305C5.5 11.2617 5.49219 10.293 5.60156 9.81641L5.67578 9.5L6.14844 9.73047C6.57031 9.94141 6.62109 9.95703 6.64844 9.89453C6.66406 9.85547 6.73828 9.58984 6.8125 9.30078C7.24219 7.69531 8.23438 6.25391 9.68359 5.14453C9.83984 5.01953 9.98438 4.92188 10 4.92188C10.0156 4.92188 10.1602 5.01953 10.3164 5.14453ZM10.4727 11.6289C11.0625 12.2344 11.3594 12.7031 11.5039 13.2617C11.5781 13.5547 11.5781 13.75 11.5039 14.0391C11.3047 14.8086 10.5117 15.332 9.75781 15.1953C9.30859 15.1133 8.87891 14.8125 8.64062 14.4102C8.53906 14.2383 8.4375 13.8633 8.4375 13.6523C8.4375 13.2461 8.68359 12.6562 9.05078 12.168C9.32031 11.8125 9.92188 11.2109 10.0078 11.2109C10.0391 11.2109 10.25 11.3984 10.4727 11.6289Z" fill="#D21E44"/>
</g>
<defs>
<clipPath id="clip0_206_192">
<rect width="20" height="20" fill="white"/>
</clipPath>
</defs>
</svg>
