<svg width="20" height="20" viewBox="0 0 20 20" fill="none" xmlns="http://www.w3.org/2000/svg">
<path d="M9.66797 0.0664062C9.60547 0.101562 9.44532 0.226562 9.31641 0.347656C7.58204 1.95703 5.51954 2.76172 2.85157 2.87109C2.10938 2.90234 2.05469 2.91406 1.89063 3.05469C1.61329 3.30078 1.625 3.21875 1.60157 5.23438C1.56641 8.10938 1.625 9.39062 1.85938 10.8594C2.3711 14.0625 3.79688 16.4844 6.17188 18.1719C6.98438 18.75 8.00391 19.2969 9.08204 19.7305C9.65625 19.9609 9.73047 19.9805 10 19.9805C10.2656 19.9805 10.3438 19.9609 10.8594 19.75C11.5391 19.4766 12.2578 19.1367 12.7461 18.8633C15.7969 17.1289 17.5547 14.5195 18.1406 10.8555C18.375 9.39062 18.4336 8.10547 18.3984 5.23438C18.375 3.21875 18.3867 3.30078 18.1094 3.05469C17.9453 2.91406 17.8906 2.90234 17.1484 2.87109C14.4883 2.76562 12.4102 1.95312 10.6992 0.363281C10.5625 0.234375 10.3945 0.0976562 10.3242 0.0625C10.1641 -0.015625 9.82032 -0.015625 9.66797 0.0664062ZM10.3789 1.99609C12.0586 3.34375 14.1719 4.12891 16.5273 4.27734L16.9414 4.30469L16.9688 5.875C17.0156 8.64062 16.8867 10.2148 16.4844 11.8086C15.8867 14.1953 14.582 15.9922 12.4922 17.3281C12.0352 17.6211 10.8516 18.2109 10.3438 18.4023L10 18.5273L9.66016 18.4023C9.0625 18.1797 7.85547 17.5625 7.30469 17.1953C5.33594 15.8828 4.09766 14.125 3.51563 11.8086C3.11329 10.2148 2.98438 8.64062 3.03125 5.875L3.0586 4.30469L3.47266 4.27734C4.82422 4.19141 6.30079 3.84375 7.39844 3.35156C8.15625 3.01172 9.13282 2.40625 9.6875 1.9375C9.82813 1.82031 9.96094 1.72266 9.98829 1.72266C10.0156 1.71875 10.1914 1.84375 10.3789 1.99609Z" fill="#D21E44"/>
<path d="M12.6172 7.40653C12.5313 7.44168 11.8399 8.10574 10.7539 9.19168L9.02345 10.9182L8.23439 10.1292C7.37111 9.27371 7.35548 9.26199 6.96486 9.30887C6.55861 9.35184 6.29298 9.77371 6.40626 10.1995C6.44533 10.3479 6.58595 10.5081 7.51173 11.4417C8.19923 12.1331 8.62892 12.5354 8.73048 12.5823C8.92189 12.6722 9.13673 12.6761 9.32814 12.5979C9.42579 12.555 10.0977 11.9104 11.457 10.555C13.6328 8.38309 13.668 8.34012 13.6172 7.98074C13.5508 7.50028 13.0547 7.21903 12.6172 7.40653Z" fill="#D21E44"/>
</svg>
