<svg width="19" height="22" viewBox="0 0 19 22" fill="none" xmlns="http://www.w3.org/2000/svg">
<path d="M7.35619 1.86426C7.13483 1.86426 6.94933 1.78934 6.79967 1.63952C6.64985 1.48969 6.57494 1.3041 6.57494 1.08275C6.57494 0.861219 6.64985 0.675716 6.79967 0.526237C6.94933 0.376584 7.13483 0.301758 7.35619 0.301758H11.6432C11.8645 0.301758 12.05 0.376671 12.1997 0.526498C12.3495 0.676324 12.4244 0.861914 12.4244 1.08327C12.4244 1.3048 12.3495 1.4903 12.1997 1.63978C12.05 1.78943 11.8645 1.86426 11.6432 1.86426H7.35619ZM9.49994 13.3827C9.72146 13.3827 9.90697 13.3078 10.0564 13.158C10.2061 13.0084 10.2809 12.8229 10.2809 12.6015V8.31452C10.2809 8.09316 10.206 7.90766 10.0562 7.75801C9.90636 7.60818 9.72077 7.53327 9.49941 7.53327C9.27789 7.53327 9.09238 7.60818 8.9429 7.75801C8.79325 7.90766 8.71842 8.09316 8.71842 8.31452V12.6015C8.71842 12.8229 8.79334 13.0084 8.94316 13.158C9.09299 13.3078 9.27858 13.3827 9.49994 13.3827ZM9.49967 21.3955C8.28492 21.3955 7.13987 21.1631 6.06452 20.6984C4.98917 20.2336 4.04959 19.5992 3.24577 18.7952C2.44178 17.9914 1.8074 17.0518 1.34264 15.9765C0.877886 14.9012 0.645508 13.7561 0.645508 12.5413C0.645508 11.3266 0.877886 10.1815 1.34264 9.10618C1.8074 8.03084 2.44178 7.09125 3.24577 6.28743C4.04959 5.48344 4.98917 4.84907 6.06452 4.38431C7.13987 3.91955 8.28492 3.68717 9.49967 3.68717C10.5427 3.68717 11.5473 3.86417 12.5135 4.21816C13.4796 4.57198 14.3768 5.07875 15.2049 5.73848L15.9541 4.98926C16.0982 4.84499 16.2794 4.7712 16.4979 4.7679C16.7163 4.76461 16.9009 4.83839 17.0518 4.98926C17.2026 5.14013 17.2781 5.32311 17.2781 5.53822C17.2781 5.75315 17.2026 5.93605 17.0518 6.08691L16.3025 6.83613C16.9623 7.66426 17.469 8.56139 17.8229 9.52754C18.1768 10.4937 18.3538 11.4983 18.3538 12.5413C18.3538 13.7561 18.1215 14.9012 17.6567 15.9765C17.1919 17.0518 16.5576 17.9914 15.7536 18.7952C14.9498 19.5992 14.0102 20.2336 12.9348 20.6984C11.8595 21.1631 10.7144 21.3955 9.49967 21.3955ZM9.49967 19.833C11.5136 19.833 13.2323 19.1212 14.6559 17.6976C16.0795 16.274 16.7913 14.5552 16.7913 12.5413C16.7913 10.5275 16.0795 8.8087 14.6559 7.38509C13.2323 5.96148 11.5136 5.24967 9.49967 5.24967C7.48579 5.24967 5.76704 5.96148 4.34342 7.38509C2.91981 8.8087 2.20801 10.5275 2.20801 12.5413C2.20801 14.5552 2.91981 16.274 4.34342 17.6976C5.76704 19.1212 7.48579 19.833 9.49967 19.833Z" fill="white"/>
</svg>
