<svg width="20" height="20" viewBox="0 0 20 20" fill="none" xmlns="http://www.w3.org/2000/svg">
<g clip-path="url(#clip0_206_198)">
<path d="M7.95937 0.0735626C7.00677 0.279074 6.25496 1.0404 6.05417 1.99789C6.0028 2.24077 5.98412 2.73586 5.98412 4.14642V5.982H4.15363C2.73873 5.982 2.24375 6.00069 2.00093 6.05206C1.03432 6.25758 0.282512 7.00956 0.0770488 7.97639C-0.0256829 8.44814 -0.0256829 17.528 0.0770488 17.9997C0.282512 18.9712 1.03432 19.7185 2.01027 19.9287C2.47257 20.0268 11.5597 20.0221 12.0219 19.9241C12.9886 19.7185 13.7404 18.9666 13.9458 17.9997C13.9972 17.7569 14.0159 17.2618 14.0159 15.8465V14.0156H15.851C17.2613 14.0156 17.7562 13.9969 17.9991 13.9456C18.9657 13.74 19.7175 12.9881 19.923 12.0212C20.0257 11.5495 20.0257 2.46963 19.923 1.99789C19.7175 1.03106 18.9657 0.279074 17.9991 0.0735626C17.5414 -0.0245228 8.40299 -0.0245228 7.95937 0.0735626ZM17.901 1.11513C18.3446 1.26459 18.7509 1.68028 18.8816 2.11933C18.9703 2.40424 18.9703 11.6149 18.8816 11.8998C18.7509 12.3295 18.3306 12.7592 17.901 12.8993C17.7796 12.9414 17.0418 12.9647 15.4775 12.9834L13.2267 13.0114L13.1193 13.1188L13.0119 13.2263L12.9839 15.4775C12.9652 17.0422 12.9419 17.7802 12.9045 17.9016C12.7597 18.3313 12.3301 18.7517 11.9005 18.8825C11.6157 18.9712 2.40719 18.9712 2.12234 18.8825C1.66939 18.747 1.25379 18.3313 1.11837 17.8783C1.02965 17.5934 1.02965 8.38275 1.11837 8.09783C1.24912 7.65879 1.66005 7.23842 2.099 7.09363C2.22041 7.05627 2.96288 7.03291 4.5272 7.01423L6.7873 6.98621L6.89937 6.85543L7.01144 6.72465V4.68355C7.01144 2.57706 7.03946 2.18472 7.19823 1.86711C7.41303 1.45142 7.80995 1.16184 8.27691 1.08243C8.68317 1.01237 17.6909 1.04507 17.901 1.11513Z" fill="#D21E44"/>
<path d="M8.23955 6.07095C8.16017 6.12233 8.06677 6.2064 8.04343 6.25778C7.93136 6.46796 8.02942 6.8603 8.22087 6.96306C8.27224 6.98641 8.62246 7.00977 9.01938 7.00977H9.72916L9.86458 6.87432C9.97665 6.75755 10 6.69683 10 6.51C10 6.31383 9.97665 6.25778 9.85524 6.14101C9.71515 6.00556 9.71515 6.00556 9.05206 5.99155C8.45902 5.98221 8.37497 5.98688 8.23955 6.07095Z" fill="#D21E44"/>
<path d="M11.2281 6.07585C11.1487 6.12256 11.0554 6.20663 11.032 6.25801C10.9199 6.46352 11.018 6.86053 11.2048 6.95862C11.2468 6.98197 11.4383 7.02401 11.6297 7.05203C12.3955 7.17347 12.8251 7.60318 12.9466 8.37384C13.0073 8.78486 13.0446 8.85492 13.2221 8.94834C13.5069 9.0978 13.8058 9.00906 13.9459 8.73816C14.0346 8.57001 14.0346 8.38318 13.9459 7.97683C13.7404 7.01 12.9886 6.25801 12.022 6.0525C11.5924 5.95909 11.4056 5.96376 11.2281 6.07585Z" fill="#D21E44"/>
<path d="M6.20824 8.08403C6.00745 8.23817 5.97476 8.3923 5.99344 9.07889C6.00745 9.70944 6.00745 9.71411 6.14287 9.85423C6.25961 9.97567 6.31564 9.99902 6.51177 9.99902C6.69855 9.99902 6.75926 9.97567 6.876 9.86357L7.01142 9.72812V9.01818C7.01142 8.62117 6.98807 8.27086 6.96472 8.21948C6.84331 7.99996 6.41371 7.92056 6.20824 8.08403Z" fill="#D21E44"/>
<path d="M13.1239 10.1345L12.9885 10.27V10.9799C12.9885 11.3769 13.0119 11.7272 13.0352 11.7786C13.1566 11.9981 13.5862 12.0775 13.7917 11.914C13.9925 11.7599 14.0252 11.6058 14.0065 10.9192C13.9925 10.2886 13.9925 10.284 13.8571 10.1438C13.7403 10.0224 13.6843 9.99906 13.4882 9.99906C13.3014 9.99906 13.2407 10.0224 13.1239 10.1345Z" fill="#D21E44"/>
<path d="M6.22694 11.054C5.98412 11.2221 5.93743 11.479 6.05417 12.0208C6.25963 12.9877 7.01144 13.7397 7.97805 13.9452C8.38431 14.0339 8.57109 14.0339 8.7392 13.9452C9.01004 13.805 9.09876 13.5061 8.94933 13.2212C8.85594 13.0437 8.7859 13.0063 8.37497 12.9456C7.60448 12.8242 7.17488 12.3945 7.05347 11.6285C7.02545 11.437 6.98342 11.2455 6.96007 11.2035C6.85267 11.0026 6.42774 10.9139 6.22694 11.054Z" fill="#D21E44"/>
<path d="M10.1354 13.1234C10.0233 13.2402 10 13.3009 10 13.4877C10 13.6839 10.0233 13.74 10.1448 13.8567C10.2848 13.9922 10.2895 13.9922 10.9199 14.0062C11.6064 14.0249 11.7604 13.9922 11.9145 13.7913C12.078 13.5858 11.9986 13.1561 11.7791 13.0347C11.7278 13.0113 11.3775 12.988 10.9806 12.988H10.2708L10.1354 13.1234Z" fill="#D21E44"/>
</g>
<defs>
<clipPath id="clip0_206_198">
<rect width="20" height="20" fill="white"/>
</clipPath>
</defs>
</svg>
