<svg width="30" height="30" viewBox="0 0 30 30" fill="none" xmlns="http://www.w3.org/2000/svg">
<path d="M13.3009 0.562332C9.09387 1.17171 5.50794 4.06624 4.01379 8.05647C2.62512 11.7655 3.2345 16.0252 5.60754 19.2069C6.03528 19.7752 7.04309 20.824 7.61731 21.2869C9.38684 22.7166 11.5782 23.6131 13.881 23.8475C16.8868 24.1463 19.9982 23.2147 22.3829 21.2869C22.9454 20.8358 23.9591 19.7869 24.381 19.2186C25.0255 18.3573 25.5939 17.3143 25.9865 16.2889C26.795 14.1502 26.9415 11.5428 26.3673 9.28694C25.2013 4.68147 21.34 1.21272 16.6466 0.562332C15.838 0.445145 14.0861 0.451004 13.3009 0.562332ZM15.34 4.4178C15.4279 4.46468 15.5509 4.56429 15.6212 4.64046C15.6915 4.71077 16.172 5.58968 16.6993 6.59163C17.2208 7.58772 17.6603 8.41389 17.6661 8.42561C17.672 8.43147 18.6271 8.60725 19.7872 8.80647C21.2052 9.05257 21.9435 9.20491 22.0548 9.27522C22.3947 9.50374 22.547 10.0252 22.3654 10.3592C22.3243 10.4295 21.6212 11.1737 20.8126 12.0115L19.3302 13.5291L19.629 15.5565C19.7872 16.6698 19.922 17.6658 19.922 17.7596C19.922 18.0291 19.7579 18.3221 19.5294 18.4627C19.131 18.7088 19.0255 18.6737 16.9279 17.6307L15.0001 16.6756L13.0724 17.6307C10.9747 18.6737 10.8693 18.7088 10.4708 18.4627C10.2423 18.3221 10.0782 18.0291 10.0782 17.7596C10.0782 17.66 10.213 16.6698 10.3771 15.5565L10.67 13.535L9.18762 12.0115C8.37317 11.1737 7.6759 10.4295 7.63489 10.3533C7.45325 10.0311 7.60559 9.49788 7.94544 9.27522C8.0509 9.21077 8.8009 9.05257 10.2072 8.81233C11.3673 8.60725 12.3224 8.43733 12.3341 8.42561C12.34 8.41389 12.7794 7.58772 13.3009 6.59163C13.8282 5.58968 14.297 4.72249 14.3497 4.66389C14.6075 4.35921 15.0236 4.25374 15.34 4.4178Z" fill="#D21E44"/>
<path d="M14.7187 7.51777C13.6523 9.5627 13.5176 9.78535 13.3242 9.90254C13.1894 9.99043 12.7031 10.1018 11.6602 10.2775C10.8516 10.4182 10.1836 10.5412 10.1719 10.5529C10.1543 10.5646 10.6172 11.0627 11.1914 11.6604C11.7715 12.258 12.2812 12.8322 12.334 12.9377C12.4277 13.1252 12.4219 13.2072 12.2168 14.6545C12.0937 15.4924 12.0176 16.1955 12.0352 16.2189C12.0586 16.2365 12.6797 15.9553 13.4238 15.5861C14.5371 15.0295 14.8125 14.9123 15.0176 14.9182C15.2051 14.924 15.5742 15.0764 16.6289 15.6096C17.7539 16.1721 17.9883 16.2717 17.9883 16.1779C17.9883 16.1193 17.8945 15.4279 17.7832 14.6428C17.666 13.8576 17.5898 13.1369 17.6133 13.0432C17.6367 12.9377 18.0234 12.4865 18.75 11.7248C19.3535 11.092 19.8398 10.5646 19.8281 10.5529C19.8164 10.5412 19.1484 10.4182 18.3398 10.2775C17.2969 10.1018 16.8105 9.99043 16.6758 9.9084C16.5176 9.80879 16.3418 9.52168 15.7559 8.4084C15.3574 7.65254 15.0176 7.03145 15 7.03145C14.9824 7.03145 14.8594 7.24824 14.7187 7.51777Z" fill="#D21E44"/>
<path d="M7.67578 26.1445C7.67578 28.6758 7.68164 28.875 7.78711 29.0625C7.94531 29.3672 8.2207 29.5312 8.57227 29.5312C8.82422 29.5312 9.26953 29.3496 11.9355 28.1836L15 26.8359L18.0703 28.1836C20.7305 29.3496 21.1758 29.5312 21.4277 29.5312C21.7793 29.5312 22.0605 29.3672 22.2188 29.0566C22.3184 28.8633 22.3242 28.6758 22.3125 26.1445L22.2949 23.4434L21.6797 23.8008C19.3242 25.166 16.4414 25.8047 13.8223 25.5469C11.6836 25.3359 9.91992 24.75 7.95703 23.5898L7.67578 23.4258V26.1445Z" fill="#D21E44"/>
</svg>
