<svg width="20" height="20" viewBox="0 0 20 20" fill="none" xmlns="http://www.w3.org/2000/svg">
<g clip-path="url(#clip0_206_141)">
<path d="M12.0703 0.680124C11.9727 0.707468 11.8164 0.769968 11.7227 0.816843C11.6289 0.867624 10.1797 1.82466 8.5 2.94184L5.44922 4.9809L3.57422 5.00044C1.74609 5.02387 1.69141 5.02387 1.45703 5.11372C0.820312 5.34419 0.289062 5.87934 0.09375 6.46919C0.0234375 6.68794 0.0195312 6.84809 0.0195312 10.0004C0.0195312 13.1528 0.0234375 13.3129 0.09375 13.5317C0.289062 14.1215 0.820312 14.6567 1.45703 14.8872C1.69141 14.977 1.74609 14.977 3.57422 15.0004L5.44922 15.02L8.55469 17.0942C10.4336 18.3481 11.7539 19.2036 11.8945 19.2622C12.2109 19.3872 12.7109 19.3911 12.9727 19.27C13.3398 19.1059 13.5938 18.7582 13.6953 18.2856C13.7773 17.895 13.7773 2.102 13.6914 1.70747C13.5898 1.227 13.3281 0.879343 12.9492 0.719187C12.7461 0.637156 12.2891 0.613718 12.0703 0.680124ZM12.5 1.93794C12.5586 2.09028 12.5352 18.0668 12.4766 18.1254C12.4414 18.1606 12.3984 18.1528 12.3008 18.1059C12.2305 18.0668 10.832 17.145 9.19141 16.0512L6.21094 14.0629V10.0004V5.93794L9.15234 3.977C11.9844 2.08637 12.3672 1.83637 12.4336 1.83637C12.4492 1.83637 12.4805 1.88325 12.5 1.93794ZM5 10.0004V13.7934L3.44922 13.7817C1.93359 13.77 1.89062 13.7661 1.73438 13.684C1.64844 13.6372 1.51562 13.5317 1.44531 13.4536C1.17578 13.145 1.19141 13.352 1.19141 10.0004C1.19141 6.64887 1.17578 6.8559 1.44531 6.54731C1.57422 6.40278 1.72656 6.30512 1.91406 6.24653C1.96875 6.2309 2.68359 6.21528 3.50781 6.21528L5 6.21137V10.0004Z" fill="#D21E44"/>
<path d="M15.4453 7.5432C15.2812 7.59008 15.0898 7.81273 15.0547 7.99242C15 8.29711 15.0664 8.39867 15.8906 9.2268L16.6562 10.0002L15.8906 10.7698C15.0625 11.6057 14.9961 11.7034 15.0586 12.0159C15.0937 12.2112 15.3203 12.4416 15.5156 12.4768C15.8242 12.5315 15.9023 12.4807 16.7383 11.6409L17.5195 10.8596L18.3008 11.637C19.1602 12.4924 19.2461 12.5471 19.5664 12.4612C19.8867 12.3752 20.0195 12.1721 19.9922 11.8127L19.9727 11.594L19.1758 10.7971L18.3789 10.0002L19.1758 9.20336L19.9727 8.40648L19.9922 8.18773C20.0195 7.82836 19.8867 7.62523 19.5664 7.5393C19.2461 7.45336 19.1602 7.50805 18.3008 8.36352L17.5195 9.14086L16.7383 8.35961C15.8594 7.4807 15.7969 7.44164 15.4453 7.5432Z" fill="#D21E44"/>
</g>
<defs>
<clipPath id="clip0_206_141">
<rect width="20" height="20" fill="white"/>
</clipPath>
</defs>
</svg>
