<svg width="36" height="42" viewBox="0 0 36 42" fill="none" xmlns="http://www.w3.org/2000/svg">
<path d="M34.4062 8.90625C34.8438 9.34375 35.2188 9.9375 35.5312 10.6875C35.8438 11.4375 36 12.125 36 12.75V39.75C36 40.375 35.7812 40.9062 35.3438 41.3438C34.9062 41.7812 34.375 42 33.75 42H2.25C1.625 42 1.09375 41.7812 0.65625 41.3438C0.21875 40.9062 0 40.375 0 39.75V2.25C0 1.625 0.21875 1.09375 0.65625 0.65625C1.09375 0.21875 1.625 0 2.25 0H23.25C23.875 0 24.5625 0.15625 25.3125 0.46875C26.0625 0.78125 26.6562 1.15625 27.0938 1.59375L34.4062 8.90625ZM24 3.1875V12H32.8125C32.6562 11.5469 32.4844 11.2266 32.2969 11.0391L24.9609 3.70312C24.7734 3.51562 24.4531 3.34375 24 3.1875ZM33 39V15H23.25C22.625 15 22.0938 14.7812 21.6562 14.3438C21.2188 13.9062 21 13.375 21 12.75V3H3V39H33ZM20.9531 25.1016C21.4688 25.5078 22.125 25.9453 22.9219 26.4141C23.8438 26.3047 24.7578 26.25 25.6641 26.25C27.9609 26.25 29.3438 26.6328 29.8125 27.3984C30.0625 27.7422 30.0781 28.1484 29.8594 28.6172C29.8594 28.6328 29.8516 28.6484 29.8359 28.6641C29.8203 28.6797 29.8047 28.6953 29.7891 28.7109V28.7344C29.6953 29.3281 29.1406 29.625 28.125 29.625C27.375 29.625 26.4766 29.4688 25.4297 29.1562C24.3828 28.8438 23.3672 28.4297 22.3828 27.9141C18.9297 28.2891 15.8672 28.9375 13.1953 29.8594C10.8047 33.9531 8.91406 36 7.52344 36C7.28906 36 7.07031 35.9453 6.86719 35.8359L6.30469 35.5547C6.28906 35.5391 6.24219 35.5 6.16406 35.4375C6.00781 35.2812 5.96094 35 6.02344 34.5938C6.16406 33.9688 6.60156 33.2539 7.33594 32.4492C8.07031 31.6445 9.10156 30.8906 10.4297 30.1875C10.6484 30.0469 10.8281 30.0938 10.9688 30.3281C11 30.3594 11.0156 30.3906 11.0156 30.4219C11.8281 29.0938 12.6641 27.5547 13.5234 25.8047C14.5859 23.6797 15.3984 21.6328 15.9609 19.6641C15.5859 18.3828 15.3477 17.1367 15.2461 15.9258C15.1445 14.7148 15.1953 13.7188 15.3984 12.9375C15.5703 12.3125 15.8984 12 16.3828 12H16.875H16.8984C17.2578 12 17.5312 12.1172 17.7188 12.3516C18 12.6797 18.0703 13.2109 17.9297 13.9453C17.8984 14.0391 17.8672 14.1016 17.8359 14.1328C17.8516 14.1797 17.8594 14.2422 17.8594 14.3203V15.0234C17.8281 16.9453 17.7188 18.4453 17.5312 19.5234C18.3906 22.0859 19.5312 23.9453 20.9531 25.1016ZM7.45312 34.7344C8.26562 34.3594 9.33594 33.125 10.6641 31.0312C9.86719 31.6562 9.18359 32.3125 8.61328 33C8.04297 33.6875 7.65625 34.2656 7.45312 34.7344ZM16.7812 13.1719C16.5469 13.8281 16.5312 14.8594 16.7344 16.2656C16.75 16.1562 16.8047 15.8125 16.8984 15.2344C16.8984 15.1875 16.9531 14.8516 17.0625 14.2266C17.0781 14.1641 17.1094 14.1016 17.1562 14.0391C17.1406 14.0234 17.1328 14.0078 17.1328 13.9922C17.1328 13.9766 17.1289 13.9648 17.1211 13.957C17.1133 13.9492 17.1094 13.9375 17.1094 13.9219C17.0938 13.5781 16.9922 13.2969 16.8047 13.0781C16.8047 13.0938 16.7969 13.1094 16.7812 13.125V13.1719ZM13.875 28.6641C15.9844 27.8203 18.2031 27.1875 20.5312 26.7656C20.5 26.75 20.3984 26.6758 20.2266 26.543C20.0547 26.4102 19.9297 26.3047 19.8516 26.2266C18.6641 25.1797 17.6719 23.8047 16.875 22.1016C16.4531 23.4453 15.8047 24.9844 14.9297 26.7188C14.4609 27.5938 14.1094 28.2422 13.875 28.6641ZM29.0156 28.2891C28.6406 27.9141 27.5469 27.7266 25.7344 27.7266C26.9219 28.1641 27.8906 28.3828 28.6406 28.3828C28.8594 28.3828 29 28.375 29.0625 28.3594C29.0625 28.3438 29.0469 28.3203 29.0156 28.2891Z" fill="#C81942"/>
</svg>
