<svg width="30" height="30" viewBox="0 0 30 30" fill="none" xmlns="http://www.w3.org/2000/svg">
<path d="M13.5646 2.05664C13.0782 2.25 12.756 2.57812 12.6095 3.03516C12.5568 3.21094 12.422 4.31836 12.422 4.61133C12.422 4.66406 12.2638 4.78711 12.0529 4.89844L11.6896 5.0918L11.0509 4.79297C10.3361 4.45898 10.0021 4.39453 9.55676 4.5C9.04114 4.62305 8.81262 4.85742 8.27942 5.79492C7.5177 7.13672 7.49426 7.18945 7.4884 7.58203C7.48254 8.30859 7.68762 8.63086 8.57239 9.27539L9.12317 9.67969V10.125V10.5703L8.57239 10.9746C7.68762 11.6191 7.48254 11.9414 7.4884 12.668C7.49426 13.0605 7.5177 13.1133 8.27942 14.4551C8.81262 15.3926 9.047 15.627 9.57434 15.7559C10.0021 15.8555 10.3419 15.791 11.0509 15.457L11.6896 15.1582L12.0529 15.3516L12.4103 15.5449L12.4513 16.0137C12.5509 17.1797 12.6388 17.4844 12.9786 17.8301C13.3712 18.2168 13.4708 18.2402 15.0001 18.2402C16.5294 18.2402 16.629 18.2168 17.0216 17.8301C17.3614 17.4844 17.4493 17.1797 17.5489 16.0137L17.59 15.5449L17.9474 15.3516L18.3107 15.1582L18.9552 15.457C19.7169 15.8145 20.0919 15.8789 20.5607 15.7207C21.0118 15.5742 21.2521 15.2988 21.8322 14.2559C22.4943 13.0723 22.5001 13.0605 22.5001 12.6328C22.5001 11.9062 22.3126 11.6191 21.4279 10.9746L20.8771 10.5703V10.125V9.67969L21.4279 9.27539C22.3419 8.60742 22.5353 8.29102 22.4884 7.50586C22.4708 7.125 22.4357 7.05469 21.8907 6.08203C21.2462 4.94531 21.0177 4.68164 20.5607 4.5293C20.0919 4.37109 19.7169 4.43555 18.9552 4.79297L18.3107 5.0918L17.9474 4.89844L17.59 4.70508L17.5489 4.23633C17.4493 3.07031 17.3614 2.76562 17.0216 2.41992C16.6349 2.0332 16.5177 2.00977 15.0587 1.99805C14.1447 1.99219 13.6876 2.00977 13.5646 2.05664ZM15.7267 7.13672C16.8927 7.43555 17.7716 8.34961 18.0177 9.50977C18.0646 9.73242 18.1056 10.0137 18.1056 10.125C18.1056 10.4941 17.9357 11.1445 17.7423 11.5312C17.5079 11.9883 16.9689 12.5508 16.5177 12.8086C16.131 13.0254 15.3986 13.2305 15.0001 13.2305C14.6017 13.2305 13.8693 13.0254 13.4825 12.8086C13.0607 12.5684 12.5568 12.0645 12.3165 11.6426C12.0997 11.2559 11.8947 10.5234 11.8947 10.125C11.8947 9.97266 11.9474 9.64453 12.0118 9.39844C12.2989 8.2793 13.1368 7.42969 14.2501 7.13672C14.8009 6.99023 15.17 6.99023 15.7267 7.13672Z" fill="#D21E44"/>
<path d="M2.72461 19.6109C1.45898 19.9742 0.416016 21.0348 0.09375 22.2887C-0.0292969 22.7633 -0.0292969 23.7359 0.09375 24.2106C0.345703 25.1891 1.07812 26.1148 1.96875 26.5777C2.84766 27.0289 1.82227 26.9996 15 26.9996C28.1777 26.9996 27.1523 27.0289 28.0312 26.5777C28.9219 26.1148 29.6543 25.1891 29.9062 24.2106C30.0293 23.7359 30.0293 22.7633 29.9062 22.2887C29.6543 21.3102 28.9219 20.3844 28.0371 19.9273C27.1406 19.4645 28.2539 19.4996 14.9648 19.5055C3.87891 19.5055 3.05273 19.5172 2.72461 19.6109ZM5.33789 22.0836C6.26367 22.3648 6.50391 23.566 5.75977 24.1813C5.20312 24.6383 4.50586 24.5387 4.01953 23.9352C3.87305 23.7535 3.83789 23.6481 3.82031 23.3434C3.79102 22.9098 3.88477 22.6695 4.18359 22.3766C4.51172 22.0602 4.91016 21.9606 5.33789 22.0836ZM11.8711 22.2242C12.6504 22.6813 12.6387 23.8238 11.8477 24.2867C10.7988 24.902 9.5918 23.7066 10.2129 22.652C10.5645 22.0543 11.2676 21.8727 11.8711 22.2242ZM19.3711 22.2242C20.1504 22.6813 20.1387 23.8238 19.3477 24.2867C18.2988 24.902 17.0918 23.7066 17.7129 22.652C18.0645 22.0543 18.7676 21.8727 19.3711 22.2242ZM25.3301 22.0836C25.6055 22.1598 25.9688 22.4762 26.1035 22.7633C26.2617 23.0973 26.2031 23.6539 25.9805 23.9352C25.4883 24.5445 24.7969 24.6383 24.2285 24.1695C23.6543 23.7008 23.6543 22.7926 24.2227 22.3356C24.5859 22.0426 24.9199 21.9664 25.3301 22.0836Z" fill="#D21E44"/>
</svg>
