<svg width="20" height="20" viewBox="0 0 20 20" fill="none" xmlns="http://www.w3.org/2000/svg">
<g clip-path="url(#clip0_206_210)">
<path d="M9.56835 1.98066C9.41174 2.13727 9.39038 2.20846 9.39038 2.72812C9.39038 3.32609 9.49716 3.66779 9.71072 3.75321C9.95987 3.84576 10.2517 3.79592 10.4226 3.61796C10.5863 3.46135 10.6006 3.39016 10.6006 2.81355C10.6006 2.27965 10.5792 2.15151 10.4511 1.98778C10.2517 1.73151 9.8175 1.72439 9.56835 1.98066Z" fill="#D21E44"/>
<path d="M4.89852 3.21964C4.7775 3.34777 4.69208 3.50438 4.69208 3.61828C4.69208 3.84608 5.21174 4.76439 5.40394 4.86405C5.77412 5.06337 6.22259 4.86405 6.3009 4.47252C6.33649 4.26608 6.29378 4.13795 6.04462 3.69659C5.63174 2.9776 5.29005 2.83523 4.89852 3.21964Z" fill="#D21E44"/>
<path d="M14.2738 3.24842C14.1528 3.38368 13.9606 3.66842 13.8538 3.89622C13.6759 4.24504 13.6616 4.33046 13.7257 4.52266C13.8254 4.80741 13.9962 4.92843 14.3094 4.93555C14.6084 4.93555 14.7508 4.80029 15.0782 4.21656C15.3915 3.64707 15.3772 3.30537 15.0071 3.12029C14.701 2.95656 14.5159 2.99215 14.2738 3.24842Z" fill="#D21E44"/>
<path d="M9.29785 5.462C8.707 5.67556 8.44361 5.98878 7.85988 7.14201C7.57514 7.7115 7.28327 8.22405 7.21208 8.28811C7.027 8.44472 6.94157 8.4732 5.79547 8.63693C4.37885 8.84337 3.95885 9.07117 3.53173 9.87558C3.41072 10.1034 3.37512 10.2885 3.37512 10.7369C3.37512 11.5271 3.56733 11.8546 4.56394 12.7871C4.99818 13.1858 5.35411 13.5844 5.39682 13.7054C5.45377 13.8691 5.43242 14.1824 5.28293 15.0651C5.06936 16.382 5.0836 16.6668 5.40394 17.2363C5.80971 17.9339 6.67818 18.3254 7.51819 18.1688C7.68903 18.1332 8.30124 17.8698 8.86361 17.5709C9.43311 17.279 9.94565 17.037 9.99548 17.037C10.0524 17.037 10.6077 17.3003 11.2341 17.6136C12.3518 18.1831 12.3731 18.1902 12.8785 18.1902C14.0389 18.1759 14.8718 17.3502 14.8718 16.2254C14.8718 16.0261 14.8077 15.4922 14.7294 15.0437C14.4945 13.6769 14.4518 13.8122 15.4697 12.7729C15.9538 12.2817 16.4023 11.762 16.4735 11.6268C16.5447 11.4915 16.6158 11.1641 16.6372 10.9078C16.6799 10.3169 16.5304 9.83998 16.1816 9.4271C15.783 8.96439 15.4057 8.81489 14.1884 8.63693C13.5833 8.5515 13.0352 8.43049 12.9141 8.3593C12.7575 8.27388 12.5867 7.99625 12.2023 7.23455C11.647 6.11692 11.3836 5.78234 10.8497 5.53319C10.4368 5.33387 9.73921 5.30539 9.29785 5.462ZM10.4297 6.69353C10.5436 6.76472 10.7999 7.19184 11.1345 7.84676C11.9175 9.41998 12.124 9.56947 13.8752 9.81151C14.3236 9.87558 14.8006 9.961 14.9287 10.0037C15.3701 10.139 15.5765 10.7512 15.3131 11.1285C15.2491 11.2281 14.8647 11.6268 14.466 12.0112C13.3199 13.1146 13.206 13.499 13.5192 15.2146C13.5975 15.6417 13.6616 16.0973 13.6616 16.2183C13.6616 16.5102 13.4267 16.8092 13.0992 16.9444L12.8501 17.0512L11.704 16.4817C11.0063 16.1258 10.444 15.8909 10.2446 15.8624C9.7748 15.8054 9.25514 15.9692 8.25141 16.5031C7.28327 17.0227 7.01276 17.0797 6.70666 16.8519C6.30801 16.5529 6.28666 16.4319 6.50734 15.1363C6.79208 13.3851 6.74225 13.2356 5.45377 11.9258C4.60665 11.0715 4.5853 11.0502 4.5853 10.7369C4.5853 10.4807 4.62801 10.381 4.80597 10.203C5.0053 9.99659 5.09072 9.97524 6.17276 9.81151C7.93107 9.541 8.12327 9.39863 8.89209 7.81828C9.43311 6.72201 9.55413 6.57963 10.0168 6.57251C10.145 6.57251 10.3301 6.62234 10.4297 6.69353Z" fill="#D21E44"/>
<path d="M1.43174 6.66501C1.26089 6.85009 1.2253 7.24874 1.36767 7.4267C1.53852 7.6545 2.32157 8.06738 2.57073 8.06738C2.87683 8.06738 3.10463 7.91077 3.16158 7.64026C3.23276 7.30569 3.06903 7.06365 2.55649 6.77179C2.00123 6.45145 1.66666 6.41585 1.43174 6.66501Z" fill="#D21E44"/>
<path d="M17.4701 6.75735C16.9433 7.07057 16.865 7.17023 16.865 7.51193C16.865 8.11702 17.3918 8.23803 18.1108 7.81091C18.6375 7.49769 18.7158 7.39803 18.7158 7.05633C18.7158 6.45125 18.1891 6.33023 17.4701 6.75735Z" fill="#D21E44"/>
<path d="M0.171748 11.378C-0.0560489 11.5987 -0.0560489 11.9119 0.16463 12.1753C0.314122 12.3461 0.392427 12.3746 0.819547 12.396C1.5243 12.4387 1.78057 12.3533 1.93718 12.0472C2.03684 11.8407 2.04396 11.7482 1.97989 11.5631C1.87311 11.2499 1.73074 11.2 0.990395 11.2C0.399546 11.2 0.328359 11.2143 0.171748 11.378Z" fill="#D21E44"/>
<path d="M18.1606 11.3632C17.9613 11.5767 17.9471 11.9967 18.1393 12.1889C18.4382 12.4879 19.506 12.4879 19.8193 12.196C20.0542 11.9754 20.0613 11.5696 19.8335 11.356C19.684 11.2208 19.5843 11.1994 18.9935 11.1994C18.3742 11.1994 18.303 11.2137 18.1606 11.3632Z" fill="#D21E44"/>
</g>
<defs>
<clipPath id="clip0_206_210">
<rect width="20" height="20" fill="white"/>
</clipPath>
</defs>
</svg>
