<svg width="22" height="22" viewBox="0 0 22 22" fill="none" xmlns="http://www.w3.org/2000/svg">
<path d="M9.83555 0.751953C7.58829 1.11719 5.6418 2.40195 4.46016 4.30547C3.65235 5.60312 3.26993 7.05547 3.32149 8.61523C3.34727 9.3457 3.40743 9.7668 3.5879 10.4328C4.06485 12.173 5.20352 13.7328 6.76329 14.7812C7.10274 15.009 7.9793 15.4688 8.07383 15.4688C8.10821 15.4688 8.1211 15.8598 8.1211 16.8867V18.1047C8.1211 18.2151 8.21064 18.3047 8.3211 18.3047H8.5293H8.73751C8.84796 18.3047 8.93751 18.3942 8.93751 18.5047V19.8086V21.1125C8.93751 21.223 9.02705 21.3125 9.13751 21.3125H11.0645H12.9914C13.1019 21.3125 13.1914 21.223 13.1914 21.1125V19.8086V18.5047C13.1914 18.3942 13.281 18.3047 13.3914 18.3047H13.5352H13.6789C13.7894 18.3047 13.8789 18.2151 13.8789 18.1047V16.8867C13.8789 15.7824 13.8918 15.4688 13.9348 15.4688C14.0293 15.4688 14.8844 15.0176 15.2367 14.7812C16.7965 13.7328 17.9352 12.173 18.4121 10.4328C18.584 9.79258 18.6484 9.3543 18.6785 8.6582C18.7172 7.69141 18.6098 6.90508 18.3176 5.99414C17.4754 3.36875 15.2883 1.41367 12.5254 0.816406C11.9668 0.696093 10.4113 0.657421 9.83555 0.751953ZM11.5887 1.56406C13.1957 1.65859 14.8973 2.50937 16.0746 3.80273C17.9266 5.84805 18.3563 8.83867 17.1488 11.3223C16.3324 12.9937 14.8887 14.2613 13.1356 14.8457C11.4254 15.4129 9.57774 15.284 7.9836 14.4805C6.0543 13.5137 4.75235 11.8121 4.29258 9.66797C4.15079 9.01914 4.15079 7.7 4.28829 7.05976C4.88555 4.30547 6.89649 2.27305 9.60782 1.67578C10.0074 1.58984 10.8453 1.50391 11.0859 1.52969C11.1461 1.53828 11.3695 1.55117 11.5887 1.56406ZM9.88282 15.9715C10.7293 16.109 11.984 16.0488 12.7961 15.8383C12.9088 15.8079 13.0195 15.8928 13.0195 16.0095V16.6117V17.2453C13.0195 17.3558 12.93 17.4453 12.8195 17.4453H11H9.18048C9.07002 17.4453 8.98048 17.3558 8.98048 17.2453V16.6117V16.0137C8.98048 15.8947 9.09314 15.8079 9.20821 15.8383C9.32852 15.8684 9.6336 15.9285 9.88282 15.9715ZM12.332 19.4004V20.2961C12.332 20.4066 12.2425 20.4961 12.132 20.4961H11.0645H9.99688C9.88643 20.4961 9.79688 20.4066 9.79688 20.2961V19.4004V18.5047C9.79688 18.3942 9.88642 18.3047 9.99688 18.3047H11.0645H12.132C12.2425 18.3047 12.332 18.3942 12.332 18.5047V19.4004Z" fill="#D21E44"/>
<path d="M10.1363 2.5355C8.07383 2.86206 6.33359 4.22417 5.56445 6.1062C4.8125 7.95815 5.01875 10.0164 6.13164 11.6835C6.14883 11.7093 6.82773 11.241 6.83203 11.2023C6.83203 11.1808 6.75469 11.0347 6.66445 10.88C6.36367 10.373 6.11016 9.63393 6.03281 9.03237C6.01689 8.91411 6.10886 8.80893 6.22819 8.80893H6.52695H6.84687C6.95733 8.80893 7.04687 8.71939 7.04687 8.60893V8.37925V8.14956C7.04687 8.0391 6.95733 7.94956 6.84687 7.94956H6.52695H6.22543C6.1065 7.94956 6.01384 7.84639 6.02658 7.72815L6.03281 7.67026C6.09726 7.05151 6.43672 6.16636 6.85781 5.53901C7.16289 5.08784 7.12851 5.08784 7.54531 5.50464L7.76483 5.72415C7.84293 5.80226 7.96957 5.80226 8.04767 5.72415L8.20703 5.56479L8.36639 5.40543C8.44449 5.32733 8.44449 5.2007 8.36639 5.12259L8.13828 4.89448L7.92793 4.68413C7.84173 4.59793 7.85204 4.45531 7.94976 4.38241L8.03516 4.3187C8.70976 3.82456 9.51758 3.50229 10.3898 3.37768C10.4851 3.36408 10.5703 3.43799 10.5703 3.5342V3.86753V4.18315C10.5703 4.29361 10.6599 4.38315 10.7703 4.38315H11H11.2297C11.3401 4.38315 11.4297 4.29361 11.4297 4.18315V3.86753V3.53846C11.4297 3.43989 11.5168 3.36406 11.6145 3.37768C12.5082 3.50659 13.4148 3.88042 14.0508 4.38315L14.054 4.38567C14.1483 4.45975 14.1566 4.59957 14.0718 4.68436L13.8617 4.89448L13.6336 5.12259C13.5555 5.2007 13.5555 5.32733 13.6336 5.40543L13.793 5.56479L13.9523 5.72415C14.0304 5.80226 14.1571 5.80226 14.2352 5.72415L14.4547 5.50464C14.8715 5.08784 14.8371 5.08784 15.1422 5.53901C15.5633 6.16636 15.9027 7.05151 15.9672 7.67026L15.9734 7.72815C15.9862 7.84639 15.8935 7.94956 15.7746 7.94956H15.473H15.1531C15.0427 7.94956 14.9531 8.0391 14.9531 8.14956V8.37925V8.60893C14.9531 8.71939 15.0427 8.80893 15.1531 8.80893H15.473H15.7718C15.8911 8.80893 15.9831 8.91411 15.9672 9.03237C15.8855 9.63823 15.6363 10.373 15.3312 10.8843C15.2367 11.0476 15.1766 11.1937 15.1937 11.2109C15.2152 11.2324 15.3656 11.3398 15.5289 11.4515C15.7566 11.6148 15.8383 11.6492 15.8941 11.6148C15.9973 11.5503 16.4656 10.6007 16.5988 10.1839C16.8094 9.52651 16.8566 9.18706 16.8609 8.37925C16.8652 7.53276 16.8137 7.2105 16.5602 6.44565C15.9199 4.52925 14.2742 3.06401 12.2203 2.59995C11.8723 2.51831 10.5016 2.47964 10.1363 2.5355Z" fill="#D21E44"/>
<path d="M12.0484 6.62578C11.709 7.00391 11.4727 7.23594 11.4297 7.22734C11.3953 7.21875 11.2148 7.20156 11.0301 7.18867C10.7336 7.16719 10.6734 7.18008 10.4629 7.27891C10.2137 7.40352 10.0633 7.55391 9.91289 7.8375C9.79258 8.06094 9.77969 8.62812 9.89141 8.83008C9.93256 8.90467 9.92194 8.99715 9.86495 9.06047L9.72813 9.2125L9.62805 9.3237C9.55488 9.405 9.56059 9.52999 9.64087 9.60428L9.78398 9.73672C9.9303 9.87148 10.0663 9.98209 10.1146 10.0067C10.123 10.011 10.1326 10.0115 10.141 10.0071C10.1832 9.98471 10.293 9.8836 10.4027 9.7625L10.5535 9.59469C10.6011 9.54164 10.6734 9.51798 10.7432 9.53259L10.8152 9.54766C11.1891 9.6293 11.7133 9.42305 11.9582 9.10078C12.1816 8.80859 12.259 8.3918 12.1559 8.02227L12.1414 7.96886C12.1236 7.90307 12.1406 7.83276 12.1864 7.78229L12.7016 7.21445L13.1573 6.71213C13.231 6.63096 13.2256 6.50564 13.1452 6.4311L12.9938 6.29062C12.8504 6.16237 12.7137 6.05068 12.665 6.0224C12.6555 6.01687 12.6445 6.01686 12.6356 6.02331C12.571 6.06997 12.3237 6.32339 12.0484 6.62578ZM11.2535 8.14687C11.3695 8.29727 11.3652 8.43047 11.2449 8.57656C11.1719 8.6625 11.1031 8.69258 11 8.69258C10.8969 8.69258 10.8281 8.6625 10.7551 8.57656C10.6348 8.43047 10.6305 8.29727 10.7465 8.14687C10.8152 8.06094 10.8711 8.03516 11 8.03516C11.1289 8.03516 11.1848 8.06094 11.2535 8.14687Z" fill="#D21E44"/>
<path d="M9.45312 11.6445V11.8742C9.45312 11.9847 9.54267 12.0742 9.65313 12.0742H11H12.3469C12.4573 12.0742 12.5469 11.9847 12.5469 11.8742V11.6445V11.4148C12.5469 11.3044 12.4573 11.2148 12.3469 11.2148H11H9.65313C9.54267 11.2148 9.45312 11.3044 9.45312 11.4148V11.6445Z" fill="#D21E44"/>
</svg>
