<svg width="36" height="42" viewBox="0 0 36 42" fill="none" xmlns="http://www.w3.org/2000/svg">
<path d="M34.4062 8.90625C34.8438 9.34375 35.2188 9.9375 35.5312 10.6875C35.8438 11.4375 36 12.125 36 12.75V39.75C36 40.375 35.7812 40.9062 35.3438 41.3438C34.9062 41.7812 34.375 42 33.75 42H2.25C1.625 42 1.09375 41.7812 0.65625 41.3438C0.21875 40.9062 0 40.375 0 39.75V2.25C0 1.625 0.21875 1.09375 0.65625 0.65625C1.09375 0.21875 1.625 0 2.25 0H23.25C23.875 0 24.5625 0.15625 25.3125 0.46875C26.0625 0.78125 26.6562 1.15625 27.0938 1.59375L34.4062 8.90625ZM24 3.1875V12H32.8125C32.6562 11.5469 32.4844 11.2266 32.2969 11.0391L24.9609 3.70312C24.7734 3.51562 24.4531 3.34375 24 3.1875ZM33 39V15H23.25C22.625 15 22.0938 14.7812 21.6562 14.3438C21.2188 13.9062 21 13.375 21 12.75V3H3V39H33ZM10.0547 33.5156V36H16.6406V33.5156H14.8828L17.2969 29.7422C17.375 29.6328 17.4531 29.5039 17.5312 29.3555C17.6094 29.207 17.668 29.1016 17.707 29.0391C17.7461 28.9766 17.7734 28.9453 17.7891 28.9453H17.8359C17.8516 29.0078 17.8906 29.0859 17.9531 29.1797C17.9844 29.2422 18.0195 29.3008 18.0586 29.3555C18.0977 29.4102 18.1445 29.4727 18.1992 29.543C18.2539 29.6133 18.3047 29.6797 18.3516 29.7422L20.8594 33.5156H19.0781V36H25.8984V33.5156H24.3047L19.8047 27.1172L24.375 20.5078H25.9453V18H19.4062V20.5078H21.1406L18.7266 24.2344C18.6641 24.3438 18.5859 24.4727 18.4922 24.6211C18.3984 24.7695 18.3281 24.875 18.2812 24.9375L18.2344 25.0078H18.1875C18.1719 24.9453 18.1328 24.8672 18.0703 24.7734C17.9766 24.6016 17.8438 24.4219 17.6719 24.2344L15.1875 20.5078H16.9688V18H10.1719V20.5078H11.7656L16.1953 26.8828L11.6484 33.5156H10.0547Z" fill="#2B8E19"/>
</svg>
