<svg width="22" height="22" viewBox="0 0 22 22" fill="none" xmlns="http://www.w3.org/2000/svg">
<path d="M4.91992 21.7441C5.66949 21.7746 6.10739 21.7171 6.74707 21.5068H6.74805C7.26156 21.3357 7.76983 21.0634 8.2041 20.7256C8.2332 20.703 8.31015 20.6287 8.4209 20.5186C8.53488 20.4052 8.69161 20.2472 8.88379 20.0518C9.26817 19.6608 9.79736 19.1175 10.4219 18.4736C11.6713 17.1855 13.3035 15.4928 14.9268 13.8037C16.5502 12.1144 18.1654 10.4286 19.3789 9.1543C19.9855 8.51728 20.4922 7.98306 20.8496 7.60254C21.0283 7.41231 21.1703 7.25963 21.2686 7.15234C21.3173 7.09907 21.3557 7.05634 21.3828 7.02539C21.3962 7.01005 21.4076 6.99668 21.416 6.98633C21.4202 6.9812 21.4242 6.9756 21.4277 6.9707L21.4424 6.94629L21.4443 6.94141C21.4757 6.86072 21.5546 6.63462 21.6113 6.42969H21.6104C21.691 6.15156 21.7395 5.74042 21.752 5.3291C21.7644 4.91716 21.7414 4.49361 21.6768 4.19043C21.2604 2.20135 19.8037 0.740195 17.8311 0.328125C17.6389 0.287501 17.3007 0.261636 16.9658 0.251953C16.63 0.242251 16.2849 0.248545 16.0791 0.275391C15.97 0.289366 15.7637 0.339507 15.5684 0.393555C15.3728 0.44767 15.1748 0.509407 15.082 0.548828H15.0801C15.0686 0.553955 15.059 0.56111 15.0557 0.563477C15.0506 0.567064 15.0453 0.571041 15.04 0.575195C15.0292 0.58382 15.0158 0.595747 15 0.609375C14.9684 0.636743 14.925 0.67557 14.8711 0.724609C14.7627 0.823129 14.6089 0.964951 14.418 1.14355C14.036 1.50084 13.5008 2.00754 12.8633 2.61328C11.5879 3.82499 9.90202 5.43616 8.21289 7.05762C6.52362 8.67921 4.83046 10.311 3.54004 11.5625C2.89491 12.1882 2.35024 12.7194 1.95703 13.1064C1.76071 13.2997 1.60207 13.4575 1.4873 13.5732C1.37532 13.6862 1.29872 13.7656 1.27441 13.7969V13.7979C0.77036 14.4427 0.398443 15.3086 0.28418 16.0947L0.283203 16.0957C0.204254 16.666 0.252433 17.5994 0.398438 18.1172L0.480469 18.3877C0.924282 19.7247 1.85758 20.761 3.16016 21.3486C3.7148 21.6038 4.23494 21.7169 4.91992 21.7432V21.7441ZM10.0381 17.3682C10.043 17.2025 10.0451 16.993 10.043 16.7793L10.04 16.3525C10.0372 16.2357 10.0325 16.1407 10.0244 16.0557C10.0163 15.9696 10.0039 15.8941 9.98828 15.8164L9.92773 15.5635C9.46727 13.8663 8.13464 12.5327 6.4375 12.0723H6.43652C6.24771 12.0224 6.11661 11.9929 5.94434 11.9766C5.77459 11.9605 5.56561 11.958 5.2207 11.958C5.00726 11.9559 4.79581 11.9575 4.62695 11.9629C4.56067 11.965 4.50056 11.9686 4.44922 11.9717C5.84955 10.636 14.2608 2.55839 14.7871 2.04395L15.4551 1.39258L15.7734 1.30859C16.0288 1.2415 16.1475 1.21086 16.2881 1.19727C16.431 1.18349 16.5983 1.18763 16.9492 1.19629H16.9502C17.4549 1.20485 17.6501 1.22586 17.8857 1.29492L18.1416 1.37793C19.3978 1.82963 20.332 2.82896 20.71 4.13574V4.13672C20.7915 4.41416 20.8047 4.54836 20.8047 5.15625C20.8047 5.76854 20.7911 5.89876 20.7051 6.18945V6.19141L20.6123 6.52539L15.7324 11.6055C12.5848 14.882 11.1033 16.4252 10.4141 17.1289C10.2385 17.3081 10.1162 17.4317 10.0312 17.5146C10.0334 17.4711 10.0365 17.4219 10.0381 17.3682ZM6.81641 20.4746C4.83055 21.3921 2.45318 20.5082 1.52637 18.5039C1.38609 18.2 1.3045 17.9817 1.25781 17.7412C1.2109 17.4994 1.19805 17.2301 1.2002 16.8232V16.8223C1.2002 16.486 1.20236 16.3017 1.21777 16.1572C1.22529 16.0869 1.23629 16.0256 1.25195 15.96L1.31641 15.7354V15.7344C1.71933 14.4083 2.75155 13.3816 4.05859 13.0088C4.72446 12.8162 5.53495 12.8075 6.19141 12.9873L6.40137 13.0508C7.4388 13.3971 8.32337 14.1824 8.78711 15.1846L8.88086 15.3984C8.96502 15.5993 9.01968 15.767 9.05469 15.9473C9.1016 16.1891 9.11445 16.4583 9.1123 16.8652L9.10938 17.2705C9.10688 17.3767 9.10244 17.459 9.09473 17.5312C9.07967 17.6723 9.05233 17.7767 8.99707 17.9531V17.9541C8.65722 19.0742 7.86431 19.9883 6.81641 20.4746Z" fill="#D21E44" stroke="#D21E44" stroke-width="0.2"/>
</svg>
