<svg width="30" height="30" viewBox="0 0 30 30" fill="none" xmlns="http://www.w3.org/2000/svg">
<g clip-path="url(#clip0_2003_222)">
<path d="M3.19899 6.20557C2.8357 6.4458 2.81227 6.53955 2.81227 7.77588V8.90674H2.12672C1.365 8.90674 1.21266 8.95947 0.990001 9.29346C0.843517 9.52197 0.837657 10.0493 0.990001 10.272C1.23609 10.647 1.13063 10.6353 3.92555 10.6646C6.32203 10.6938 6.48609 10.6997 6.66188 10.811C7.27125 11.1743 7.07789 12.1001 6.35719 12.2993C6.20484 12.3403 5.16188 12.3638 3.33961 12.3638C0.71461 12.3638 0.544689 12.3696 0.386485 12.4751C0.116954 12.6567 -0.000233372 12.8794 -0.000233372 13.2427C-0.000233372 13.5884 0.111095 13.8169 0.357189 13.9927C0.486095 14.0806 0.878673 14.0923 4.74586 14.1216C8.88258 14.1509 8.99977 14.1567 9.19899 14.2681C9.76149 14.6021 9.76149 15.3989 9.19899 15.7329C8.99977 15.8442 8.88258 15.8501 4.74586 15.8794C0.0700791 15.9146 0.363048 15.8853 0.111095 16.272C-0.041249 16.4946 -0.0353896 17.022 0.111095 17.2505C0.351329 17.6138 0.445079 17.6372 1.68727 17.6372H2.81227V19.1138C2.81227 20.4673 2.82399 20.6079 2.92359 20.7661C3.15797 21.1235 3.2693 21.1528 4.3943 21.1528H5.41969L5.55445 21.5747C5.88844 22.6235 6.8025 23.479 7.89234 23.7603C8.32594 23.8716 9.19899 23.8716 9.63258 23.7603C10.5408 23.52 11.3494 22.8696 11.7654 22.0376C11.9002 21.7739 12.0232 21.4692 12.0466 21.3579L12.0818 21.1528H16.5173H20.947L21.0818 21.5747C21.4158 22.6235 22.3298 23.479 23.4197 23.7603C23.8533 23.8716 24.7263 23.8716 25.1599 23.7603C26.0681 23.52 26.8767 22.8696 27.2927 22.0376C27.4275 21.7739 27.5505 21.4692 27.574 21.3579L27.6091 21.1528H28.5173C29.3259 21.1528 29.449 21.1411 29.6189 21.0356C30.0173 20.7896 30.0115 20.8892 29.988 17.3677L29.9705 14.2036L29.7537 13.7583C29.4314 13.1138 28.9509 12.7095 28.1423 12.4048C27.8084 12.2759 27.738 12.2759 24.0525 12.2466C20.4314 12.2173 20.2966 12.2114 20.1091 12.1001C20.0037 12.0356 19.8572 11.8892 19.7869 11.7778C19.658 11.5786 19.658 11.5317 19.6404 8.83057L19.6228 6.09424H11.4959C3.63258 6.09424 3.36305 6.1001 3.19899 6.20557ZM9.41578 19.0493C9.73219 19.2017 10.1541 19.6646 10.242 19.9692C10.4119 20.5317 10.2947 21.0884 9.91969 21.5044C9.57984 21.8853 9.26344 22.0317 8.78297 22.0317C8.30836 22.0317 7.90992 21.856 7.59938 21.5044C7.29469 21.1704 7.2068 20.9419 7.2068 20.479C7.2068 20.0161 7.29469 19.7876 7.59938 19.4536C8.05055 18.9497 8.84156 18.7739 9.41578 19.0493ZM24.9431 19.0493C25.2595 19.2017 25.6814 19.6646 25.7693 19.9692C25.9392 20.5317 25.822 21.0884 25.447 21.5044C25.1072 21.8853 24.7908 22.0317 24.3103 22.0317C23.8357 22.0317 23.4373 21.856 23.1267 21.5044C22.822 21.1704 22.7341 20.9419 22.7341 20.479C22.7341 20.0161 22.822 19.7876 23.1267 19.4536C23.5779 18.9497 24.3689 18.7739 24.9431 19.0493Z" fill="#D21E44"/>
<path d="M21.3867 8.37305C21.3867 9.54126 22.3337 10.4883 23.502 10.4883H23.8184C25.1543 10.4883 26.25 10.4766 26.25 10.459C26.25 10.4473 26.0625 10.1367 25.834 9.77344C24.9375 8.33789 24.2168 7.54688 23.3203 7.00781C22.8457 6.71484 22.0078 6.36914 21.6094 6.29883C21.4935 6.27749 21.3867 6.36643 21.3867 6.48422V8.37305Z" fill="#D21E44"/>
</g>
<defs>
<clipPath id="clip0_2003_222">
<rect width="30" height="30" fill="white"/>
</clipPath>
</defs>
</svg>
