<svg width="20" height="20" viewBox="0 0 20 20" fill="none" xmlns="http://www.w3.org/2000/svg">
<g clip-path="url(#clip0_206_108)">
<path d="M5.05859 0.61306C3.75781 0.781029 2.67578 1.29665 1.74609 2.18728C1.07812 2.824 0.601562 3.57009 0.300781 4.43337C0.0546875 5.1404 0.0195312 5.3865 0.0195312 6.34743C0.0234375 7.09353 0.03125 7.25368 0.105469 7.56228C0.367188 8.6365 0.867188 9.5779 1.55859 10.3006C1.76563 10.5154 1.78516 10.5467 1.73047 10.5935C1.60547 10.6951 1.36328 11.1131 1.28906 11.3592C1.19141 11.6756 1.18359 12.2381 1.27344 12.5427C1.47266 13.2185 2.01953 13.7654 2.65625 13.9334L2.92969 13.9998V14.1795C2.92969 14.6443 3.15234 15.1482 3.53516 15.531C3.89453 15.8943 4.39062 16.1326 4.79297 16.1326C4.89844 16.1326 4.92578 16.1482 4.94141 16.2381C5.01953 16.5974 5.05469 16.7107 5.16406 16.9295C5.23438 17.0701 5.38281 17.2654 5.52344 17.4021C5.96484 17.8357 6.49219 18.031 7.10938 17.9959L7.44141 17.9763L7.58984 18.2849C8 19.1482 8.99609 19.6013 9.94141 19.3552C10.3398 19.2498 10.5391 19.1131 11.0977 18.5545C11.5391 18.117 11.6523 17.9802 11.7695 17.742C11.8477 17.5857 11.9219 17.3748 11.9336 17.2732C11.9805 16.9138 11.9648 16.9334 12.2539 16.8787C12.5391 16.8279 12.9414 16.6365 13.1797 16.4373C13.5273 16.1521 13.8047 15.6482 13.8594 15.199L13.8867 14.9802L14.1055 14.9529C14.5547 14.8982 15.0547 14.6209 15.3477 14.2732C15.5352 14.0467 15.7422 13.6013 15.7891 13.3162L15.832 13.0584L16.0781 13.0193C16.5703 12.9334 17.0664 12.6287 17.3633 12.2224C17.5703 11.9412 17.6836 11.6521 17.7422 11.2537L17.7852 10.9568L18.2422 10.4881C19.0312 9.67556 19.4102 9.08181 19.707 8.19118C19.9414 7.48415 19.9805 7.21853 19.9805 6.3279C19.9805 5.43728 19.9414 5.17165 19.707 4.46462C19.2305 3.02712 18.0938 1.75759 16.7148 1.12087C15.9609 0.76931 15.3711 0.628685 14.4922 0.597435C12.8672 0.538841 11.4102 1.08572 10.2656 2.18337L10 2.43337L9.73828 2.18337C8.87109 1.35525 7.78516 0.823997 6.58984 0.648216C6.21875 0.589622 5.36719 0.573997 5.05859 0.61306ZM15.2852 2.00759C16.2539 2.25759 17.1914 2.8904 17.8164 3.71853C18.1211 4.12478 18.4492 4.80056 18.582 5.29275C18.6758 5.6404 18.6875 5.75368 18.6875 6.3279C18.6914 6.91384 18.6797 7.00759 18.582 7.36306C18.3828 8.08181 17.957 8.84743 17.457 9.38259L17.2305 9.62868L14.8555 7.25368C13.5508 5.949 12.4648 4.88259 12.4453 4.88259C12.4297 4.88259 12.2656 5.02322 12.0859 5.19509C11.6562 5.59743 11.3633 5.74197 10.9219 5.76931C10.3945 5.80056 10.0195 5.6365 9.57031 5.17556L9.35547 4.95681L10.3516 3.97243C11.3594 2.97634 11.7109 2.68728 12.2656 2.3904C12.625 2.19509 13.1602 2.0115 13.5742 1.93337C14.0391 1.84743 14.7969 1.87868 15.2852 2.00759ZM6.84766 2.04275C7.54297 2.22634 8.23047 2.60525 8.78125 3.10915L9.07031 3.37087L8.28516 4.15603C7.85156 4.58962 7.5 4.96072 7.5 4.98415C7.5 5.05837 8.92188 6.42556 9.17578 6.60134C9.70312 6.95681 10.1367 7.08572 10.8203 7.08572C11.375 7.08572 11.6523 7.02712 12.0938 6.82009L12.3711 6.68728L14.3672 8.68728C16.4922 10.8162 16.4844 10.8084 16.4258 11.1248C16.3477 11.574 15.8633 11.8396 15.457 11.6638C15.3867 11.6326 14.6836 10.9607 13.8672 10.1404C13.0625 9.33181 12.3867 8.67165 12.3633 8.67165C12.3125 8.67165 11.4453 9.53884 11.4453 9.58962C11.4453 9.61306 12.1055 10.2888 12.9141 11.0935C13.7344 11.9099 14.4062 12.6131 14.4375 12.6834C14.6133 13.0896 14.3477 13.574 13.8984 13.6521C13.5898 13.7107 13.5547 13.6834 11.9414 12.074L10.4297 10.5662L9.95312 11.0467L9.47266 11.5232L10.9805 13.0349C12.168 14.2263 12.5 14.5818 12.5391 14.699C12.6719 15.117 12.3203 15.5857 11.8789 15.5857C11.6641 15.5857 11.5547 15.5349 11.2969 15.3279C10.8398 14.9568 10.4453 14.8279 9.83203 14.8474L9.45312 14.8631L9.39062 14.6795C9.19531 14.0935 8.51172 13.5467 7.83203 13.4334C7.51953 13.3787 7.52734 13.3865 7.48047 13.1052C7.46875 13.0193 7.39453 12.824 7.32031 12.6677C7.07422 12.1482 6.54297 11.7224 5.98828 11.5935L5.78125 11.5427V11.3279C5.77734 10.4998 5.11719 9.69509 4.25781 9.47243C3.89062 9.37478 3.37891 9.40603 3.04688 9.54275L2.79297 9.64822L2.60156 9.46072C2.01953 8.89822 1.57422 8.05837 1.38281 7.15212C1.29688 6.74197 1.29688 5.94118 1.38281 5.49587C1.67969 3.96853 2.76172 2.699 4.21875 2.16775C4.78516 1.96072 5.10938 1.91384 5.82031 1.92947C6.35938 1.94118 6.52734 1.96071 6.84766 2.04275ZM4.05469 10.7967C4.30469 10.9256 4.45312 11.1717 4.45312 11.4529C4.45312 11.6912 4.36328 11.8318 3.96875 12.2224C3.48047 12.699 3.28516 12.7771 2.94922 12.6209C2.61719 12.4724 2.44922 12.1365 2.53906 11.8084C2.58203 11.6638 2.66406 11.5506 2.90625 11.2927C3.31641 10.867 3.50781 10.742 3.75781 10.742C3.86328 10.742 3.99609 10.7654 4.05469 10.7967ZM5.87891 12.9724C6.14844 13.1599 6.26562 13.4802 6.17188 13.7732C6.11328 13.9568 5.48438 14.617 5.26562 14.7302C4.72266 15.0076 4.10547 14.4685 4.29688 13.8826C4.35938 13.6951 4.98047 13.0467 5.20703 12.9295C5.41016 12.8279 5.69141 12.8474 5.87891 12.9724ZM7.76172 14.7849C7.94922 14.8631 8.03906 14.9451 8.12891 15.1248C8.21875 15.3006 8.22266 15.5467 8.14062 15.7146C8.05469 15.8865 7.43359 16.5115 7.25781 16.6052C7.08203 16.6951 6.88281 16.699 6.69141 16.6209C6.49609 16.5388 6.41016 16.4568 6.32422 16.2693C6.16406 15.9217 6.24609 15.699 6.70703 15.2302C7.17969 14.7459 7.42188 14.6443 7.76172 14.7849ZM10.125 16.1717C10.3203 16.2263 10.5039 16.3865 10.5898 16.5818C10.7461 16.9256 10.6563 17.1521 10.1484 17.6443C9.75 18.031 9.66016 18.0857 9.39062 18.0857C8.85156 18.0857 8.53125 17.4842 8.82031 17.0271C8.98047 16.7771 9.5625 16.2342 9.72656 16.1834C9.90625 16.1287 9.95312 16.1248 10.125 16.1717Z" fill="#D21E44"/>
</g>
<defs>
<clipPath id="clip0_206_108">
<rect width="20" height="20" fill="white"/>
</clipPath>
</defs>
</svg>
