<svg width="30" height="30" viewBox="0 0 30 30" fill="none" xmlns="http://www.w3.org/2000/svg">
<g clip-path="url(#clip0_2003_194)">
<path d="M14.209 0.626953C13.6641 0.75 13.1016 1.00195 12.4863 1.40039C12.2754 1.53516 11.8945 1.71094 11.6367 1.79883C11.209 1.93359 11.0684 1.95117 10.166 1.96289C9.08203 1.97461 8.70703 2.04492 8.0625 2.33789C7.23633 2.71875 6.61523 3.35156 6.08203 4.35938C5.6543 5.16797 5.16797 5.6543 4.35938 6.08203C3.35156 6.61523 2.71875 7.23633 2.33789 8.0625C2.03906 8.71289 1.97461 9.08203 1.96289 10.166C1.95117 11.0625 1.93359 11.209 1.79297 11.6367C1.71094 11.8945 1.53516 12.2754 1.40039 12.4863C0.75 13.4883 0.615234 13.9219 0.615234 15C0.615234 16.0781 0.75 16.5117 1.40039 17.5137C1.53516 17.7246 1.71094 18.1055 1.79297 18.3633C1.93359 18.791 1.95117 18.9375 1.96289 19.834C1.97461 20.918 2.04492 21.2988 2.33789 21.9375C2.71875 22.7637 3.33398 23.3672 4.34766 23.9062C5.15039 24.334 5.6543 24.832 6.06445 25.6055C6.61523 26.6484 7.16016 27.2109 7.99805 27.6211C8.66602 27.9492 9.04102 28.0254 10.166 28.0371C11.0684 28.0488 11.209 28.0664 11.6367 28.2012C11.8945 28.2891 12.2754 28.4648 12.4863 28.5996C13.4883 29.25 13.9219 29.3848 15 29.3848C16.0781 29.3848 16.5117 29.25 17.5137 28.5996C17.7246 28.4648 18.1055 28.2891 18.3633 28.2012C18.791 28.0664 18.9316 28.0488 19.834 28.0371C20.959 28.0254 21.334 27.9492 22.002 27.6211C22.8398 27.2109 23.4141 26.6133 23.9473 25.5879C24.3281 24.8555 24.8496 24.334 25.6055 23.9355C26.6484 23.3848 27.2109 22.8398 27.6211 22.002C27.9492 21.334 28.0254 20.959 28.0371 19.834C28.0488 18.9316 28.0664 18.791 28.2012 18.3633C28.2891 18.1055 28.4648 17.7246 28.5996 17.5137C29.25 16.5117 29.3848 16.0781 29.3848 15C29.3848 13.9219 29.25 13.4883 28.5996 12.4863C28.4648 12.2754 28.2891 11.8945 28.207 11.6367C28.0664 11.209 28.0488 11.0625 28.0371 10.166C28.0195 9.04102 27.9492 8.66602 27.6211 7.99805C27.2109 7.16016 26.6133 6.58594 25.5879 6.05273C24.8496 5.67188 24.3281 5.15039 23.9473 4.41211C23.4141 3.38672 22.8398 2.78906 22.002 2.37891C21.334 2.05078 20.959 1.97461 19.834 1.96289C18.9375 1.95117 18.791 1.93359 18.3691 1.79883C18.1055 1.71094 17.6777 1.5 17.3906 1.31836C16.4883 0.75 15.9434 0.585938 14.9707 0.591797C14.6191 0.597656 14.2734 0.609375 14.209 0.626953ZM15.3223 4.20703C15.4453 4.2832 15.8027 4.81055 16.5176 5.98242C17.0742 6.89648 17.6074 7.7168 17.7012 7.80469C17.7949 7.89258 17.9414 7.98633 18.0293 8.00391C18.1348 8.0332 18.8438 7.88672 20.2207 7.55859C21.5801 7.23633 22.2949 7.08984 22.3887 7.11914C22.5879 7.17773 22.834 7.42383 22.8809 7.60547C22.9043 7.70508 22.752 8.46094 22.4355 9.78516C22.1133 11.1504 21.9668 11.8652 21.9961 11.9707C22.0137 12.0586 22.1074 12.2051 22.1953 12.2988C22.2832 12.3926 23.1035 12.9258 24.0176 13.4824C25.7227 14.5195 25.8984 14.666 25.8984 15C25.8984 15.334 25.7168 15.4746 24.0176 16.5176C23.1035 17.0742 22.2832 17.6074 22.1953 17.7012C22.1074 17.7949 22.0137 17.9414 21.9961 18.0293C21.9668 18.1348 22.1133 18.8496 22.4355 20.2207C22.7578 21.5566 22.9043 22.3008 22.8809 22.3945C22.8223 22.5879 22.5703 22.834 22.3887 22.8809C22.2891 22.9043 21.5566 22.7578 20.209 22.4355C18.8379 22.1074 18.1348 21.9668 18.0293 21.9961C17.9414 22.0137 17.7949 22.1074 17.7012 22.1953C17.6074 22.2832 17.0742 23.1035 16.5176 24.0176C15.4746 25.7168 15.334 25.8984 15 25.8984C14.666 25.8984 14.5254 25.7168 13.4824 24.0176C12.9258 23.1035 12.3926 22.2832 12.2988 22.1953C12.2051 22.1074 12.0586 22.0137 11.9707 21.9961C11.8652 21.9668 11.1562 22.1133 9.7793 22.4414C8.41992 22.7637 7.70508 22.9102 7.61133 22.8809C7.41211 22.8223 7.16602 22.5762 7.11914 22.3945C7.0957 22.2949 7.24805 21.5391 7.56445 20.2148C7.88672 18.8496 8.0332 18.1348 8.00391 18.0293C7.98633 17.9414 7.89258 17.7949 7.80469 17.7012C7.7168 17.6074 6.89648 17.0742 5.98242 16.5176C4.83398 15.8145 4.2832 15.4453 4.20703 15.3223C4.06055 15.0938 4.10156 14.7363 4.28906 14.5605C4.36523 14.4902 5.15039 13.9863 6.03516 13.4473C7.66992 12.4512 7.93359 12.252 8.00391 11.9707C8.0332 11.8652 7.88672 11.1504 7.56445 9.78516C7.24805 8.46094 7.0957 7.70508 7.11914 7.60547C7.16602 7.42383 7.41211 7.17773 7.61133 7.11914C7.70508 7.08984 8.41992 7.23633 9.7793 7.55859C11.1562 7.88672 11.8652 8.0332 11.9707 8.00391C12.252 7.93359 12.4512 7.66992 13.4473 6.03516C13.9863 5.15039 14.4727 4.37695 14.5254 4.3125C14.7188 4.08398 15.0469 4.04297 15.3223 4.20703Z" fill="#D21E44"/>
<path d="M17.9299 10.7578C17.6135 10.9395 17.7599 10.7461 15.7209 13.5234C14.8068 14.7715 14.0392 15.7969 14.0158 15.8027C13.9924 15.8086 13.8283 15.6152 13.6525 15.375C12.551 13.8574 12.3576 13.623 12.0881 13.4648C11.5842 13.1719 10.8635 13.2715 10.4767 13.6875C10.1193 14.0742 10.0314 14.7129 10.2717 15.1816C10.4181 15.4746 12.926 18.8906 13.1369 19.084C13.3478 19.2832 13.676 19.3945 14.0334 19.3945C14.4142 19.3945 14.7072 19.2656 14.9767 18.9727C15.2697 18.668 19.5822 12.7734 19.7287 12.4863C19.9806 11.9941 19.8693 11.3145 19.4767 10.9453C19.0783 10.5762 18.3986 10.4883 17.9299 10.7578Z" fill="#D21E44"/>
</g>
<defs>
<clipPath id="clip0_2003_194">
<rect width="30" height="30" fill="white"/>
</clipPath>
</defs>
</svg>
