<svg width="20" height="20" viewBox="0 0 20 20" fill="none" xmlns="http://www.w3.org/2000/svg">
<path d="M9.17971 0.0277319C8.49612 0.137107 7.90237 0.340232 7.44534 0.613669C6.73831 1.03554 6.09377 1.67617 5.6719 2.37148C5.45315 2.73086 5.25784 3.23086 5.14846 3.69179C5.03518 4.18008 5.00784 5.15664 5.09377 5.64883C5.34377 7.08633 6.20706 8.30508 7.50784 9.05117C8.78909 9.78554 10.4961 9.84804 11.8985 9.21523C12.3672 9.00429 12.8086 8.68008 13.2656 8.22695C14.2891 7.20351 14.7383 6.03945 14.6758 4.60195C14.6172 3.32461 14.1836 2.3207 13.293 1.41836C12.5821 0.695701 11.6953 0.230857 10.7149 0.0589819C10.4063 0.0042944 9.43752 -0.0152369 9.17971 0.0277319ZM10.8516 1.32461C11.4375 1.49648 11.9688 1.8207 12.4336 2.29336C12.8985 2.76601 13.1563 3.19961 13.3477 3.81679C13.4453 4.1332 13.4531 4.21133 13.4531 4.82461C13.4492 5.43008 13.4414 5.51992 13.3477 5.83242C13.168 6.42226 12.9063 6.85976 12.4453 7.33633C11.7578 8.05117 10.8438 8.43789 9.86721 8.43789C8.89846 8.43398 8.10159 8.11758 7.41018 7.46133C6.87112 6.94961 6.54299 6.43008 6.3594 5.79336C6.28127 5.52773 6.26956 5.40273 6.27346 4.80508C6.27346 4.17226 6.28127 4.09414 6.38284 3.76992C6.64846 2.90664 7.26174 2.14492 8.08596 1.65664C8.39065 1.47695 8.68752 1.36367 9.10549 1.26992C9.4844 1.18398 10.4766 1.21523 10.8516 1.32461Z" fill="#D21E44"/>
<path d="M5.50781 9.6721C4.60547 9.80491 3.92188 10.1408 3.34766 10.7307C2.25391 11.8557 1.64062 13.8518 1.64062 16.2932C1.64062 17.3244 1.71484 17.6916 2.04297 18.3401C2.16406 18.5783 2.28906 18.7385 2.55859 19.008C2.94141 19.3948 3.27344 19.6135 3.73828 19.7776C4.38281 20.0119 4.16797 20.0041 10.1406 19.9924L15.6055 19.9807L15.9375 19.8791C16.3594 19.7463 16.582 19.6487 16.8633 19.469C17.5156 19.0549 17.9961 18.3987 18.2031 17.6565C18.3281 17.1916 18.3633 16.6369 18.3203 15.7815C18.125 11.9533 16.6719 9.7971 14.1992 9.66038C13.668 9.63303 13.6602 9.63303 12.75 10.219C12.0469 10.6682 11.5586 10.8908 10.9102 11.0588C10.4219 11.1877 9.54688 11.1877 9.0625 11.0627C8.37109 10.883 7.90625 10.6682 7.20312 10.2112C6.94531 10.0432 6.62891 9.84788 6.49219 9.77757C6.26562 9.66038 6.21484 9.64866 5.92578 9.65257C5.75 9.65647 5.5625 9.66428 5.50781 9.6721ZM6.54297 11.2385C7.24219 11.6877 7.76172 11.9416 8.36719 12.1252C9.54688 12.4807 10.6641 12.4573 11.8398 12.0471C12.375 11.8635 12.7578 11.6643 13.4492 11.219L14.0273 10.8518L14.2656 10.8752C15.707 11.0393 16.582 12.219 16.9727 14.5119C17.0898 15.1916 17.1602 16.4612 17.1094 16.9182C17.0039 17.8635 16.4141 18.5198 15.4766 18.7385C15.1953 18.8049 14.8555 18.8088 9.96094 18.8088C4.16406 18.8088 4.53125 18.8244 3.94922 18.5471C3.62891 18.3948 3.22656 18.0002 3.07812 17.6955C2.89062 17.3049 2.85156 17.0627 2.85156 16.3049C2.85547 14.2463 3.33594 12.551 4.1875 11.6213C4.51562 11.2619 4.92578 11.0315 5.44922 10.9182C5.89062 10.8205 5.90234 10.8244 6.54297 11.2385Z" fill="#D21E44"/>
</svg>
