<svg width="17" height="17" viewBox="0 0 17 17" fill="none" xmlns="http://www.w3.org/2000/svg">
<circle cx="8.5" cy="8.5" r="7.75" fill="#D9D9D9" fill-opacity="0.01" stroke="white" stroke-width="1.5"/>
<path d="M9.36523 9.18555H5.45996C5.20593 9.18555 5 8.97962 5 8.72559C5 8.47156 5.20593 8.26562 5.45996 8.26562H9.36523C9.79102 8.26562 10.1406 8.19727 10.4141 8.06055C10.6875 7.92383 10.8887 7.73047 11.0176 7.48047C11.1504 7.23047 11.2168 6.93555 11.2168 6.5957C11.2168 6.31836 11.1543 6.05273 11.0293 5.79883C10.9082 5.54492 10.7109 5.33594 10.4375 5.17188C10.168 5.00781 9.81055 4.92578 9.36523 4.92578H7.33789V11.9688C7.33789 12.2794 7.08605 12.5312 6.77539 12.5312C6.46473 12.5312 6.21289 12.2794 6.21289 11.9688V5C6.21289 4.44772 6.66061 4 7.21289 4H9.36523C10.0098 4 10.5527 4.11133 10.9941 4.33398C11.4355 4.55273 11.7695 4.85742 11.9961 5.24805C12.2266 5.63477 12.3418 6.08008 12.3418 6.58398C12.3418 7.13086 12.2266 7.59961 11.9961 7.99023C11.7695 8.37695 11.4355 8.67383 10.9941 8.88086C10.5527 9.08398 10.0098 9.18555 9.36523 9.18555ZM8.83203 9.98828C9.08768 9.98828 9.29492 10.1955 9.29492 10.4512C9.29492 10.7068 9.08768 10.9141 8.83203 10.9141H5.46289C5.20724 10.9141 5 10.7068 5 10.4512C5 10.1955 5.20724 9.98828 5.46289 9.98828H8.83203Z" fill="white"/>
</svg>
