<svg width="20" height="20" viewBox="0 0 20 20" fill="none" xmlns="http://www.w3.org/2000/svg">
<g clip-path="url(#clip0_206_100)">
<path d="M9.39453 0.0896969C9.07812 0.206884 8.92578 0.324072 8.14843 1.01157C7.59374 1.50376 7.47265 1.5936 7.38671 1.58188C7.33203 1.57017 6.76953 1.5272 6.13671 1.48032C4.86718 1.38267 4.67968 1.39438 4.27734 1.57798C4.01171 1.69907 3.64062 2.04282 3.50781 2.29673C3.44921 2.39829 3.26953 2.91001 3.10546 3.43735C2.9414 3.9647 2.78124 4.47642 2.74999 4.57798L2.68749 4.76548L1.72656 5.33579C0.640619 5.98032 0.484369 6.0936 0.292963 6.37876C0.0624938 6.7186 -0.0117249 7.01157 0.00780634 7.47251L0.0273376 7.87095L0.464838 8.92954L0.902338 9.99204L0.460931 11.0584L0.0195251 12.1288V12.6014C0.0195251 13.0624 0.0234313 13.0741 0.164056 13.3631C0.382806 13.8045 0.554681 13.9452 1.77734 14.6795L2.86718 15.3319L3.11328 16.3592C3.24609 16.9256 3.40624 17.4881 3.46484 17.6092C3.60546 17.91 3.95312 18.2538 4.26562 18.3983C4.68749 18.5936 4.85937 18.6014 6.24218 18.492C7.44531 18.3983 7.47656 18.3983 7.55468 18.4686C8.20703 19.0506 8.95703 19.6874 9.0664 19.7577C9.58593 20.0741 10.3633 20.0858 10.8945 19.7772C11.0312 19.6991 11.6367 19.1874 12.4453 18.4686C12.5234 18.3983 12.5586 18.3983 13.7578 18.492C14.7109 18.5702 15.0508 18.5819 15.2422 18.5506C15.7695 18.4686 16.2812 18.1014 16.5156 17.6327C16.582 17.4959 16.707 17.0936 16.8164 16.6405C16.918 16.2225 17.0312 15.7538 17.0664 15.6053L17.1328 15.3319L18.168 14.7186C19.3828 13.9959 19.6172 13.8045 19.832 13.3709C19.9609 13.1092 19.9805 13.0389 19.9922 12.7108C20.0039 12.5077 19.9883 12.2655 19.9648 12.1678C19.9414 12.0702 19.7344 11.5389 19.5078 10.9881L19.0937 9.98813L19.5352 8.92954L19.9766 7.87095L19.9922 7.47251C20.0117 6.98813 19.9258 6.68345 19.668 6.33188C19.457 6.04673 19.3867 5.99595 18.1484 5.25767L17.1367 4.6561L16.8867 3.62485C16.75 3.06235 16.5937 2.50376 16.543 2.39048C16.4102 2.10532 16.0547 1.74204 15.7617 1.59751C15.3437 1.39438 15.1602 1.38267 13.8633 1.48032C13.2305 1.5272 12.668 1.57017 12.6133 1.58188C12.5273 1.5936 12.3984 1.49595 11.7891 0.960791C11.3906 0.613134 11.0039 0.288916 10.9297 0.242041C10.5156 -0.0157719 9.85156 -0.0782719 9.39453 0.0896969ZM10.2734 1.2772C10.3281 1.31626 10.7383 1.66392 11.1836 2.05845C11.793 2.5936 12.0273 2.7772 12.1289 2.79673C12.2031 2.80845 12.8711 2.77329 13.6133 2.7147C14.3555 2.66001 15.0156 2.62095 15.0781 2.63657C15.2344 2.67173 15.3906 2.80063 15.4492 2.94517C15.4766 3.01157 15.6172 3.55845 15.7617 4.16001C15.9062 4.76157 16.0586 5.30845 16.0977 5.37485C16.1484 5.46079 16.4961 5.69126 17.3945 6.23032C18.25 6.74204 18.6445 7.00376 18.7031 7.0897C18.8594 7.31626 18.8281 7.44126 18.3164 8.67954C17.9844 9.48423 17.8437 9.87095 17.8398 9.98423C17.8398 10.1053 17.957 10.4334 18.3125 11.2967C18.6484 12.1131 18.7891 12.4959 18.7891 12.6053C18.7891 12.8983 18.707 12.9647 17.4023 13.7499C16.5898 14.2381 16.1641 14.5155 16.1133 14.5936C16.0664 14.6639 15.9219 15.1795 15.7461 15.8905C15.4883 16.9569 15.4492 17.0819 15.3477 17.1874C15.1562 17.3788 15.0742 17.3827 13.8047 17.2811C12.375 17.1678 12.1211 17.1639 11.9922 17.2538C11.9375 17.2889 11.5508 17.6209 11.1328 17.9881C10.7148 18.3553 10.3281 18.6874 10.2734 18.7225C10.1641 18.7967 9.8789 18.8124 9.75781 18.7459C9.71093 18.7225 9.32421 18.3905 8.89062 18.0116C8.45703 17.6327 8.06249 17.2928 8.00781 17.2538C7.8789 17.1639 7.63281 17.1678 6.19531 17.2811C4.92187 17.3827 4.84374 17.3788 4.65234 17.1874C4.54687 17.0819 4.51171 16.9608 4.24999 15.8905C4.08203 15.1913 3.93359 14.66 3.88671 14.5897C3.83203 14.5077 3.43749 14.2499 2.59765 13.7499C1.29296 12.9686 1.21093 12.8983 1.21093 12.6092C1.21093 12.4999 1.35546 12.1053 1.68749 11.3006C2.03906 10.4374 2.16015 10.1053 2.15624 9.98423C2.15624 9.87095 2.01171 9.48032 1.68359 8.67563C1.17187 7.43345 1.14062 7.31235 1.29687 7.08579C1.35546 6.99985 1.71093 6.76548 2.50781 6.29282C3.1289 5.92173 3.66015 5.58188 3.69531 5.5272C3.72656 5.47642 3.92968 4.87485 4.14453 4.19126C4.35937 3.50767 4.5664 2.9061 4.60546 2.85142C4.64453 2.79673 4.73437 2.7186 4.80078 2.67954C4.92578 2.60532 4.94921 2.60532 6.38281 2.7147C7.82812 2.82407 7.83984 2.82407 7.98046 2.74985C8.05468 2.71079 8.45703 2.37485 8.87109 2.01157C9.28124 1.64438 9.66406 1.31626 9.72265 1.2811C9.85546 1.19126 10.1484 1.19126 10.2734 1.2772Z" fill="#D21E44"/>
<path d="M9.17969 3.58226C8.84766 3.62522 8.11328 3.80882 7.77344 3.93382C5.66406 4.71897 4.16406 6.45335 3.66406 8.69554C3.58594 9.03538 3.57812 9.19163 3.57812 10.0002C3.57812 10.8049 3.58984 10.9651 3.66406 11.3088C4.23047 13.8518 6.07812 15.719 8.61328 16.3127C9.05859 16.4182 9.12891 16.426 10 16.4221C10.8008 16.4221 10.9688 16.4104 11.3008 16.3362C12.5859 16.051 13.6719 15.4612 14.5664 14.5666C15.4492 13.6838 16.0195 12.6487 16.3125 11.3869C16.418 10.9416 16.4258 10.8713 16.4258 10.0002C16.4258 9.12913 16.418 9.05882 16.3125 8.61351C15.7188 6.08226 13.8281 4.21507 11.3086 3.66819C10.9922 3.59788 10.7656 3.58226 10.1172 3.57444C9.67578 3.56663 9.25391 3.57054 9.17969 3.58226ZM10.8828 4.82444C13.0547 5.20335 14.8242 6.9846 15.1758 9.14085C15.25 9.61741 15.25 10.383 15.1758 10.8596C14.8242 13.0198 13.0547 14.7971 10.8789 15.1721C10.4258 15.2541 9.56641 15.2541 9.11719 15.176C7.51562 14.8948 6.05469 13.8166 5.32422 12.3674C5.10547 11.9338 4.90234 11.3323 4.82422 10.883C4.74609 10.4338 4.74609 9.56663 4.82422 9.11741C5.10547 7.51194 6.18359 6.05101 7.63281 5.32444C8.05078 5.11351 8.66406 4.90647 9.08594 4.82835C9.50781 4.75022 10.4492 4.75022 10.8828 4.82444Z" fill="#D21E44"/>
<path d="M12.6172 7.71875C12.5625 7.75391 11.8203 8.48047 10.9688 9.33203L9.41406 10.8789L8.44922 9.91797C7.91406 9.38672 7.4375 8.92578 7.38281 8.89062C7.24609 8.80078 6.88672 8.80859 6.74219 8.90234C6.5625 9.02344 6.48438 9.17188 6.48438 9.41406C6.48438 9.55078 6.50781 9.66797 6.54688 9.72656C6.64062 9.86719 8.85938 12.0977 9.03906 12.2305C9.16406 12.3242 9.23047 12.3438 9.41406 12.3438C9.59766 12.3438 9.66406 12.3242 9.78906 12.2305C9.96875 12.0977 13.3594 8.69531 13.4531 8.55469C13.4922 8.49609 13.5156 8.37891 13.5156 8.24219C13.5156 8 13.4375 7.85156 13.2578 7.73047C13.1133 7.63672 12.7539 7.62891 12.6172 7.71875Z" fill="#D21E44"/>
</g>
<defs>
<clipPath id="clip0_206_100">
<rect width="20" height="20" fill="white"/>
</clipPath>
</defs>
</svg>
