<svg width="30" height="30" viewBox="0 0 30 30" fill="none" xmlns="http://www.w3.org/2000/svg">
<g clip-path="url(#clip0_2003_228)">
<path d="M14.2676 0.0820312C13.7051 0.263672 13.4121 0.480469 12.3047 1.53516C11.6191 2.19141 11.1035 2.63672 10.9863 2.67773C10.8223 2.73633 10.5527 2.71289 9.36329 2.54297C7.75196 2.32031 7.54688 2.30859 7.06055 2.43164C6.34571 2.61914 5.74219 3.09375 5.41407 3.72656C5.18555 4.1543 5.15039 4.3125 4.89258 5.80078C4.77539 6.46289 4.65235 7.08984 4.62305 7.19531C4.54102 7.45312 4.3711 7.56445 3.10547 8.23828C1.79297 8.92969 1.40039 9.1875 1.16602 9.50977C0.720707 10.1191 0.550785 10.6758 0.60352 11.3613C0.644535 11.8887 0.738285 12.123 1.48829 13.6641C1.82227 14.3555 2.05079 14.8945 2.05079 15C2.05079 15.1055 1.82227 15.6445 1.48829 16.3359C0.738285 17.877 0.644535 18.1113 0.60352 18.6387C0.550785 19.3242 0.720707 19.8809 1.16602 20.4902C1.40039 20.8125 1.79297 21.0703 3.10547 21.7617C4.3711 22.4355 4.54102 22.5469 4.62305 22.8047C4.65821 22.9102 4.78711 23.5898 4.91602 24.3164C5.17383 25.7754 5.23243 25.9863 5.51368 26.4609C5.94727 27.1816 6.83789 27.6621 7.72266 27.6562C7.875 27.6504 8.63086 27.5625 9.4043 27.457C10.541 27.2988 10.8398 27.2754 10.9922 27.3281C11.1035 27.3633 11.6543 27.8438 12.3164 28.4707C13.2891 29.4023 13.5059 29.5781 13.8867 29.7598C14.3145 29.9648 14.3496 29.9707 15 29.9707C15.6504 29.9707 15.6856 29.9648 16.1133 29.7598C16.4941 29.5781 16.7109 29.4023 17.6836 28.4707C18.5098 27.6855 18.8731 27.375 19.0313 27.3281C19.207 27.2754 19.5059 27.3047 20.625 27.457C22.2012 27.6797 22.459 27.6914 22.9395 27.5684C23.6543 27.3809 24.2578 26.9062 24.5859 26.2734C24.8145 25.8457 24.8496 25.6875 25.1074 24.1992C25.2246 23.5371 25.3477 22.9102 25.377 22.8047C25.459 22.5469 25.6289 22.4355 26.8945 21.7617C28.207 21.0703 28.5996 20.8125 28.834 20.4902C29.2793 19.8809 29.4492 19.3242 29.3965 18.6387C29.3555 18.1113 29.2617 17.877 28.5117 16.3359C28.1777 15.6445 27.9492 15.1055 27.9492 15C27.9492 14.8945 28.1777 14.3555 28.5117 13.6641C29.2617 12.123 29.3555 11.8887 29.3965 11.3613C29.4492 10.6758 29.2793 10.1191 28.834 9.50977C28.5996 9.1875 28.207 8.92969 26.8945 8.23828C25.6289 7.56445 25.459 7.45312 25.377 7.19531C25.3477 7.08984 25.2246 6.46289 25.1074 5.80078C24.8496 4.3125 24.8145 4.1543 24.5859 3.72656C24.2578 3.09375 23.6543 2.61914 22.9395 2.43164C22.4531 2.30859 22.2481 2.32031 20.6367 2.54297C19.4473 2.71289 19.1777 2.73633 19.0137 2.67773C18.8965 2.63672 18.3809 2.19141 17.6836 1.5293C16.7051 0.597656 16.4941 0.421875 16.1133 0.240234C15.7148 0.046875 15.6211 0.0292969 15.0879 0.0175781C14.7188 0.00585938 14.4141 0.0292969 14.2676 0.0820312ZM12.334 7.35352C12.8496 7.48828 13.3184 7.76953 13.7344 8.17969C14.3672 8.8125 14.6602 9.5332 14.6602 10.4297C14.6543 11.6074 13.9629 12.6797 12.8555 13.2188C10.6699 14.2734 8.10352 12.3926 8.4375 9.9668C8.60157 8.76562 9.5625 7.66992 10.7285 7.35938C11.1504 7.24805 11.9063 7.24219 12.334 7.35352ZM20.9121 8.49609C21.3457 8.61914 21.6387 9.11719 21.5098 9.50977C21.416 9.79102 9.70313 21.4805 9.46289 21.5273C8.88868 21.6445 8.31446 21.0293 8.49024 20.4902C8.56641 20.2676 20.209 8.5957 20.4492 8.50195C20.6426 8.42578 20.6777 8.42578 20.9121 8.49609ZM19.0195 16.5293C19.207 16.5645 19.5527 16.6816 19.7754 16.7871C21.7617 17.748 22.207 20.2734 20.666 21.8027C20.0215 22.4414 19.3242 22.7344 18.457 22.7344C17.6074 22.7344 16.8926 22.4414 16.2891 21.8438C16.0957 21.6504 15.8672 21.375 15.7852 21.2344C15.1113 20.0859 15.1992 18.6973 16.002 17.7012C16.7754 16.752 17.877 16.3184 19.0195 16.5293Z" fill="#D21E44"/>
<path d="M11.0744 8.99433C10.3244 9.23456 9.90841 10.0607 10.1486 10.8518C10.2365 11.1506 10.6291 11.59 10.9279 11.7248C11.1858 11.8478 11.6897 11.8713 12.0178 11.7775C12.3166 11.6955 12.7092 11.3322 12.8674 10.9924C13.4006 9.84394 12.2815 8.60175 11.0744 8.99433Z" fill="#D21E44"/>
<path d="M17.9529 18.2282C17.6658 18.3103 17.2556 18.7087 17.1091 19.0486C16.8572 19.6462 17.0564 20.3962 17.572 20.7712C18.7439 21.6325 20.2674 20.5368 19.8513 19.1364C19.7517 18.8083 19.2654 18.3103 18.9549 18.2282C18.6795 18.1521 18.2107 18.1521 17.9529 18.2282Z" fill="#D21E44"/>
</g>
<defs>
<clipPath id="clip0_2003_228">
<rect width="30" height="30" fill="white"/>
</clipPath>
</defs>
</svg>
