<svg width="22" height="22" viewBox="0 0 22 22" fill="none" xmlns="http://www.w3.org/2000/svg">
<path d="M2.1914 2.23008V4.32835C2.1914 4.40722 2.14136 4.47741 2.06679 4.50312C1.89921 4.56328 1.6414 4.82969 1.54257 5.04453C1.43515 5.28086 1.43515 5.71914 1.54257 5.95547C1.6371 6.16602 1.87343 6.41094 2.0582 6.49258L2.07372 6.49959C2.14536 6.53194 2.1914 6.60326 2.1914 6.68186V8.27148C2.1914 10.1277 2.21288 10.3512 2.42773 11.043C2.64687 11.7262 3.04648 12.3707 3.58788 12.9121C4.12929 13.4535 4.77382 13.8531 5.45703 14.0723C6.14882 14.2914 6.37226 14.3086 8.2371 14.3086H9.86525C9.92433 14.3086 9.97661 14.3468 9.99452 14.4031C10.0504 14.5879 10.2695 14.8156 10.493 14.9273C11.0172 15.1895 11.6918 14.9918 11.9496 14.502L11.9963 14.4145C12.031 14.3493 12.0989 14.3086 12.1727 14.3086H12.4223C13.0926 14.3086 13.1914 14.4074 13.1914 15.0777C13.1914 15.4387 13.1871 15.4645 13.0969 15.4945C12.9121 15.5504 12.6844 15.7695 12.5726 15.993C12.3105 16.5172 12.5082 17.1918 12.998 17.4496L13.0855 17.4963C13.1507 17.531 13.1914 17.5989 13.1914 17.6727V19.7742V21.8C13.1914 21.9105 13.2809 22 13.3914 22H16.5H19.6086C19.719 22 19.8086 21.9105 19.8086 21.8V19.7699V17.6717C19.8086 17.5928 19.8586 17.5226 19.9332 17.4969C20.1008 17.4367 20.3586 17.1703 20.4574 16.9555C20.5648 16.7191 20.5648 16.2809 20.4574 16.0445C20.3629 15.834 20.1266 15.5891 19.9418 15.5074L19.9263 15.5004C19.8546 15.4681 19.8086 15.3967 19.8086 15.3181V13.7285C19.8086 11.8723 19.7871 11.6488 19.5723 10.957C19.3531 10.2738 18.9535 9.6293 18.4121 9.08789C17.8707 8.54648 17.2262 8.14687 16.543 7.92773C15.8512 7.70859 15.6277 7.69141 13.7629 7.69141H12.1716C12.0928 7.69141 12.0226 7.64136 11.9969 7.5668C11.9367 7.39922 11.6703 7.14141 11.4555 7.04258C11.2191 6.93516 10.7809 6.93516 10.5445 7.04258C10.334 7.13711 10.0891 7.37344 10.0074 7.5582L10.0004 7.57372C9.96805 7.64536 9.89674 7.69141 9.81813 7.69141H9.56913C8.90742 7.69141 8.80859 7.59258 8.80859 6.91367C8.80859 6.56133 8.81288 6.53555 8.90742 6.50547C9.08788 6.44961 9.31562 6.23047 9.42734 6.00703C9.68945 5.48281 9.49179 4.8082 9.00195 4.55039L8.91447 4.50374C8.8493 4.46898 8.80859 4.40113 8.80859 4.32726V2.22578V0.199999C8.80859 0.0895424 8.71904 0 8.60859 0H5.49999H2.3914C2.28094 0 2.1914 0.0895424 2.1914 0.199999V2.23008ZM8.03515 2.57812V4.18281C8.03515 4.29327 7.94561 4.38281 7.83515 4.38281H5.49999H3.16484C3.05438 4.38281 2.96484 4.29327 2.96484 4.18281V2.57812V0.973436C2.96484 0.86298 3.05438 0.773438 3.16484 0.773438H5.49999H7.83515C7.94561 0.773438 8.03515 0.86298 8.03515 0.973436V2.57812ZM8.6539 5.26367C8.80429 5.40117 8.80429 5.59883 8.6539 5.73633L8.59539 5.7905C8.55842 5.82473 8.50989 5.84375 8.45951 5.84375H5.49999H2.54048C2.49009 5.84375 2.44157 5.82473 2.4046 5.7905L2.34609 5.73633C2.1957 5.59883 2.1957 5.40117 2.34609 5.26367L2.4046 5.2095C2.44157 5.17527 2.49009 5.15625 2.54048 5.15625H5.49999H8.45951C8.50989 5.15625 8.55842 5.17527 8.59539 5.2095L8.6539 5.26367ZM8.04374 7.11992C8.06093 7.57969 8.07382 7.64844 8.18554 7.85898C8.42187 8.29297 8.70117 8.43047 9.38007 8.45625L9.68964 8.46683C9.79737 8.47052 9.88281 8.55892 9.88281 8.66672V11.0043V13.3352C9.88281 13.4456 9.79326 13.5352 9.68281 13.5352H8.23281C6.4539 13.5352 6.24335 13.518 5.6332 13.3031C4.51171 12.9121 3.58788 11.9883 3.19687 10.8668C2.98203 10.2566 2.96484 10.0461 2.96484 8.26719V6.81719C2.96484 6.70673 3.05438 6.61719 3.16484 6.61719H5.4957H7.83328C7.94107 6.61719 8.02948 6.70262 8.03316 6.81035L8.04374 7.11992ZM11.2363 7.84609L11.2905 7.9046C11.3247 7.94157 11.3437 7.9901 11.3437 8.04048V11V13.9595C11.3437 14.0099 11.3247 14.0584 11.2905 14.0954L11.2363 14.1539C11.0988 14.3043 10.9012 14.3043 10.7637 14.1539L10.7095 14.0954C10.6753 14.0584 10.6562 14.0099 10.6562 13.9595V11V8.04048C10.6562 7.9901 10.6753 7.94157 10.7095 7.9046L10.7637 7.84609C10.8324 7.77305 10.9098 7.73438 11 7.73438C11.0902 7.73438 11.1676 7.77305 11.2363 7.84609ZM15.7352 8.525C17.4023 8.84297 18.657 10.0977 18.975 11.7648C19.018 12.0012 19.0352 12.491 19.0352 13.7328V15.1828C19.0352 15.2933 18.9456 15.3828 18.8351 15.3828H16.5043H14.1668C14.0589 15.3828 13.9705 15.2973 13.9669 15.1896L13.9562 14.8758C13.9305 14.2012 13.793 13.9219 13.359 13.6855C13.1484 13.5738 13.0797 13.5609 12.6242 13.5437L12.3104 13.5331C12.2026 13.5295 12.1172 13.441 12.1172 13.3332V10.9957V8.66484C12.1172 8.55439 12.2067 8.46484 12.3172 8.46484H13.7672C15.009 8.46484 15.4988 8.48203 15.7352 8.525ZM19.6539 16.2637C19.7269 16.3324 19.7656 16.4098 19.7656 16.5C19.7656 16.5902 19.7269 16.6676 19.6539 16.7363L19.5954 16.7905C19.5584 16.8247 19.5099 16.8438 19.4595 16.8438H16.5H13.5405C13.4901 16.8438 13.4416 16.8247 13.4046 16.7905L13.3461 16.7363C13.273 16.6676 13.2344 16.5902 13.2344 16.5C13.2344 16.4098 13.273 16.3324 13.3461 16.2637L13.4046 16.2095C13.4416 16.1753 13.4901 16.1562 13.5405 16.1562H16.5H19.4595C19.5099 16.1562 19.5584 16.1753 19.5954 16.2095L19.6539 16.2637ZM19.0352 19.4219V21.0266C19.0352 21.137 18.9456 21.2266 18.8351 21.2266H16.5H14.1648C14.0544 21.2266 13.9648 21.137 13.9648 21.0266V19.4219V17.8172C13.9648 17.7067 14.0544 17.6172 14.1648 17.6172H16.5H18.8351C18.9456 17.6172 19.0352 17.7067 19.0352 17.8172V19.4219Z" fill="#D21E44"/>
</svg>
