<svg xmlns="http://www.w3.org/2000/svg" width="20" height="20" viewBox="0 0 20 20" fill="none">
    <g clip-path="url(#clip0_206_121)">
        <path
            d="M9.51171 0.0623951C6.90233 0.261614 4.8164 1.16786 3.0703 2.85536C1.45311 4.41786 0.468739 6.30849 0.0937394 8.57411C-1.05649e-05 9.12099 -0.0117293 10.8749 0.0742082 11.4257C0.527333 14.4257 2.05858 16.828 4.5703 18.4882C5.5664 19.1444 7.05858 19.7382 8.18358 19.9218C8.72655 20.0116 9.17577 19.6522 9.17968 19.1288C9.17968 18.6718 8.91405 18.3866 8.3789 18.2851C6.74608 17.9608 5.14452 17.0819 3.97655 15.8671C1.91015 13.7108 1.14061 10.6171 1.96874 7.7499C2.76952 4.97255 5.01561 2.75771 7.78905 2.01552C8.68749 1.77333 9.33202 1.69911 10.2695 1.73036C11.4492 1.76552 12.3516 1.97255 13.4141 2.44521C13.9883 2.70302 14.6211 3.07802 14.582 3.14052C14.5664 3.16396 14.4101 3.39833 14.2305 3.66396C14.0508 3.92568 13.9062 4.16396 13.9062 4.1913C13.9062 4.21865 13.9336 4.28115 13.9687 4.32802C14.0195 4.39833 14.0664 4.41396 14.25 4.41396C14.5117 4.41396 16.9883 4.1913 17.1289 4.15615C17.2891 4.11708 17.4219 3.92568 17.4219 3.73818C17.4219 3.51161 16.6719 0.839739 16.582 0.742083C16.4219 0.566301 16.3125 0.648333 15.8984 1.24599C15.7187 1.50771 15.5664 1.71865 15.5586 1.71865C15.5508 1.71865 15.375 1.61708 15.1641 1.48818C13.9766 0.773333 12.6289 0.304583 11.2695 0.136614C10.8086 0.0819263 9.82811 0.0389576 9.51171 0.0623951Z"
            fill="#D21E44" />
        <path
            d="M9.23828 3.60943C9.08594 3.67583 8.96484 3.81255 8.88672 3.99224C8.83594 4.12115 8.82812 4.54693 8.82812 7.42974V10.7227L11.8438 12.2813C14.0156 13.4063 14.9023 13.8438 15.0234 13.8594C15.6211 13.9258 15.9922 13.1172 15.5508 12.7149C15.5039 12.6719 14.2734 12.0196 12.8203 11.2696L10.1758 9.89849L10.1562 6.92583C10.1367 4.00005 10.1367 3.94927 10.0547 3.8399C9.88281 3.60552 9.49609 3.49615 9.23828 3.60943Z"
            fill="#D21E44" />
        <path
            d="M18.4961 5.84001C18.4765 5.84782 18.3906 5.86345 18.3086 5.87907C18.1328 5.90642 17.8867 6.11345 17.7929 6.31267C17.6679 6.5822 17.75 7.06657 18.0117 7.59001C18.2265 8.01188 18.8476 8.13298 19.2461 7.82829C19.5586 7.59001 19.6133 7.19157 19.4101 6.63688C19.2773 6.2697 19.2265 6.17985 19.0742 6.03532C18.9453 5.91813 18.6094 5.80485 18.4961 5.84001Z"
            fill="#D21E44" />
        <path
            d="M18.8398 8.96825C18.6601 9.05809 18.4492 9.30418 18.4023 9.47997C18.3476 9.67528 18.3476 10.2143 18.4023 10.4682C18.5547 11.1831 19.582 11.3159 19.914 10.6636C19.9883 10.5112 20 10.4331 20 9.9995C20 9.5659 19.9883 9.48778 19.914 9.33543C19.7773 9.06981 19.5508 8.92918 19.2265 8.91356C19.039 8.90575 18.9297 8.92137 18.8398 8.96825Z"
            fill="#D21E44" />
        <path
            d="M18.4766 12.0428C18.25 12.117 18.0742 12.3319 17.9297 12.7186C17.7813 13.117 17.7461 13.4061 17.8125 13.6092C18.0117 14.2186 18.875 14.3514 19.25 13.8319C19.3086 13.7498 19.418 13.4959 19.4883 13.2655C19.6133 12.867 19.6172 12.8358 19.5703 12.6288C19.4648 12.1522 18.9727 11.8866 18.4766 12.0428Z"
            fill="#D21E44" />
        <path
            d="M17.1484 14.8002C16.918 14.8745 16.7812 14.9799 16.5625 15.2573C16.4336 15.4213 16.3008 15.6049 16.2695 15.6635C16.0703 16.0541 16.2226 16.5502 16.6094 16.7495C16.8437 16.8706 17.1562 16.8745 17.3828 16.7573C17.5547 16.6713 17.9648 16.2026 18.0859 15.9526C18.2734 15.5737 18.1055 15.0581 17.7305 14.8627C17.6015 14.7924 17.2734 14.7573 17.1484 14.8002Z"
            fill="#D21E44" />
        <path
            d="M14.8086 16.957C14.6406 17.0234 14.0859 17.3749 13.9961 17.4687C13.7969 17.6835 13.7266 18.121 13.8516 18.371C14.0156 18.6952 14.25 18.8437 14.5977 18.8398C14.8164 18.8398 14.8789 18.8163 15.1758 18.6484C15.3594 18.5429 15.5664 18.4023 15.6328 18.3398C16.1836 17.8085 15.8047 16.9023 15.0391 16.9179C14.9648 16.9179 14.8594 16.9374 14.8086 16.957Z"
            fill="#D21E44" />
        <path
            d="M11.8164 18.2343C11.332 18.3437 11.2266 18.3906 11.0742 18.5585C10.9023 18.7499 10.8594 18.8554 10.8594 19.1054C10.8594 19.4452 11.0117 19.6991 11.3047 19.8515C11.4883 19.9452 11.8242 19.9374 12.3008 19.8241C12.5469 19.7656 12.6133 19.7304 12.7734 19.5741C13.168 19.1952 13.1133 18.5937 12.6562 18.3124C12.4258 18.1718 12.1992 18.1484 11.8164 18.2343Z"
            fill="#D21E44" />
    </g>
    <defs>
        <clipPath id="clip0_206_121">
            <rect width="20" height="20" fill="white" />
        </clipPath>
    </defs>
</svg>