<svg width="1200" height="178" viewBox="0 0 1200 178" fill="none" xmlns="http://www.w3.org/2000/svg">
<path d="M63.8612 178C51.6409 178 40.3666 176.573 30.0384 173.72C19.7891 170.787 9.77629 165.872 0 158.976V118.076H24.8349L28.6193 143.282C32.4825 146.294 37.4889 148.712 43.6385 150.535C49.867 152.358 56.6079 153.269 63.8612 153.269C70.4839 153.269 76.0422 152.358 80.5361 150.535C85.1089 148.632 88.5779 145.977 90.9431 142.569C93.3084 139.081 94.491 135.038 94.491 130.441C94.491 126.002 93.4266 122.118 91.2979 118.789C89.1692 115.381 85.6608 112.329 80.7726 109.634C75.9633 106.86 69.4195 104.244 61.1412 101.787C47.8959 98.0613 36.8582 93.8206 28.028 89.0647C19.1978 84.3088 12.5751 78.6018 8.16005 71.9435C3.82379 65.206 1.65566 57.2002 1.65566 47.9262C1.65566 38.6522 4.17858 30.4483 9.2244 23.3145C14.3491 16.1014 21.4053 10.4339 30.3932 6.31213C39.4599 2.19036 49.867 0.0898336 61.6143 0.0105687C74.7019 -0.147961 86.2521 1.47697 96.2649 4.88536C106.278 8.29376 114.832 12.8911 121.928 18.6775V56.7246H97.684L93.3084 32.8263C90.1547 30.6861 86.0156 28.863 80.8909 27.357C75.7662 25.8509 69.8532 25.0979 63.1517 25.0979C57.3963 25.0979 52.311 26.0095 47.8959 27.8326C43.4808 29.5764 40.0118 32.1525 37.4889 35.5609C34.966 38.9693 33.7045 43.0514 33.7045 47.8073C33.7045 51.9291 34.8083 55.5357 37.0159 58.627C39.2234 61.7183 42.9289 64.5719 48.1325 67.1876C53.336 69.8034 60.3922 72.4984 69.3013 75.2726C88.1443 80.4249 102.415 87.4002 112.112 96.1986C121.888 104.918 126.776 116.253 126.776 130.203C126.776 139.874 124.135 148.315 118.853 155.528C113.649 162.662 106.317 168.211 96.8562 172.174C87.4741 176.058 76.4758 178 63.8612 178Z" fill="white"/>
<path d="M142.032 175.503V156.004L160.481 152.437V25.5735L142.032 22.0066V2.38852H207.431L256.155 125.328H256.864L304.05 2.38852H369.804V22.0066L351.237 25.5735V152.437L369.804 156.004V175.503H300.503V156.004L320.016 152.437V115.698L320.489 38.7711L319.897 38.6522L267.389 172.293H243.619L189.81 39.4845L189.1 39.6034L190.992 112.844V152.437L211.333 156.004V175.503H142.032Z" fill="white"/>
<path d="M373.233 175.503V156.004L385.651 154.221L441.589 2.38852H473.638L529.102 154.221L541.401 156.004V175.503H484.754V156.004L496.935 153.745L488.538 128.301H426.215L417.818 153.745L429.881 156.004V175.503H373.233ZM434.138 103.927H480.615L459.446 42.3381L457.79 37.3444H457.081L455.307 42.5758L434.138 103.927Z" fill="white"/>
<path d="M554.174 175.503V156.004L572.741 152.437V25.5735L554.174 22.0066V2.38852H634.828C647.837 2.38852 658.993 4.40977 668.296 8.45229C677.678 12.4948 684.813 18.3208 689.701 25.9302C694.668 33.5396 697.152 42.6551 697.152 53.2766C697.152 63.4225 694.708 72.3795 689.82 80.1474C684.931 87.9154 678.072 94.0188 669.242 98.4576C660.491 102.817 650.32 105.037 638.731 105.116L604.908 105.235V152.437L623.475 156.004V175.503H554.174ZM665.576 175.503L634.591 98.2198L664.157 92.1561L690.647 152.675L704.721 155.766V175.503H665.576ZM604.908 80.2663H633.764C644.407 80.2663 652.291 78.0865 657.416 73.727C662.541 69.2881 665.103 62.8677 665.103 54.4656C665.103 46.222 662.58 39.643 657.534 34.7286C652.488 29.8142 644.92 27.357 634.828 27.357H604.908V80.2663Z" fill="white"/>
<path d="M753.917 175.503V156.004L772.484 152.437V27.2381H739.49L737.243 48.6396H712.999V2.38852H864.374V48.6396H840.012L837.765 27.2381H804.652V152.437L823.337 156.004V175.503H753.917Z" fill="white"/>
<path d="M878.447 175.503V156.004L897.014 152.437V25.5735L878.447 22.0066V2.38852H1010.78V48.0451H985.947L984.173 27.2381H929.181V73.4892H988.548V98.5765H929.181V150.772H987.247L989.021 129.49H1013.62V175.503H878.447Z" fill="white"/>
<path d="M1031.24 175.503V156.004L1046.26 153.15L1095.93 89.3025L1049.33 24.979L1035.14 22.0066V2.38852H1099.95V22.0066L1083.63 23.5523L1114.97 67.7821L1145.95 23.5523L1129.75 22.0066V2.38852H1193.97V22.0066L1178.59 24.979L1134.01 86.9246L1183.92 153.032L1200 156.004V175.503H1133.77V156.004L1148.91 154.458L1115.09 107.851L1080.79 154.458L1095.58 156.004V175.503H1031.24Z" fill="white"/>
</svg>
